<svg width="1495" height="1512" viewBox="0 0 1495 1512" fill="none" xmlns="http://www.w3.org/2000/svg">
<path d="M1325.29 1339.51C1340.83 1329.52 1354.92 1317.67 1366.78 1303.31C1454.91 1196.63 1453.99 1046.11 1447.93 916.4C1440.78 763.3 1413.69 610.13 1335.39 475.08C1259.92 344.91 1146.2 234.34 1003.86 175.21C964.59 158.89 923.57 146.62 881.68 138.58C804.3 123.74 723.98 126.85 648.51 149.51C619.71 158.16 591.61 168.99 564.22 181.21C376.96 264.76 350.95 436.92 278.13 609.07C226.58 730.93 105.35 810.57 53.93 932.61C-3.65 1069.28 88.63 1218.63 206.39 1291.97C233.34 1308.75 262.2 1322.6 292.11 1333.61C571.94 1436.58 887.56 1468.17 1178.85 1393.22C1227.87 1380.61 1282.19 1367.22 1325.3 1339.51H1325.29Z" fill="#4FE89C"/>
<path opacity="0.7" d="M1325.29 1339.51C1340.83 1329.52 1354.92 1317.67 1366.78 1303.31C1454.91 1196.63 1453.99 1046.11 1447.93 916.4C1440.78 763.3 1413.69 610.13 1335.39 475.08C1259.92 344.91 1146.2 234.34 1003.86 175.21C964.59 158.89 923.57 146.62 881.68 138.58C804.3 123.74 723.98 126.85 648.51 149.51C619.71 158.16 591.61 168.99 564.22 181.21C376.96 264.76 350.95 436.92 278.13 609.07C226.58 730.93 105.35 810.57 53.93 932.61C-3.65 1069.28 88.63 1218.63 206.39 1291.97C233.34 1308.75 262.2 1322.6 292.11 1333.61C571.94 1436.58 887.56 1468.17 1178.85 1393.22C1227.87 1380.61 1282.19 1367.22 1325.3 1339.51H1325.29Z" fill="white"/>
<path opacity="0.3" d="M199.89 1264.28L207.93 1241.89L189.32 1231.74L174.86 1250.63C170.66 1249.66 166.4 1249.2 162.18 1249.26L152.04 1227.76L131.71 1233.74L134.84 1257.3C131.25 1259.54 127.93 1262.23 124.92 1265.32L102.53 1257.28L92.3799 1275.89L111.27 1290.35C110.3 1294.55 109.84 1298.81 109.9 1303.03L88.3999 1313.17L94.3799 1333.5L117.94 1330.37C120.17 1333.96 122.86 1337.28 125.96 1340.29L117.92 1362.68L136.53 1372.83L150.99 1353.94C155.19 1354.91 159.45 1355.37 163.67 1355.31L173.8 1376.81L194.13 1370.83L191 1347.27C194.59 1345.04 197.91 1342.35 200.92 1339.25L223.31 1347.29L233.46 1328.68L214.57 1314.22C215.54 1310.02 216 1305.76 215.94 1301.54L237.44 1291.4L231.46 1271.07L207.9 1274.2C207.35 1273.32 206.77 1272.45 206.17 1271.6M137.75 1324.42C128.72 1314.15 126.58 1298.94 133.5 1286.25C142.36 1270 162.71 1264.01 178.96 1272.87C195.21 1281.73 201.2 1302.08 192.34 1318.33C184.35 1332.99 166.99 1339.3 151.74 1333.88" stroke="black" stroke-width="3.08" stroke-linecap="round" stroke-linejoin="round"/>
<path opacity="0.3" d="M164.07 1190.94C158.51 1192.63 152.31 1192.17 146.81 1189.17C135.94 1183.24 131.93 1169.62 137.86 1158.75C143.79 1147.88 157.41 1143.87 168.28 1149.8C179.15 1155.73 183.16 1169.35 177.23 1180.22C176.59 1181.4 175.85 1182.5 175.04 1183.51M127.43 1209.9L139.88 1216.69L149.56 1204.05C152.37 1204.7 155.22 1205.01 158.05 1204.97L164.83 1219.36L178.43 1215.36L176.34 1199.59C178.74 1198.09 180.96 1196.29 182.98 1194.22L197.96 1199.6L204.75 1187.15L192.11 1177.47C192.76 1174.66 193.07 1171.81 193.03 1168.98L207.42 1162.2L203.42 1148.59L187.65 1150.68C186.15 1148.28 184.35 1146.06 182.28 1144.04L187.66 1129.06L175.21 1122.27L165.53 1134.91C162.72 1134.26 159.87 1133.95 157.04 1133.99L150.26 1119.6L136.65 1123.6L138.74 1139.37C136.34 1140.87 134.12 1142.67 132.1 1144.74L117.12 1139.36L110.33 1151.81L122.97 1161.49C122.32 1164.3 122.01 1167.15 122.05 1169.98L107.66 1176.76L111.66 1190.37L127.43 1188.28C128.93 1190.68 130.73 1192.9 132.8 1194.92L127.42 1209.9H127.43Z" stroke="black" stroke-width="3.08" stroke-linecap="round" stroke-linejoin="round"/>
<path opacity="0.3" d="M964.06 400.18L972.1 377.79L953.49 367.64L939.03 386.53C934.83 385.56 930.57 385.1 926.35 385.16L916.21 363.66L895.88 369.64L899.01 393.2C895.42 395.43 892.1 398.12 889.09 401.22L866.7 393.18L856.55 411.79L875.44 426.25C874.47 430.45 874.01 434.71 874.07 438.93L852.57 449.07L858.55 469.4L882.11 466.27C884.34 469.86 887.03 473.18 890.13 476.19L882.09 498.58L900.7 508.73L915.16 489.84C919.36 490.81 923.62 491.27 927.84 491.21L937.98 512.71L958.31 506.73L955.18 483.17C958.77 480.94 962.09 478.25 965.1 475.15L987.49 483.19L997.64 464.58L978.75 450.12C979.72 445.92 980.18 441.66 980.12 437.44L1001.62 427.31L995.64 406.98L972.08 410.11C971.53 409.23 970.95 408.36 970.35 407.51M901.93 460.33C892.9 450.06 890.76 434.86 897.68 422.16C906.54 405.91 926.89 399.92 943.14 408.78C959.39 417.64 965.38 437.99 956.52 454.24C948.53 468.9 931.17 475.21 915.92 469.79" stroke="black" stroke-width="3.08" stroke-linecap="round" stroke-linejoin="round"/>
<path opacity="0.3" d="M928.25 326.84C922.69 328.53 916.49 328.07 910.99 325.07C900.12 319.14 896.11 305.52 902.04 294.65C907.97 283.78 921.59 279.77 932.46 285.7C943.33 291.63 947.34 305.25 941.41 316.12C940.77 317.3 940.03 318.4 939.22 319.41M891.61 345.8L904.06 352.59L913.74 339.95C916.55 340.6 919.4 340.91 922.23 340.87L929.01 355.26L942.61 351.26L940.52 335.49C942.92 333.99 945.14 332.19 947.16 330.12L962.14 335.5L968.93 323.05L956.29 313.37C956.94 310.56 957.25 307.71 957.21 304.88L971.6 298.1L967.6 284.49L951.83 286.58C950.33 284.18 948.53 281.96 946.46 279.94L951.84 264.96L939.39 258.17L929.71 270.81C926.9 270.16 924.05 269.85 921.22 269.89L914.44 255.5L900.83 259.5L902.92 275.27C900.52 276.77 898.3 278.57 896.28 280.64L881.3 275.26L874.51 287.71L887.15 297.39C886.5 300.2 886.19 303.05 886.23 305.88L871.84 312.66L875.84 326.27L891.61 324.18C893.11 326.58 894.91 328.8 896.98 330.82L891.6 345.8H891.61Z" stroke="black" stroke-width="3.08" stroke-linecap="round" stroke-linejoin="round"/>
<g opacity="0.3">
<path d="M1147.55 382.28C1154.04 382.28 1159.31 377.015 1159.31 370.52C1159.31 364.025 1154.04 358.76 1147.55 358.76C1141.06 358.76 1135.79 364.025 1135.79 370.52C1135.79 377.015 1141.06 382.28 1147.55 382.28Z" stroke="black" stroke-width="3.08" stroke-linecap="round" stroke-linejoin="round"/>
<path d="M115.84 582.16C122.335 582.16 127.6 576.895 127.6 570.4C127.6 563.905 122.335 558.64 115.84 558.64C109.345 558.64 104.08 563.905 104.08 570.4C104.08 576.895 109.345 582.16 115.84 582.16Z" stroke="black" stroke-width="3.08" stroke-linecap="round" stroke-linejoin="round"/>
<path d="M1000.58 1190.6C1007.07 1190.6 1012.34 1185.33 1012.34 1178.84C1012.34 1172.35 1007.07 1167.08 1000.58 1167.08C994.085 1167.08 988.82 1172.35 988.82 1178.84C988.82 1185.33 994.085 1190.6 1000.58 1190.6Z" stroke="black" stroke-width="3.08" stroke-linecap="round" stroke-linejoin="round"/>
<path d="M136.42 1093.6C142.915 1093.6 148.18 1088.33 148.18 1081.84C148.18 1075.35 142.915 1070.08 136.42 1070.08C129.925 1070.08 124.66 1075.35 124.66 1081.84C124.66 1088.33 129.925 1093.6 136.42 1093.6Z" stroke="black" stroke-width="3.08" stroke-linecap="round" stroke-linejoin="round"/>
<path d="M933.69 575.56L908.75 600.51" stroke="black" stroke-width="3.08" stroke-linecap="round" stroke-linejoin="round"/>
<path d="M933.69 600.51L908.75 575.56" stroke="black" stroke-width="3.08" stroke-linecap="round" stroke-linejoin="round"/>
<path d="M844.08 1292.76L869.02 1317.7" stroke="black" stroke-width="3.08" stroke-linecap="round" stroke-linejoin="round"/>
<path d="M869.02 1292.76L844.08 1317.7" stroke="black" stroke-width="3.08" stroke-linecap="round" stroke-linejoin="round"/>
<path d="M59.28 731.35L84.22 756.29" stroke="black" stroke-width="3.08" stroke-linecap="round" stroke-linejoin="round"/>
<path d="M84.22 731.35L59.28 756.29" stroke="black" stroke-width="3.08" stroke-linecap="round" stroke-linejoin="round"/>
<path d="M979.29 149.36L1004.23 174.3" stroke="black" stroke-width="3.08" stroke-linecap="round" stroke-linejoin="round"/>
<path d="M1004.23 149.36L979.29 174.3" stroke="black" stroke-width="3.08" stroke-linecap="round" stroke-linejoin="round"/>
<path d="M373.79 169.94L398.73 194.88" stroke="black" stroke-width="3.08" stroke-linecap="round" stroke-linejoin="round"/>
<path d="M398.73 169.94L373.79 194.88" stroke="black" stroke-width="3.08" stroke-linecap="round" stroke-linejoin="round"/>
</g>
<path d="M71.4299 1410.14H1420.17" stroke="#263238" stroke-width="3.08" stroke-linecap="round" stroke-linejoin="round"/>
<path d="M193.04 338.39L193.04 1330.04C193.04 1364.89 221.291 1393.14 256.14 1393.14H706.45C741.299 1393.14 769.55 1364.89 769.55 1330.04L769.55 338.39C769.55 303.541 741.299 275.29 706.45 275.29H256.14C221.291 275.29 193.04 303.541 193.04 338.39Z" fill="white"/>
<path d="M769.56 335.54C769.56 321.11 764.48 307.88 756.02 297.51C727.19 311.48 685.96 341.14 632.56 403.26C517.77 536.79 482.63 860.08 346.76 1000.64C288.59 1060.82 235.15 1097.79 193.05 1120.42V1332.88C193.05 1366.16 220.03 1393.14 253.31 1393.14H675.96C678.73 1389.71 681.45 1386.17 684.11 1382.49C715.83 1338.57 744.99 1301.73 769.57 1272.33V335.54H769.56Z" fill="#D6D6D6"/>
<path d="M193.04 335.54V593.36C239.96 572.43 296.73 532.64 337.38 457.15C378.57 380.66 431.58 318.36 474.14 275.29H253.3C220.02 275.29 193.04 302.27 193.04 335.55V335.54Z" fill="#D6D6D6"/>
<path d="M237.59 299.48C237.59 306.32 229.91 308.78 229.88 313.99V314.35H237.33V316.65H227.39V314.71C227.39 307.39 235.07 305.96 235.07 299.58C235.07 297.25 234.29 296.02 232.41 296.02C230.53 296.02 229.75 297.35 229.75 299.35V301.36H227.39V299.51C227.39 296.04 228.98 293.74 232.47 293.74C235.96 293.74 237.59 296.01 237.59 299.47V299.48Z" fill="#263238"/>
<path d="M250 299.45V300.03C250 302.36 249.06 304.02 247.25 304.7C249.16 305.41 250 307.13 250 309.4V311.15C250 314.62 248.38 316.88 244.88 316.88C241.38 316.88 239.8 314.61 239.8 311.15V309.59H242.16V311.31C242.16 313.35 243 314.58 244.82 314.58C246.64 314.58 247.48 313.38 247.48 311.08V309.33C247.48 307.09 246.54 306.03 244.63 305.96H243.27V303.69H244.76C246.44 303.62 247.48 302.56 247.48 300.58V299.54C247.48 297.21 246.67 296.01 244.82 296.01C242.97 296.01 242.16 297.27 242.16 299.31V300.48H239.8V299.44C239.8 295.97 241.42 293.74 244.88 293.74C248.34 293.74 250 295.98 250 299.44V299.45Z" fill="#263238"/>
<path d="M254.89 301.16V304.3H252.46V301.16H254.89ZM254.89 313.5V316.64H252.46V313.5H254.89Z" fill="#263238"/>
<path d="M260.01 303.2C260.72 301.97 261.86 301.32 263.38 301.32C266.3 301.32 267.59 303.46 267.59 306.7V311.14C267.59 314.61 265.94 316.87 262.48 316.87C259.02 316.87 257.39 314.6 257.39 311.14V309.62H259.75V311.3C259.75 313.34 260.59 314.57 262.41 314.57C264.23 314.57 265.07 313.34 265.07 311.3V306.9C265.07 304.86 264.23 303.63 262.41 303.63C261.02 303.63 260.08 304.41 259.85 306.06V306.58H257.49L258.11 293.98H267.05V296.25H260.38L260.02 303.22L260.01 303.2Z" fill="#263238"/>
<path d="M280.2 299.41V299.83H277.84V299.25C277.84 297.21 277 296.01 275.15 296.01C273.3 296.01 272.4 297.24 272.4 299.67V304.76C273.01 303.21 274.25 302.33 276.06 302.33C278.98 302.33 280.27 304.44 280.27 307.71V311.14C280.27 314.61 278.55 316.87 275.09 316.87C271.63 316.87 269.87 314.6 269.87 311.14V299.58C269.87 295.98 271.49 293.75 275.09 293.75C278.69 293.75 280.21 295.95 280.21 299.42L280.2 299.41ZM272.39 307.9V311.3C272.39 313.34 273.23 314.57 275.08 314.57C276.93 314.57 277.77 313.34 277.77 311.3V307.9C277.77 305.86 276.9 304.63 275.08 304.63C273.26 304.63 272.39 305.86 272.39 307.9Z" fill="#263238"/>
<path d="M634.15 300.41H627.75V316.42H634.15V300.41Z" fill="#263238"/>
<path d="M642.69 297.2H636.29V316.41H642.69V297.2Z" fill="#263238"/>
<path d="M651.22 294.93H644.82V316.42H651.22V294.93Z" fill="#263238"/>
<path d="M659.76 290.97H653.36V316.42H659.76V290.97Z" fill="#263238"/>
<path d="M738.99 315.98H700.58V292.51H738.99V315.98ZM702.71 313.85H736.85V294.64H702.71V313.85Z" fill="#263238"/>
<path d="M726.18 296.96H705.91V311.52H726.18V296.96Z" fill="#263238"/>
<path d="M742.49 301.47H737.66V307H742.49V301.47Z" fill="#263238"/>
<path d="M686.49 310.87C686.24 310.87 685.99 310.81 685.76 310.67C677.94 306.02 672.78 310.34 672.56 310.52C671.96 311.04 671.06 310.97 670.54 310.38C670.02 309.78 670.08 308.89 670.67 308.37C670.95 308.13 677.55 302.47 687.23 308.21C687.91 308.61 688.13 309.5 687.73 310.18C687.46 310.63 686.98 310.88 686.5 310.88L686.49 310.87Z" fill="#263238"/>
<path d="M689.38 306.05C689.13 306.05 688.88 305.99 688.65 305.85C677.35 299.13 669.75 305.63 669.67 305.69C669.08 306.22 668.17 306.16 667.65 305.56C667.13 304.97 667.18 304.06 667.78 303.54C667.87 303.46 677.04 295.61 690.12 303.38C690.8 303.78 691.02 304.67 690.62 305.35C690.35 305.8 689.87 306.05 689.39 306.05H689.38Z" fill="#263238"/>
<path d="M692.01 300.46C691.76 300.46 691.51 300.4 691.28 300.26C676.97 291.75 667.45 299.76 667.05 300.11C666.45 300.63 665.55 300.56 665.03 299.97C664.51 299.38 664.57 298.47 665.16 297.95C665.27 297.85 676.58 288.18 692.75 297.79C693.43 298.19 693.65 299.08 693.25 299.76C692.98 300.21 692.5 300.46 692.02 300.46H692.01Z" fill="#263238"/>
<path d="M682.17 313.27C682.17 315.26 680.56 316.87 678.57 316.87C676.58 316.87 674.97 315.26 674.97 313.27C674.97 311.28 676.58 309.67 678.57 309.67C680.56 309.67 682.17 311.28 682.17 313.27Z" fill="#263238"/>
<path d="M785.05 315.04V349.38H795.73V446.96H785.05V469.14H795.73V566.72H785.05V588.9H795.73V686.48H785.05V1353.41C785.05 1388.5 756.6 1416.95 721.51 1416.95H241.09C206 1416.95 177.55 1388.5 177.55 1353.41V525.04H169.93V427.46H177.55V315.06C177.55 279.97 206 251.52 241.09 251.52H721.52C756.61 251.52 785.06 279.97 785.06 315.06L785.05 315.04ZM618.92 275.28L600.17 303.19C594.54 311.56 585.12 316.59 575.03 316.59H387.56C377.47 316.59 368.05 311.57 362.42 303.19L343.67 275.28H256.58C221.49 275.28 193.04 303.73 193.04 338.82V1329.59C193.04 1364.68 221.49 1393.13 256.58 1393.13H706.01C741.1 1393.13 769.55 1364.68 769.55 1329.59V338.83C769.55 303.74 741.1 275.29 706.01 275.29H618.92V275.28Z" fill="#263238"/>
<path d="M719.69 588.03H724.1C733.03 588.03 740.27 595.27 740.27 604.2V913.05C740.27 963.25 780.97 1003.95 831.17 1003.95C881.37 1003.95 922.07 963.25 922.07 913.05V799.66" stroke="#263238" stroke-width="3.08" stroke-linecap="round" stroke-linejoin="round"/>
<path d="M706.22 588.03H719.69" stroke="#263238" stroke-width="9.23" stroke-linecap="round" stroke-linejoin="round"/>
<path d="M384.99 777.42C390.21 777.42 394.44 781.65 394.44 786.87V913.37C394.44 1056.32 510.33 1172.21 653.28 1172.21C789.15 1172.21 899.29 1062.07 899.29 926.2V800.37" stroke="#263238" stroke-width="3.08" stroke-linecap="round" stroke-linejoin="round"/>
<path d="M370.14 777.42H384.99" stroke="#263238" stroke-width="9.23" stroke-linecap="round" stroke-linejoin="round"/>
<path d="M727.59 975.95C736.62 975.95 743.94 983.27 743.94 992.3V1140.14C743.94 1196.27 789.45 1241.78 845.58 1241.78C901.71 1241.78 947.22 1196.27 947.22 1140.14V803.94" stroke="#263238" stroke-width="3.08" stroke-linecap="round" stroke-linejoin="round"/>
<path d="M708.39 975.95H727.59" stroke="#263238" stroke-width="9.23" stroke-linecap="round" stroke-linejoin="round"/>
<path d="M691.62 521.12H590.31C581.578 521.12 574.5 528.198 574.5 536.93V638.24C574.5 646.972 581.578 654.05 590.31 654.05H691.62C700.352 654.05 707.43 646.972 707.43 638.24V536.93C707.43 528.198 700.352 521.12 691.62 521.12Z" fill="#4FE89C" stroke="#263238" stroke-width="3.08" stroke-linecap="round" stroke-linejoin="round"/>
<path d="M683.83 584.65V574.58L673.67 572.88C672.82 568.67 671.17 564.76 668.89 561.29L674.93 552.82L667.81 545.7L659.36 551.73C655.92 549.46 652.04 547.8 647.86 546.94L646.13 536.61H636.06L634.33 546.94C630.19 547.8 626.35 549.43 622.93 551.67L614.3 545.51L607.18 552.63L613.32 561.24C611.09 564.63 609.46 568.44 608.59 572.54L598.08 574.3V584.37L608.52 586.12C609.35 590.23 610.97 594.05 613.17 597.46L606.98 606.13L614.1 613.25L622.67 607.13C626.07 609.4 629.91 611.04 634.03 611.94L635.77 622.34H645.84L647.56 612.06C651.74 611.23 655.63 609.61 659.09 607.37L667.6 613.44L674.72 606.32L668.72 597.91C671.03 594.46 672.7 590.55 673.59 586.35L683.81 584.64L683.83 584.65ZM641.1 604.17C627.47 604.17 616.42 593.12 616.42 579.49C616.42 565.86 627.47 554.81 641.1 554.81C654.73 554.81 665.78 565.86 665.78 579.49C665.78 593.12 654.73 604.17 641.1 604.17Z" fill="white" stroke="#263238" stroke-width="3.08" stroke-linecap="round" stroke-linejoin="round"/>
<path d="M680.86 632.7H597.84V639.5H680.86V632.7Z" fill="white" stroke="#263238" stroke-width="3.08" stroke-linecap="round" stroke-linejoin="round"/>
<path d="M639.35 632.7H597.84V639.5H639.35V632.7Z" fill="#263238" stroke="#263238" stroke-width="3.08" stroke-linecap="round" stroke-linejoin="round"/>
<path d="M521.68 521.24H422.31C413.197 521.24 405.81 528.627 405.81 537.74V637.11C405.81 646.223 413.197 653.61 422.31 653.61H521.68C530.793 653.61 538.18 646.223 538.18 637.11V537.74C538.18 528.627 530.793 521.24 521.68 521.24Z" fill="white" stroke="#263238" stroke-width="3.08" stroke-linecap="round" stroke-linejoin="round"/>
<path d="M482.425 631.805C506.954 626.052 522.175 601.503 516.422 576.973C510.669 552.443 486.12 537.222 461.59 542.976C437.06 548.729 421.839 573.278 427.593 597.808C433.346 622.337 457.895 637.558 482.425 631.805Z" fill="#263238" stroke="#263238" stroke-width="3.08" stroke-linecap="round" stroke-linejoin="round"/>
<path d="M457.61 606.1L471.99 587.42V554" stroke="white" stroke-width="3.08" stroke-linecap="round" stroke-linejoin="round"/>
<path d="M352.71 521.24H253.34C244.227 521.24 236.84 528.627 236.84 537.74V637.11C236.84 646.223 244.227 653.61 253.34 653.61H352.71C361.823 653.61 369.21 646.223 369.21 637.11V537.74C369.21 528.627 361.823 521.24 352.71 521.24Z" fill="white" stroke="#263238" stroke-width="3.08" stroke-linecap="round" stroke-linejoin="round"/>
<path d="M288.64 606.1L303.02 587.42V554" stroke="white" stroke-width="3.08" stroke-linecap="round" stroke-linejoin="round"/>
<path d="M340.08 584.43L279.97 549.72V619.14L340.08 584.43Z" fill="#263238" stroke="#263238" stroke-width="3.08" stroke-linecap="round" stroke-linejoin="round"/>
<path d="M691.62 715.71H590.31C581.578 715.71 574.5 722.788 574.5 731.52V832.83C574.5 841.562 581.578 848.64 590.31 848.64H691.62C700.352 848.64 707.43 841.562 707.43 832.83V731.52C707.43 722.788 700.352 715.71 691.62 715.71Z" fill="white" stroke="#263238" stroke-width="3.08" stroke-linecap="round" stroke-linejoin="round"/>
<path d="M639.04 742.74C615.4 742.74 596.24 758.07 596.24 776.98C596.24 789.2 604.27 799.9 616.32 805.96L609.08 824.06L631.96 810.71C634.27 811.02 636.62 811.22 639.04 811.22C662.68 811.22 681.84 795.89 681.84 776.98C681.84 758.07 662.68 742.74 639.04 742.74Z" fill="#263238" stroke="#263238" stroke-width="3.08" stroke-linecap="round" stroke-linejoin="round"/>
<path d="M691.62 910.31H590.31C581.578 910.31 574.5 917.388 574.5 926.12V1027.43C574.5 1036.16 581.578 1043.24 590.31 1043.24H691.62C700.352 1043.24 707.43 1036.16 707.43 1027.43V926.12C707.43 917.388 700.352 910.31 691.62 910.31Z" fill="#4FE89C" stroke="#263238" stroke-width="3.08" stroke-linecap="round" stroke-linejoin="round"/>
<path d="M683.83 973.84V963.77L673.67 962.07C672.82 957.86 671.17 953.95 668.89 950.48L674.93 942.01L667.81 934.89L659.36 940.92C655.92 938.65 652.04 936.99 647.86 936.13L646.13 925.8H636.06L634.33 936.13C630.19 936.99 626.35 938.62 622.93 940.86L614.3 934.7L607.18 941.82L613.32 950.43C611.09 953.82 609.46 957.63 608.59 961.73L598.08 963.49V973.56L608.52 975.31C609.35 979.42 610.97 983.24 613.17 986.65L606.98 995.32L614.1 1002.44L622.67 996.32C626.07 998.59 629.91 1000.23 634.03 1001.13L635.77 1011.53H645.84L647.56 1001.25C651.74 1000.42 655.63 998.8 659.09 996.56L667.6 1002.63L674.72 995.51L668.72 987.1C671.03 983.65 672.7 979.74 673.59 975.54L683.81 973.83L683.83 973.84ZM641.1 993.36C627.47 993.36 616.42 982.31 616.42 968.68C616.42 955.05 627.47 944 641.1 944C654.73 944 665.78 955.05 665.78 968.68C665.78 982.31 654.73 993.36 641.1 993.36Z" fill="white" stroke="#263238" stroke-width="3.08" stroke-linecap="round" stroke-linejoin="round"/>
<path d="M680.86 1021.89H597.84V1028.69H680.86V1021.89Z" fill="white" stroke="#263238" stroke-width="3.08" stroke-linecap="round" stroke-linejoin="round"/>
<path d="M611.57 1021.89H597.84V1028.69H611.57V1021.89Z" fill="#263238" stroke="#263238" stroke-width="3.08" stroke-linecap="round" stroke-linejoin="round"/>
<path d="M352.71 715.83H253.34C244.227 715.83 236.84 723.217 236.84 732.33V831.7C236.84 840.813 244.227 848.2 253.34 848.2H352.71C361.823 848.2 369.21 840.813 369.21 831.7V732.33C369.21 723.217 361.823 715.83 352.71 715.83Z" fill="#4FE89C" stroke="#263238" stroke-width="3.08" stroke-linecap="round" stroke-linejoin="round"/>
<path d="M346.85 779.25V769.18L336.69 767.48C335.84 763.27 334.19 759.36 331.91 755.89L337.95 747.42L330.83 740.3L322.38 746.33C318.94 744.06 315.06 742.4 310.88 741.54L309.15 731.21H299.08L297.35 741.54C293.21 742.4 289.37 744.03 285.95 746.27L277.32 740.11L270.2 747.23L276.35 755.84C274.12 759.23 272.49 763.04 271.62 767.14L261.11 768.9V778.97L271.55 780.72C272.38 784.83 274 788.65 276.2 792.06L270.01 800.73L277.13 807.85L285.7 801.73C289.1 804 292.94 805.64 297.06 806.54L298.8 816.94H308.87L310.59 806.66C314.77 805.83 318.66 804.21 322.12 801.97L330.63 808.04L337.75 800.92L331.75 792.51C334.06 789.06 335.73 785.15 336.62 780.95L346.84 779.24L346.85 779.25ZM304.12 798.77C290.49 798.77 279.44 787.72 279.44 774.09C279.44 760.46 290.49 749.41 304.12 749.41C317.75 749.41 328.8 760.46 328.8 774.09C328.8 787.72 317.75 798.77 304.12 798.77Z" fill="white" stroke="#263238" stroke-width="3.08" stroke-linecap="round" stroke-linejoin="round"/>
<path d="M343.88 827.29H260.86V834.09H343.88V827.29Z" fill="white" stroke="#263238" stroke-width="3.08" stroke-linecap="round" stroke-linejoin="round"/>
<path d="M335.89 827.29H260.86V834.09H335.89V827.29Z" fill="#263238" stroke="#263238" stroke-width="3.08" stroke-linecap="round" stroke-linejoin="round"/>
<path d="M352.71 910.42H253.34C244.227 910.42 236.84 917.807 236.84 926.92V1026.29C236.84 1035.4 244.227 1042.79 253.34 1042.79H352.71C361.823 1042.79 369.21 1035.4 369.21 1026.29V926.92C369.21 917.807 361.823 910.42 352.71 910.42Z" fill="white" stroke="#263238" stroke-width="3.08" stroke-linecap="round" stroke-linejoin="round"/>
<path d="M288.64 995.29L303.02 976.61V943.18" stroke="white" stroke-width="3.08" stroke-linecap="round" stroke-linejoin="round"/>
<path d="M347.63 947.98H258.41V1005.23H347.63V947.98Z" fill="#263238" stroke="#263238" stroke-width="3.08" stroke-linecap="round" stroke-linejoin="round"/>
<path d="M258.41 947.98L302.28 985.16L347 948.5" stroke="white" stroke-width="3.08" stroke-linecap="round" stroke-linejoin="round"/>
<path d="M258.41 1005.23L290.38 976.24" stroke="white" stroke-width="3.08" stroke-linecap="round" stroke-linejoin="round"/>
<path d="M347.63 1005.23L314.18 976.24" stroke="white" stroke-width="3.08" stroke-linecap="round" stroke-linejoin="round"/>
<path d="M1286.66 963.03L1321.93 1300.95" stroke="#263238" stroke-width="6.16" stroke-miterlimit="10"/>
<path d="M1316.24 1236.28L1300.26 1219.39" stroke="#263238" stroke-width="6.16" stroke-miterlimit="10"/>
<path d="M1305.11 1224.45C1305.11 1224.45 1305.57 1216.98 1298.75 1210.89C1294.65 1207.23 1273.05 1198.14 1271 1205.75C1268.77 1214.02 1290.88 1230.27 1305.11 1224.46V1224.45Z" fill="#4FE89C" stroke="#263238" stroke-width="3.08" stroke-miterlimit="10"/>
<path d="M1305.11 1224.45L1284.55 1211.64" stroke="#263238" stroke-width="1.54" stroke-miterlimit="10"/>
<path d="M1320.25 1274.71L1304.27 1257.82" stroke="#263238" stroke-width="6.16" stroke-miterlimit="10"/>
<path d="M1309.12 1262.88C1309.12 1262.88 1309.58 1255.41 1302.76 1249.32C1298.66 1245.65 1277.06 1236.57 1275.01 1244.18C1272.78 1252.45 1294.89 1268.7 1309.12 1262.88Z" fill="#4FE89C" stroke="#263238" stroke-width="3.08" stroke-miterlimit="10"/>
<path d="M1309.12 1262.88L1288.56 1250.07" stroke="#263238" stroke-width="1.54" stroke-miterlimit="10"/>
<path d="M1306.46 1142.5L1290.47 1125.61" stroke="#263238" stroke-width="6.16" stroke-miterlimit="10"/>
<path d="M1295.33 1130.67C1295.33 1130.67 1295.79 1123.2 1288.97 1117.11C1284.87 1113.45 1263.27 1104.36 1261.22 1111.97C1258.99 1120.24 1281.1 1136.49 1295.33 1130.68V1130.67Z" fill="#4FE89C" stroke="#263238" stroke-width="3.08" stroke-miterlimit="10"/>
<path d="M1295.33 1130.67L1274.77 1117.86" stroke="#263238" stroke-width="1.54" stroke-miterlimit="10"/>
<path d="M1310.47 1180.93L1294.48 1164.04" stroke="#263238" stroke-width="6.16" stroke-miterlimit="10"/>
<path d="M1299.34 1169.1C1299.34 1169.1 1299.8 1161.63 1292.98 1155.54C1288.88 1151.88 1267.28 1142.79 1265.23 1150.4C1263 1158.67 1285.11 1174.92 1299.34 1169.11V1169.1Z" fill="#4FE89C" stroke="#263238" stroke-width="3.08" stroke-miterlimit="10"/>
<path d="M1299.34 1169.1L1278.78 1156.29" stroke="#263238" stroke-width="1.54" stroke-miterlimit="10"/>
<path d="M1299.94 1080.07L1283.95 1063.18" stroke="#263238" stroke-width="6.16" stroke-miterlimit="10"/>
<path d="M1288.81 1068.24C1288.81 1068.24 1289.27 1060.77 1282.45 1054.68C1278.35 1051.02 1256.75 1041.93 1254.7 1049.54C1252.47 1057.81 1274.58 1074.06 1288.81 1068.24Z" fill="#4FE89C" stroke="#263238" stroke-width="3.08" stroke-miterlimit="10"/>
<path d="M1288.81 1068.24L1268.25 1055.43" stroke="#263238" stroke-width="1.54" stroke-miterlimit="10"/>
<path d="M1293.4 1017.37L1277.41 1000.48" stroke="#263238" stroke-width="6.16" stroke-miterlimit="10"/>
<path d="M1282.27 1005.54C1282.27 1005.54 1282.73 998.07 1275.91 991.98C1271.81 988.31 1250.21 979.23 1248.16 986.84C1245.93 995.11 1268.04 1011.36 1282.27 1005.55V1005.54Z" fill="#4FE89C" stroke="#263238" stroke-width="3.08" stroke-miterlimit="10"/>
<path d="M1282.27 1005.54L1261.71 992.73" stroke="#263238" stroke-width="1.54" stroke-miterlimit="10"/>
<path d="M1313.56 1213.54L1325.71 1193.72" stroke="#263238" stroke-width="6.16" stroke-miterlimit="10"/>
<path d="M1322 1199.67C1322 1199.67 1320.01 1192.46 1325.43 1185.09C1328.69 1180.66 1347.94 1167.31 1351.52 1174.33C1355.41 1181.96 1337.13 1202.43 1322 1199.68V1199.67Z" fill="#4FE89C" stroke="#263238" stroke-width="3.08" stroke-miterlimit="10"/>
<path d="M1322 1199.67L1340.52 1181.97" stroke="#263238" stroke-width="1.54" stroke-miterlimit="10"/>
<path d="M1303 1112.41L1315.16 1092.58" stroke="#263238" stroke-width="6.16" stroke-miterlimit="10"/>
<path d="M1311.45 1098.54C1311.45 1098.54 1309.46 1091.33 1314.88 1083.96C1318.14 1079.53 1337.39 1066.18 1340.97 1073.2C1344.86 1080.83 1326.58 1101.3 1311.45 1098.55V1098.54Z" fill="#4FE89C" stroke="#263238" stroke-width="3.08" stroke-miterlimit="10"/>
<path d="M1311.45 1098.54L1329.96 1080.84" stroke="#263238" stroke-width="1.54" stroke-miterlimit="10"/>
<path d="M1298.36 1067.96L1310.52 1048.14" stroke="#263238" stroke-width="6.16" stroke-miterlimit="10"/>
<path d="M1306.81 1054.09C1306.81 1054.09 1304.82 1046.88 1310.24 1039.51C1313.5 1035.08 1332.75 1021.73 1336.33 1028.75C1340.22 1036.38 1321.94 1056.85 1306.81 1054.1V1054.09Z" fill="#4FE89C" stroke="#263238" stroke-width="3.08" stroke-miterlimit="10"/>
<path d="M1306.81 1054.09L1325.33 1036.4" stroke="#263238" stroke-width="1.54" stroke-miterlimit="10"/>
<path d="M1291.56 1002.81L1303.72 982.99" stroke="#263238" stroke-width="6.16" stroke-miterlimit="10"/>
<path d="M1300.01 988.94C1300.01 988.94 1298.02 981.73 1303.44 974.36C1306.7 969.93 1325.95 956.58 1329.53 963.6C1333.42 971.23 1315.14 991.7 1300.01 988.95V988.94Z" fill="#4FE89C" stroke="#263238" stroke-width="3.08" stroke-miterlimit="10"/>
<path d="M1300.01 988.94L1318.53 971.24" stroke="#263238" stroke-width="1.54" stroke-miterlimit="10"/>
<path d="M1286.37 961.15C1286.37 961.15 1284.38 953.94 1289.8 946.57C1293.06 942.14 1312.31 928.79 1315.89 935.81C1319.78 943.44 1301.5 963.91 1286.37 961.16V961.15Z" fill="#4FE89C" stroke="#263238" stroke-width="3.08" stroke-miterlimit="10"/>
<path d="M1286.37 961.15L1304.88 943.46" stroke="#263238" stroke-width="1.54" stroke-miterlimit="10"/>
<path d="M1287.44 961.91C1287.44 961.91 1280.06 963.13 1273.3 956.97C1269.23 953.26 1257.98 932.72 1265.33 929.9C1273.33 926.83 1291.76 947.15 1287.44 961.91Z" fill="#4FE89C" stroke="#263238" stroke-width="3.08" stroke-miterlimit="10"/>
<path d="M1287.44 961.91L1271.78 941.65" stroke="#263238" stroke-width="1.54" stroke-miterlimit="10"/>
<path d="M1379.68 1009.57L1344.61 1347.51" stroke="#263238" stroke-width="6.16" stroke-miterlimit="10"/>
<path d="M1352.36 1283.05L1340.19 1263.24" stroke="#263238" stroke-width="6.16" stroke-miterlimit="10"/>
<path d="M1343.91 1269.19C1343.91 1269.19 1345.9 1261.97 1340.48 1254.61C1337.22 1250.18 1317.95 1236.84 1314.38 1243.86C1310.5 1251.5 1328.78 1271.95 1343.91 1269.19Z" fill="#4FE89C" stroke="#263238" stroke-width="3.08" stroke-miterlimit="10"/>
<path d="M1343.91 1269.19L1326.42 1252.42" stroke="#263238" stroke-width="1.54" stroke-miterlimit="10"/>
<path d="M1362.1 1189.27L1349.93 1169.45" stroke="#263238" stroke-width="6.16" stroke-miterlimit="10"/>
<path d="M1353.64 1175.4C1353.64 1175.4 1355.63 1168.18 1350.21 1160.82C1346.95 1156.39 1327.69 1143.05 1324.11 1150.07C1320.23 1157.71 1338.51 1178.16 1353.64 1175.4Z" fill="#4FE89C" stroke="#263238" stroke-width="3.08" stroke-miterlimit="10"/>
<path d="M1353.64 1175.4L1336.16 1158.63" stroke="#263238" stroke-width="1.54" stroke-miterlimit="10"/>
<path d="M1358.11 1227.7L1345.94 1207.88" stroke="#263238" stroke-width="6.16" stroke-miterlimit="10"/>
<path d="M1349.65 1213.84C1349.65 1213.84 1351.64 1206.62 1346.22 1199.26C1342.96 1194.83 1323.7 1181.49 1320.12 1188.51C1316.24 1196.15 1334.52 1216.6 1349.65 1213.84Z" fill="#4FE89C" stroke="#263238" stroke-width="3.08" stroke-miterlimit="10"/>
<path d="M1349.65 1213.84L1332.17 1197.06" stroke="#263238" stroke-width="1.54" stroke-miterlimit="10"/>
<path d="M1368.57 1126.83L1356.41 1107.02" stroke="#263238" stroke-width="6.16" stroke-miterlimit="10"/>
<path d="M1360.12 1112.97C1360.12 1112.97 1362.11 1105.76 1356.69 1098.39C1353.43 1093.96 1334.17 1080.62 1330.59 1087.64C1326.71 1095.28 1344.99 1115.73 1360.12 1112.97Z" fill="#4FE89C" stroke="#263238" stroke-width="3.08" stroke-miterlimit="10"/>
<path d="M1360.12 1112.97L1342.63 1096.2" stroke="#263238" stroke-width="1.54" stroke-miterlimit="10"/>
<path d="M1375.08 1064.13L1362.91 1044.31" stroke="#263238" stroke-width="6.16" stroke-miterlimit="10"/>
<path d="M1366.62 1050.26C1366.62 1050.26 1368.61 1043.04 1363.19 1035.68C1359.93 1031.25 1340.67 1017.91 1337.09 1024.93C1333.21 1032.57 1351.49 1053.02 1366.62 1050.26Z" fill="#4FE89C" stroke="#263238" stroke-width="3.08" stroke-miterlimit="10"/>
<path d="M1366.62 1050.26L1349.14 1033.49" stroke="#263238" stroke-width="1.54" stroke-miterlimit="10"/>
<path d="M1354.42 1260.25L1370.39 1243.35" stroke="#263238" stroke-width="6.16" stroke-miterlimit="10"/>
<path d="M1365.54 1248.41C1365.54 1248.41 1365.08 1240.94 1371.9 1234.84C1376 1231.17 1397.59 1222.07 1399.65 1229.68C1401.88 1237.95 1379.79 1254.21 1365.55 1248.41H1365.54Z" fill="#4FE89C" stroke="#263238" stroke-width="3.08" stroke-miterlimit="10"/>
<path d="M1365.54 1248.41L1387.3 1234.91" stroke="#263238" stroke-width="1.54" stroke-miterlimit="10"/>
<path d="M1364.91 1159.11L1380.89 1142.21" stroke="#263238" stroke-width="6.16" stroke-miterlimit="10"/>
<path d="M1376.03 1147.28C1376.03 1147.28 1375.57 1139.81 1382.39 1133.72C1386.49 1130.05 1408.08 1120.95 1410.14 1128.56C1412.37 1136.83 1390.28 1153.09 1376.04 1147.29L1376.03 1147.28Z" fill="#4FE89C" stroke="#263238" stroke-width="3.08" stroke-miterlimit="10"/>
<path d="M1376.03 1147.28L1397.79 1133.77" stroke="#263238" stroke-width="1.54" stroke-miterlimit="10"/>
<path d="M1369.52 1114.66L1385.5 1097.77" stroke="#263238" stroke-width="6.16" stroke-miterlimit="10"/>
<path d="M1380.65 1102.83C1380.65 1102.83 1380.19 1095.36 1387.01 1089.27C1391.11 1085.6 1412.7 1076.5 1414.76 1084.11C1416.99 1092.38 1394.9 1108.64 1380.66 1102.84L1380.65 1102.83Z" fill="#4FE89C" stroke="#263238" stroke-width="3.08" stroke-miterlimit="10"/>
<path d="M1380.65 1102.83L1402.41 1089.32" stroke="#263238" stroke-width="1.54" stroke-miterlimit="10"/>
<path d="M1376.28 1049.5L1392.26 1032.61" stroke="#263238" stroke-width="6.16" stroke-miterlimit="10"/>
<path d="M1387.41 1037.67C1387.41 1037.67 1386.95 1030.2 1393.76 1024.1C1397.86 1020.43 1419.45 1011.33 1421.51 1018.94C1423.74 1027.21 1401.65 1043.47 1387.41 1037.67Z" fill="#4FE89C" stroke="#263238" stroke-width="3.08" stroke-miterlimit="10"/>
<path d="M1387.41 1037.67L1409.17 1024.17" stroke="#263238" stroke-width="1.54" stroke-miterlimit="10"/>
<path d="M1379.77 1007.67C1379.77 1007.67 1379.31 1000.2 1386.13 994.1C1390.23 990.43 1411.82 981.33 1413.88 988.94C1416.11 997.21 1394.02 1013.47 1379.78 1007.67H1379.77Z" fill="#4FE89C" stroke="#263238" stroke-width="3.08" stroke-miterlimit="10"/>
<path d="M1379.77 1007.67L1401.53 994.16" stroke="#263238" stroke-width="1.54" stroke-miterlimit="10"/>
<path d="M1380.67 1008.64C1380.67 1008.64 1373.19 1008.32 1367.85 1000.9C1364.63 996.44 1357.85 974.01 1365.63 972.76C1374.09 971.41 1387.94 995.09 1380.68 1008.64H1380.67Z" fill="#4FE89C" stroke="#263238" stroke-width="3.08" stroke-miterlimit="10"/>
<path d="M1380.67 1008.64L1369.52 985.58" stroke="#263238" stroke-width="1.54" stroke-miterlimit="10"/>
<path d="M1339.49 871.95V1299.3" stroke="#263238" stroke-width="6.16" stroke-miterlimit="10"/>
<path d="M1339.83 1235.05L1325.68 1216.59" stroke="#263238" stroke-width="6.16" stroke-miterlimit="10"/>
<path d="M1329.99 1222.13C1329.99 1222.13 1331.22 1214.75 1325.07 1207.98C1321.37 1203.91 1300.83 1192.63 1298 1199.98C1294.92 1207.98 1315.22 1226.43 1329.99 1222.13Z" fill="#4FE89C" stroke="#263238" stroke-width="3.08" stroke-miterlimit="10"/>
<path d="M1329.99 1222.13L1310.87 1207.25" stroke="#263238" stroke-width="1.54" stroke-miterlimit="10"/>
<path d="M1339.83 1154.74L1325.68 1136.28" stroke="#263238" stroke-width="6.16" stroke-miterlimit="10"/>
<path d="M1329.99 1141.82C1329.99 1141.82 1331.22 1134.44 1325.07 1127.67C1321.37 1123.6 1300.83 1112.32 1298 1119.67C1294.92 1127.67 1315.22 1146.12 1329.99 1141.82Z" fill="#4FE89C" stroke="#263238" stroke-width="3.08" stroke-miterlimit="10"/>
<path d="M1329.99 1141.82L1310.87 1126.94" stroke="#263238" stroke-width="1.54" stroke-miterlimit="10"/>
<path d="M1339.83 1060.45L1325.68 1041.99" stroke="#263238" stroke-width="6.16" stroke-miterlimit="10"/>
<path d="M1329.99 1047.53C1329.99 1047.53 1331.22 1040.15 1325.07 1033.38C1321.37 1029.31 1300.83 1018.03 1298 1025.38C1294.92 1033.38 1315.22 1051.83 1329.99 1047.53Z" fill="#4FE89C" stroke="#263238" stroke-width="3.08" stroke-miterlimit="10"/>
<path d="M1329.99 1047.53L1310.87 1032.65" stroke="#263238" stroke-width="1.54" stroke-miterlimit="10"/>
<path d="M1339.83 997.68L1325.68 979.23" stroke="#263238" stroke-width="6.16" stroke-miterlimit="10"/>
<path d="M1329.99 984.76C1329.99 984.76 1331.22 977.38 1325.07 970.61C1321.37 966.54 1300.83 955.26 1298 962.61C1294.92 970.61 1315.22 989.06 1329.99 984.76Z" fill="#4FE89C" stroke="#263238" stroke-width="3.08" stroke-miterlimit="10"/>
<path d="M1329.99 984.76L1310.87 969.89" stroke="#263238" stroke-width="1.54" stroke-miterlimit="10"/>
<path d="M1339.83 934.64L1325.68 916.18" stroke="#263238" stroke-width="6.16" stroke-miterlimit="10"/>
<path d="M1329.99 921.72C1329.99 921.72 1331.22 914.34 1325.07 907.57C1321.37 903.5 1300.83 892.22 1298 899.57C1294.92 907.57 1315.22 926.02 1329.99 921.72Z" fill="#4FE89C" stroke="#263238" stroke-width="3.08" stroke-miterlimit="10"/>
<path d="M1329.99 921.72L1310.87 906.84" stroke="#263238" stroke-width="1.54" stroke-miterlimit="10"/>
<path d="M1339.52 1259.57L1353.67 1241.12" stroke="#263238" stroke-width="6.16" stroke-miterlimit="10"/>
<path d="M1349.36 1246.65C1349.36 1246.65 1348.13 1239.27 1354.28 1232.5C1357.98 1228.43 1378.52 1217.15 1381.35 1224.5C1384.43 1232.5 1364.13 1250.95 1349.36 1246.65Z" fill="#4FE89C" stroke="#263238" stroke-width="3.08" stroke-miterlimit="10"/>
<path d="M1349.36 1246.65L1369.61 1230.97" stroke="#263238" stroke-width="1.54" stroke-miterlimit="10"/>
<path d="M1339.52 1131.84L1353.67 1113.39" stroke="#263238" stroke-width="6.16" stroke-miterlimit="10"/>
<path d="M1349.36 1118.92C1349.36 1118.92 1348.13 1111.54 1354.28 1104.77C1357.98 1100.7 1378.52 1089.42 1381.35 1096.77C1384.43 1104.77 1364.13 1123.22 1349.36 1118.92Z" fill="#4FE89C" stroke="#263238" stroke-width="3.08" stroke-miterlimit="10"/>
<path d="M1349.36 1118.92L1369.61 1103.25" stroke="#263238" stroke-width="1.54" stroke-miterlimit="10"/>
<path d="M1339.52 1068.8L1353.67 1050.35" stroke="#263238" stroke-width="6.16" stroke-miterlimit="10"/>
<path d="M1349.36 1055.88C1349.36 1055.88 1348.13 1048.5 1354.28 1041.73C1357.98 1037.66 1378.52 1026.38 1381.35 1033.73C1384.43 1041.73 1364.13 1060.18 1349.36 1055.88Z" fill="#4FE89C" stroke="#263238" stroke-width="3.08" stroke-miterlimit="10"/>
<path d="M1349.36 1055.88L1369.61 1040.2" stroke="#263238" stroke-width="1.54" stroke-miterlimit="10"/>
<path d="M1339.52 985.48L1353.67 967.02" stroke="#263238" stroke-width="6.16" stroke-miterlimit="10"/>
<path d="M1349.36 972.56C1349.36 972.56 1348.13 965.18 1354.28 958.41C1357.98 954.34 1378.52 943.06 1381.35 950.41C1384.43 958.41 1364.13 976.86 1349.36 972.56Z" fill="#4FE89C" stroke="#263238" stroke-width="3.08" stroke-miterlimit="10"/>
<path d="M1349.36 972.56L1369.61 956.88" stroke="#263238" stroke-width="1.54" stroke-miterlimit="10"/>
<path d="M1339.52 919.97L1353.67 901.51" stroke="#263238" stroke-width="6.16" stroke-miterlimit="10"/>
<path d="M1349.36 907.05C1349.36 907.05 1348.13 899.67 1354.28 892.9C1357.98 888.83 1378.52 877.55 1381.35 884.9C1384.43 892.9 1364.13 911.35 1349.36 907.05Z" fill="#4FE89C" stroke="#263238" stroke-width="3.08" stroke-miterlimit="10"/>
<path d="M1349.36 907.05L1369.61 891.37" stroke="#263238" stroke-width="1.54" stroke-miterlimit="10"/>
<path d="M1338.67 877.99C1338.67 877.99 1337.44 870.61 1343.59 863.84C1347.29 859.77 1367.83 848.49 1370.66 855.84C1373.74 863.84 1353.44 882.29 1338.67 877.98V877.99Z" fill="#4FE89C" stroke="#263238" stroke-width="3.08" stroke-miterlimit="10"/>
<path d="M1338.67 877.99L1358.92 862.32" stroke="#263238" stroke-width="1.54" stroke-miterlimit="10"/>
<path d="M1339.66 878.87C1339.66 878.87 1332.19 879.32 1326.11 872.49C1322.45 868.38 1313.39 846.78 1321 844.73C1329.28 842.51 1345.5 864.63 1339.67 878.86L1339.66 878.87Z" fill="#4FE89C" stroke="#263238" stroke-width="3.08" stroke-miterlimit="10"/>
<path d="M1339.66 878.87L1326.19 857.08" stroke="#263238" stroke-width="1.54" stroke-miterlimit="10"/>
<path d="M1357.07 1410.14H1311.81L1306.16 1295.84H1362.73L1357.07 1410.14Z" fill="#263238" stroke="#263238" stroke-width="3.08" stroke-miterlimit="10"/>
<path d="M1247.72 579.75C1229.1 564.07 1232.7 539.1 1232.7 539.1C1232.7 539.1 1156.6 608.16 1152.68 630.7C1148.76 653.24 1205.59 734.56 1214.41 747.29C1215.49 748.85 1216.92 750.1 1218.61 751.06C1216.22 756.93 1214.56 763.71 1214.64 772.26C1214.88 797.24 1243.1 788.39 1254.49 780.8C1265.88 773.21 1263.03 759.93 1263.03 759.93C1263.03 759.93 1248.8 765.62 1248.8 758.98C1248.8 752.34 1262.08 741.9 1262.08 741.9L1261.75 741.67C1264.53 739.52 1267.1 737.16 1269.27 734.55C1283.97 716.91 1259.47 697.32 1254.57 686.54C1249.67 675.76 1258.49 665.96 1276.13 651.27C1293.77 636.57 1266.33 595.42 1247.72 579.75Z" fill="#263238" stroke="#263238" stroke-width="3.08" stroke-linecap="round" stroke-linejoin="round"/>
<path d="M968.61 731.45C968.61 731.45 969.34 745.41 967.87 757.17C966.4 768.93 974.48 781.79 978.53 784.73C982.57 787.67 1002.78 794.28 1002.78 794.28L1006.09 776.64L1003.15 769.29L1007.19 742.47C1007.19 742.47 1004.25 734.02 1000.58 728.14C996.91 722.26 986.99 716.02 986.25 714.91C985.52 713.81 973.39 716.38 972.29 716.38C971.19 716.38 965.68 718.58 965.68 718.58L968.62 731.44L968.61 731.45Z" fill="white" stroke="#263238" stroke-width="3.08" stroke-linecap="round" stroke-linejoin="round"/>
<path d="M962.35 713.5C962.35 713.5 956.04 714.02 955.27 716.52C954.5 719.03 957.14 733.46 958.72 734.8C960.29 736.14 964.58 734.8 964.59 728.95C964.59 723.09 964 715.81 962.35 713.5Z" fill="white" stroke="#263238" stroke-width="3.08" stroke-linecap="round" stroke-linejoin="round"/>
<path d="M969.52 711.78C969.52 711.78 962.64 711.78 961.58 714.43C960.52 717.08 962.11 732.95 963.7 734.54C965.29 736.13 970.05 735.07 970.58 728.72C971.11 722.37 971.11 714.43 969.52 711.78Z" fill="white" stroke="#263238" stroke-width="3.08" stroke-linecap="round" stroke-linejoin="round"/>
<path d="M976.85 709.11C976.85 709.11 969.09 709.11 967.9 712.09C966.71 715.07 968.5 732.97 970.29 734.76C972.08 736.55 977.45 735.36 978.05 728.2C978.65 721.04 978.65 712.09 976.86 709.11H976.85Z" fill="white" stroke="#263238" stroke-width="3.08" stroke-linecap="round" stroke-linejoin="round"/>
<path d="M983.89 709.15C983.89 709.15 976.13 709.15 974.94 712.13C973.75 715.11 975.54 733.01 977.33 734.8C979.12 736.59 984.49 735.4 985.09 728.24C985.69 721.08 985.69 712.13 983.9 709.15H983.89Z" fill="white" stroke="#263238" stroke-width="3.08" stroke-linecap="round" stroke-linejoin="round"/>
<path d="M1003.58 763.45C1003.58 763.45 1006.56 747.94 1007.16 739.58C1007.76 731.23 998.21 721.08 995.82 718.1C993.43 715.12 993.43 704.38 989.26 704.38C985.09 704.38 983.89 709.15 983.89 709.15C983.89 709.15 981.5 716.91 985.68 721.08C989.86 725.26 994.03 731.82 994.03 731.82C994.03 731.82 981.5 755.69 981.5 762.25C981.5 768.81 993.43 776.57 993.43 776.57" fill="white"/>
<path d="M1003.58 763.45C1003.58 763.45 1006.56 747.94 1007.16 739.58C1007.76 731.23 998.21 721.08 995.82 718.1C993.43 715.12 993.43 704.38 989.26 704.38C985.09 704.38 983.89 709.15 983.89 709.15C983.89 709.15 981.5 716.91 985.68 721.08C989.86 725.26 994.03 731.82 994.03 731.82C994.03 731.82 981.5 755.69 981.5 762.25C981.5 768.81 993.43 776.57 993.43 776.57" stroke="#263238" stroke-width="3.08" stroke-linecap="round" stroke-linejoin="round"/>
<path d="M1005.35 775.17L1002.04 803.83L1080.67 829.55L1079.93 786.56L1005.35 775.17Z" fill="#4FE89C" stroke="#263238" stroke-width="3.08" stroke-linecap="round" stroke-linejoin="round"/>
<path d="M1135.04 639.96C1135.04 639.96 1091.24 653.07 1088.3 666.79C1085.36 680.51 1076.25 722.26 1076.25 722.26C1076.25 722.26 1065.47 750.67 1066.45 765.37C1067.43 780.07 1076.25 809.46 1071.35 829.06C1066.45 848.66 1049.79 907.44 1045.88 927.04C1041.96 946.64 1040 958.39 1040 958.39L1055.68 961.33L1077.24 964.27C1077.24 964.27 1086.06 905.48 1092.92 854.54C1099.78 803.59 1082.14 768.32 1098.8 735.01C1115.46 701.7 1155.63 668.39 1152.69 654.67C1149.75 640.95 1135.05 639.97 1135.05 639.97L1135.04 639.96Z" fill="#4FE89C" stroke="#263238" stroke-width="3.08" stroke-linecap="round" stroke-linejoin="round"/>
<path d="M1055.68 923.12C1055.68 923.12 1049.8 994.64 1061.56 1047.55C1073.32 1100.46 1087.03 1136.71 1087.03 1136.71C1087.03 1136.71 1100.75 1222.93 1110.54 1253.3C1120.34 1283.67 1123.28 1313.07 1121.32 1336.58C1119.36 1360.09 1102.7 1390.47 1094.87 1396.35C1087.03 1402.23 1071.36 1415.95 1090.95 1420.84C1110.55 1425.74 1135.87 1414.48 1147.78 1413.98C1171.29 1413 1174.23 1397.32 1174.23 1382.63C1174.23 1367.94 1160.51 1317.96 1164.43 1292.49C1168.35 1267.02 1169.33 1182.75 1165.41 1160.22C1161.49 1137.69 1159.53 1117.11 1159.53 1117.11L1156.59 933.89L1059.59 920.17L1055.67 923.11L1055.68 923.12Z" fill="#263238" stroke="#263238" stroke-width="3.08" stroke-linecap="round" stroke-linejoin="round"/>
<path d="M1163.84 1307.85C1141.22 1317.66 1128.52 1315.86 1121.55 1311.82C1122.02 1320.57 1121.97 1328.92 1121.33 1336.59C1119.37 1360.1 1102.71 1390.48 1094.88 1396.36C1087.04 1402.24 1071.37 1415.96 1090.96 1420.85C1110.56 1425.75 1135.88 1414.49 1147.79 1413.99C1171.3 1413.01 1174.24 1397.33 1174.24 1382.64C1174.24 1370.52 1164.92 1334.43 1163.85 1307.85H1163.84Z" fill="white" stroke="#263238" stroke-width="3.08" stroke-linecap="round" stroke-linejoin="round"/>
<path d="M1174.14 1380.34C1174.13 1380.18 1174.12 1380.03 1174.11 1379.86C1174.05 1379.04 1173.96 1378.16 1173.85 1377.22C1173.83 1377.02 1173.8 1376.82 1173.78 1376.62C1173.67 1375.71 1173.54 1374.75 1173.4 1373.74C1173.38 1373.63 1173.37 1373.53 1173.36 1373.42C1173.21 1372.36 1173.03 1371.23 1172.85 1370.08C1172.79 1369.73 1172.74 1369.38 1172.68 1369.02C1172.51 1367.95 1172.32 1366.85 1172.13 1365.72C1172.03 1365.11 1171.92 1364.49 1171.81 1363.87C1171.79 1363.74 1171.76 1363.6 1171.74 1363.47C1170.37 1364.84 1168.93 1366.29 1167.39 1367.93C1151.71 1384.59 1130.16 1403.2 1107.62 1403.2C1096.88 1403.2 1094.16 1400.09 1094.24 1396.83C1086.24 1402.94 1071.88 1416.07 1090.96 1420.84C1110.56 1425.74 1135.88 1414.48 1147.79 1413.98C1171.3 1413 1174.24 1397.32 1174.24 1382.63C1174.24 1381.95 1174.2 1381.16 1174.15 1380.34H1174.14Z" fill="#4FE89C" stroke="#263238" stroke-width="3.08" stroke-linecap="round" stroke-linejoin="round"/>
<path d="M1154.64 1400.27C1136.02 1414.97 1116.43 1416.93 1099.77 1416.93C1086.9 1416.93 1083.4 1411.68 1082.47 1409.28C1080.22 1413.94 1081.37 1418.45 1090.95 1420.85C1110.55 1425.75 1135.87 1414.49 1147.78 1413.99C1169.93 1413.07 1173.82 1399.1 1174.2 1385.2C1169.49 1388.72 1162.95 1393.71 1154.64 1400.27Z" fill="white" stroke="#263238" stroke-width="3.08" stroke-linecap="round" stroke-linejoin="round"/>
<path d="M1118.39 1031.87C1118.39 1031.87 1128.19 1156.3 1136.03 1189.61C1143.87 1222.92 1160.52 1338.54 1160.52 1354.21C1160.52 1369.88 1149.74 1392.42 1143.86 1402.22C1137.98 1412.02 1122.3 1413.98 1122.3 1422.8C1122.3 1431.62 1153.65 1431.62 1159.53 1432.6C1165.41 1433.58 1205.58 1422.8 1206.56 1417.9C1207.54 1413 1207.54 1392.43 1207.54 1392.43C1207.54 1392.43 1208.52 1382.63 1207.54 1375.77C1206.56 1368.91 1194.8 1348.34 1194.8 1348.34C1194.8 1348.34 1205.58 1252.32 1208.52 1236.65C1211.46 1220.97 1210.48 1188.64 1209.5 1173.94C1208.52 1159.24 1199.7 1129.85 1199.7 1129.85L1219.3 974.07L1217.34 924.1C1217.34 924.1 1189.91 927.04 1159.53 927.04H1107.6L1109.56 964.27" fill="#263238"/>
<path d="M1118.39 1031.87C1118.39 1031.87 1128.19 1156.3 1136.03 1189.61C1143.87 1222.92 1160.52 1338.54 1160.52 1354.21C1160.52 1369.88 1149.74 1392.42 1143.86 1402.22C1137.98 1412.02 1122.3 1413.98 1122.3 1422.8C1122.3 1431.62 1153.65 1431.62 1159.53 1432.6C1165.41 1433.58 1205.58 1422.8 1206.56 1417.9C1207.54 1413 1207.54 1392.43 1207.54 1392.43C1207.54 1392.43 1208.52 1382.63 1207.54 1375.77C1206.56 1368.91 1194.8 1348.34 1194.8 1348.34C1194.8 1348.34 1205.58 1252.32 1208.52 1236.65C1211.46 1220.97 1210.48 1188.64 1209.5 1173.94C1208.52 1159.24 1199.7 1129.85 1199.7 1129.85L1219.3 974.07L1217.34 924.1C1217.34 924.1 1189.91 927.04 1159.53 927.04H1107.6L1109.56 964.27" stroke="#263238" stroke-width="3.08" stroke-linecap="round" stroke-linejoin="round"/>
<path d="M1206.57 1417.91C1207.55 1413.01 1207.55 1392.44 1207.55 1392.44C1207.55 1392.44 1208.53 1382.64 1207.55 1375.78C1206.57 1368.92 1194.81 1348.35 1194.81 1348.35C1194.81 1348.35 1196.42 1334.04 1198.56 1315.58C1179.53 1323.14 1163.26 1316.62 1156 1312.65C1158.71 1333.01 1160.52 1349.06 1160.52 1354.23C1160.52 1369.91 1149.74 1392.44 1143.86 1402.24C1137.98 1412.04 1122.3 1414 1122.3 1422.82C1122.3 1431.64 1153.65 1431.64 1159.53 1432.62C1165.41 1433.6 1205.58 1422.82 1206.56 1417.92L1206.57 1417.91Z" fill="white" stroke="#263238" stroke-width="3.08" stroke-linecap="round" stroke-linejoin="round"/>
<path d="M1206.57 1417.91C1207.55 1413.01 1207.55 1392.44 1207.55 1392.44C1207.55 1392.44 1208.53 1382.64 1207.55 1375.78C1206.98 1371.82 1202.83 1363.3 1199.42 1356.8C1199.19 1357.26 1198.97 1357.67 1198.73 1358.15C1192.85 1369.91 1167.68 1400.52 1155.92 1407.37C1144.16 1414.23 1140.92 1406.15 1140.92 1406.15H1140.62C1133.61 1412.76 1123 1415.34 1122.31 1422.81C1121.02 1436.79 1159.37 1435.87 1164.95 1434.04C1170.61 1432.19 1205.6 1422.81 1206.57 1417.91Z" fill="#4FE89C" stroke="#263238" stroke-width="3.08" stroke-linecap="round" stroke-linejoin="round"/>
<path d="M1206.57 1417.91C1207.2 1414.75 1207.43 1405.06 1207.51 1398.59C1180.38 1419.86 1152.24 1423.88 1140.24 1424.63C1128.93 1425.34 1124.32 1420.33 1123.52 1419.32C1122.87 1420.37 1122.44 1421.51 1122.32 1422.81C1121.03 1436.79 1159.38 1435.87 1164.96 1434.04C1170.62 1432.19 1205.61 1422.81 1206.58 1417.91H1206.57Z" fill="white" stroke="#263238" stroke-width="3.08" stroke-linecap="round" stroke-linejoin="round"/>
<path d="M1129.17 644.86C1129.17 644.86 1090.96 719.32 1082.14 739.9C1073.32 760.48 1077.24 793.79 1077.24 805.55C1077.24 817.31 1055.68 923.12 1055.68 923.12C1055.68 923.12 1075.28 943.7 1127.2 941.74C1179.13 939.78 1210.48 927.04 1210.48 927.04C1210.48 927.04 1198.72 830.04 1198.72 809.47C1198.72 788.9 1224.19 700.71 1221.26 677.2C1218.32 653.69 1183.05 655.64 1174.23 653.69C1165.41 651.73 1129.16 644.87 1129.16 644.87L1129.17 644.86Z" fill="white" stroke="#263238" stroke-width="3.08" stroke-linecap="round" stroke-linejoin="round"/>
<path d="M1085.32 505.86C1085.32 505.86 1074.35 543.47 1078.27 548.17C1082.19 552.87 1086.1 563.84 1086.1 563.84C1086.1 563.84 1074.35 586.56 1077.48 589.69C1080.61 592.82 1087.67 595.17 1087.67 595.17C1087.67 595.17 1094.72 628.86 1100.99 630.43C1107.26 632 1144.08 621.81 1144.08 621.81C1144.08 621.81 1166.02 602.22 1157.4 566.97C1148.78 531.71 1114.31 506.64 1108.04 503.51C1101.77 500.38 1085.32 505.86 1085.32 505.86Z" fill="white" stroke="#263238" stroke-width="3.08" stroke-linecap="round" stroke-linejoin="round"/>
<path d="M1104.91 562.26V570.88C1104.91 570.88 1114.62 571.48 1119.32 568.34" stroke="#263238" stroke-width="3.08" stroke-linecap="round" stroke-linejoin="round"/>
<path d="M1101.63 558.29C1101.63 558.29 1109.95 553.44 1118.62 558.64" stroke="#263238" stroke-width="3.08" stroke-linecap="round" stroke-linejoin="round"/>
<path d="M1092.96 558.29C1092.96 558.29 1096.43 551.01 1109.95 551.01C1123.47 551.01 1131.1 555.17 1132.14 557.6C1133.18 560.03 1131.79 561.76 1131.79 561.76C1131.79 561.76 1131.79 575.98 1127.98 579.79C1124.17 583.6 1110.3 587.42 1103.36 584.3C1096.42 581.18 1092.61 567.66 1092.61 564.53C1092.61 561.4 1092.96 558.29 1092.96 558.29Z" stroke="#263238" stroke-width="3.08" stroke-linecap="round" stroke-linejoin="round"/>
<path d="M1132.14 557.6H1137.69" stroke="#263238" stroke-width="3.08" stroke-linecap="round" stroke-linejoin="round"/>
<path d="M1092.96 558.29C1092.96 558.29 1087.07 553.44 1084.64 559.33" stroke="#263238" stroke-width="3.08" stroke-linecap="round" stroke-linejoin="round"/>
<path d="M1082.21 558.29C1082.21 558.29 1077.36 556.9 1071.46 556.9C1065.56 556.9 1063.83 559.33 1064.18 560.37C1064.53 561.41 1066.26 566.61 1066.26 570.43C1066.26 574.25 1066.61 580.14 1070.07 581.87C1073.53 583.6 1077.7 583.95 1077.7 583.95" stroke="#263238" stroke-width="3.08" stroke-linecap="round" stroke-linejoin="round"/>
<path d="M1161.5 650.74C1161.5 650.74 1135.05 717.36 1128.19 754.6C1121.33 791.83 1124.27 984.85 1124.27 984.85C1124.27 984.85 1147.78 997.59 1181.1 995.63C1214.41 993.67 1248.7 972.12 1248.7 972.12C1248.7 972.12 1240.86 915.29 1228.12 875.12C1215.38 834.95 1210.48 816.33 1210.48 816.33C1210.48 816.33 1235.95 686.02 1233.99 672.3C1232.03 658.58 1161.49 650.74 1161.49 650.74H1161.5Z" fill="#4FE89C" stroke="#263238" stroke-width="3.08" stroke-linecap="round" stroke-linejoin="round"/>
<path d="M1111.17 469.03C1111.17 469.03 1072.78 480 1072.78 486.27C1072.78 492.54 1071.21 501.16 1097.07 519.18C1122.92 537.2 1141.73 553.65 1143.29 575.59C1144.86 597.53 1122.92 655.5 1118.22 674.31C1113.52 693.11 1115.87 720.53 1130.76 724.45C1145.65 728.37 1140.94 726.02 1139.38 717.4C1137.81 708.78 1146.43 672.74 1172.29 660.99C1198.14 649.24 1226.16 630.41 1231.83 595.18C1237.75 558.41 1235.37 505.23 1197.36 476.09C1158.9 446.61 1111.18 469.04 1111.18 469.04L1111.17 469.03Z" fill="#263238" stroke="#263238" stroke-width="3.08" stroke-linecap="round" stroke-linejoin="round"/>
<path d="M1182.07 723.24L1172.27 813.38L1166.39 815.34V820.24L1160.51 823.18L1157.57 827.1L1021.38 814.36C1021.38 814.36 990.03 810.44 984.15 810.44C978.27 810.44 955.74 807.5 955.74 807.5C955.74 807.5 958.68 816.32 963.58 817.3C968.48 818.28 993.95 827.1 993.95 827.1C993.95 827.1 1010.61 835.92 1021.38 835.92C1032.15 835.92 1048.81 836.9 1048.81 836.9C1048.81 836.9 1120.33 856.5 1142.87 860.41C1165.41 864.33 1184.02 873.15 1191.86 870.21C1199.7 867.27 1209.5 859.43 1212.44 848.65C1215.38 837.87 1228.12 771.25 1228.12 771.25C1228.12 771.25 1243.8 703.65 1243.8 686.99C1243.8 670.33 1221.27 661.52 1200.69 672.29" fill="#4FE89C"/>
<path d="M1182.07 723.24L1172.27 813.38L1166.39 815.34V820.24L1160.51 823.18L1157.57 827.1L1021.38 814.36C1021.38 814.36 990.03 810.44 984.15 810.44C978.27 810.44 955.74 807.5 955.74 807.5C955.74 807.5 958.68 816.32 963.58 817.3C968.48 818.28 993.95 827.1 993.95 827.1C993.95 827.1 1010.61 835.92 1021.38 835.92C1032.15 835.92 1048.81 836.9 1048.81 836.9C1048.81 836.9 1120.33 856.5 1142.87 860.41C1165.41 864.33 1184.02 873.15 1191.86 870.21C1199.7 867.27 1209.5 859.43 1212.44 848.65C1215.38 837.87 1228.12 771.25 1228.12 771.25C1228.12 771.25 1243.8 703.65 1243.8 686.99C1243.8 670.33 1221.27 661.52 1200.69 672.29" stroke="#263238" stroke-width="3.08" stroke-linecap="round" stroke-linejoin="round"/>
<path d="M1160.72 864.49L1150.28 826.42L1021.39 814.37C1021.39 814.37 990.04 810.45 984.16 810.45C978.28 810.45 955.75 807.51 955.75 807.51C955.75 807.51 958.69 816.33 963.59 817.31C968.49 818.29 993.96 827.11 993.96 827.11C993.96 827.11 1010.62 835.93 1021.39 835.93C1032.16 835.93 1048.82 836.91 1048.82 836.91C1048.82 836.91 1120.34 856.51 1142.88 860.42C1149.19 861.52 1155.17 863 1160.72 864.5V864.49Z" fill="white" stroke="#263238" stroke-width="3.08" stroke-linecap="round" stroke-linejoin="round"/>
<path d="M1175.1 852.97L1178.15 857.47" stroke="#263238" stroke-width="3.08" stroke-linecap="round" stroke-linejoin="round"/>
<path d="M1157.58 827.1L1171.37 847.46" stroke="#263238" stroke-width="3.08" stroke-linecap="round" stroke-linejoin="round"/>
<path d="M1166.4 820.24L1185.99 833.96" stroke="#263238" stroke-width="3.08" stroke-linecap="round" stroke-linejoin="round"/>
<path d="M961.72 808.95C961.72 808.95 963.08 813.94 968.06 814.39C973.05 814.84 987.55 823 988.91 823" stroke="#263238" stroke-width="3.08" stroke-linecap="round" stroke-linejoin="round"/>
<path d="M978.04 810.31C978.04 810.31 982.57 814.39 986.65 815.3C990.73 816.21 1003.87 822.1 1003.87 822.1" stroke="#263238" stroke-width="3.08" stroke-linecap="round" stroke-linejoin="round"/>
<path d="M1046.93 818.47C1046.93 818.47 1026.67 811.62 1025.02 812.1C1023.36 812.58 1017.47 812.58 1010.67 811.67C1003.87 810.76 999.79 818.47 1005.23 820.73C1010.67 823 1015.2 822.09 1017.01 822.09C1018.82 822.09 1024.26 823.9 1025.62 823.9" fill="white"/>
<path d="M1046.93 818.47C1046.93 818.47 1026.67 811.62 1025.02 812.1C1023.36 812.58 1017.47 812.58 1010.67 811.67C1003.87 810.76 999.79 818.47 1005.23 820.73C1010.67 823 1015.2 822.09 1017.01 822.09C1018.82 822.09 1024.26 823.9 1025.62 823.9" stroke="#263238" stroke-width="3.08" stroke-linecap="round" stroke-linejoin="round"/>
<path d="M887.82 797.46L1078.76 818.94L1078.16 812.38L886.63 792.09L887.82 797.46Z" fill="white" stroke="#263238" stroke-width="3.08" stroke-linecap="round" stroke-linejoin="round"/>
<path d="M886.63 792.09L849.04 693.04L956.44 701.99L991.65 804.02L886.63 792.09Z" fill="white" stroke="#263238" stroke-width="3.08" stroke-linecap="round" stroke-linejoin="round"/>
<path d="M991.65 804.02V809.14L1078.76 818.94L1078.16 812.38L991.55 803.2L991.65 804.02Z" fill="#263238" stroke="#263238" stroke-width="3.08" stroke-linecap="round" stroke-linejoin="round"/>
</svg>
