<svg width="1495" height="1512" viewBox="0 0 1495 1512" fill="none" xmlns="http://www.w3.org/2000/svg">
<path d="M1349.35 372.34C1344.83 364.68 1340.09 357.16 1335.13 349.8C1269.02 251.86 1155.27 184.86 1043.37 154.58C994.37 141.32 943.76 134.36 893.05 132.65C560.5 121.38 428.04 383.47 318.13 451.11C208.22 518.75 39.13 634.29 50.4 876.66C61.67 1119.03 236.4 1347.3 574.59 1361.4C912.78 1375.49 935.32 1223.31 1124.14 1166.94C1249.1 1129.64 1337.88 1003.65 1381.36 887.22C1440.61 728.55 1437.82 522.44 1349.35 372.35V372.34Z" fill="#4FE89C"/>
<path opacity="0.7" d="M1349.35 372.34C1344.83 364.68 1340.09 357.16 1335.13 349.8C1269.02 251.86 1155.27 184.86 1043.37 154.58C994.37 141.32 943.76 134.36 893.05 132.65C560.5 121.38 428.04 383.47 318.13 451.11C208.22 518.75 39.13 634.29 50.4 876.66C61.67 1119.03 236.4 1347.3 574.59 1361.4C912.78 1375.49 935.32 1223.31 1124.14 1166.94C1249.1 1129.64 1337.88 1003.65 1381.36 887.22C1440.61 728.55 1437.82 522.44 1349.35 372.35V372.34Z" fill="white"/>
<path d="M990.79 1409.64H1351.12" stroke="#263238" stroke-width="2.85" stroke-linecap="round" stroke-linejoin="round"/>
<path d="M105.83 1409.64H972.12" stroke="#263238" stroke-width="2.85" stroke-linecap="round" stroke-linejoin="round"/>
<path d="M228.02 1040.48C228.02 1040.48 220.83 1060.25 205.56 1062.94C190.29 1065.64 163.33 1035.99 180.4 1020.71C197.47 1005.44 220.83 1029.7 228.02 1040.48Z" fill="#4FE89C" stroke="#263238" stroke-width="2.85" stroke-linecap="round" stroke-linejoin="round"/>
<path d="M251.38 943.44C251.38 943.44 228.92 998.25 237.9 1025.2C246.88 1052.15 302.59 1071.92 318.76 1036.88C334.93 1001.84 298.99 952.42 285.52 941.64C272.04 930.86 255.87 934.45 251.38 943.44Z" fill="#4FE89C" stroke="#263238" stroke-width="2.85" stroke-linecap="round" stroke-linejoin="round"/>
<path d="M382.56 966.8C382.56 966.8 343.92 1001.84 339.43 1036.88C334.94 1071.92 360.99 1084.5 387.95 1080.01C414.9 1075.52 428.38 1007.23 420.3 975.78C412.21 944.33 382.56 966.8 382.56 966.8Z" fill="#4FE89C" stroke="#263238" stroke-width="2.85" stroke-linecap="round" stroke-linejoin="round"/>
<path d="M389.75 1160.88C389.75 1160.88 346.62 1162.68 344.83 1183.34C343.03 1204.01 363.7 1208.5 384.36 1190.53C405.03 1172.56 407.72 1161.78 389.75 1160.88Z" fill="#4FE89C" stroke="#263238" stroke-width="2.85" stroke-linecap="round" stroke-linejoin="round"/>
<path d="M282.83 1204.01C282.83 1204.01 278.34 1225.57 262.17 1233.66C246 1241.75 217.24 1224.68 232.52 1198.62C247.79 1172.56 274.75 1193.23 282.84 1204.01H282.83Z" fill="#4FE89C" stroke="#263238" stroke-width="2.85" stroke-linecap="round" stroke-linejoin="round"/>
<path d="M245.09 1136.62C245.09 1136.62 237 1118.65 205.56 1130.33C174.11 1142.01 161.53 1159.98 181.3 1166.27C201.07 1172.56 245.09 1136.62 245.09 1136.62Z" fill="#4FE89C" stroke="#263238" stroke-width="2.85" stroke-linecap="round" stroke-linejoin="round"/>
<path d="M334.94 920.98C334.94 920.98 340.33 933.56 351.11 930.86C361.89 928.16 364.59 911.99 381.66 916.48C398.73 920.97 413.11 940.74 413.11 931.75C413.11 922.76 391.55 899.4 367.29 899.4C343.03 899.4 335.84 909.28 334.94 920.96V920.98Z" fill="#4FE89C" stroke="#263238" stroke-width="2.85" stroke-linecap="round" stroke-linejoin="round"/>
<path d="M290.49 1056.69C290.49 1056.69 309.29 1111.74 313.31 1158.73C317.34 1205.72 313.31 1280.9 313.31 1280.9" stroke="#263238" stroke-width="2.85" stroke-linecap="round" stroke-linejoin="round"/>
<path d="M356.28 1075.49C356.28 1075.49 334.8 1138.59 329.43 1178.87C324.06 1219.15 322.72 1280.91 322.72 1280.91" stroke="#263238" stroke-width="2.85" stroke-linecap="round" stroke-linejoin="round"/>
<path d="M345.54 1188.26C345.54 1188.26 336.14 1190.95 330.77 1282.24" stroke="#263238" stroke-width="2.85" stroke-linecap="round" stroke-linejoin="round"/>
<path d="M282.83 1204.01C282.83 1204.01 291.84 1196.32 297.21 1213.78C302.58 1231.23 299.9 1279.57 299.9 1279.57" stroke="#263238" stroke-width="2.85" stroke-linecap="round" stroke-linejoin="round"/>
<path d="M306.06 1195.36C313.08 1234.72 306.6 1278.22 306.6 1278.22" stroke="#263238" stroke-width="2.85" stroke-linecap="round" stroke-linejoin="round"/>
<path d="M245.09 1136.62C245.09 1136.62 283.78 1129.19 299.89 1172.16C301.47 1176.38 302.81 1180.78 303.93 1185.31" stroke="#263238" stroke-width="2.85" stroke-linecap="round" stroke-linejoin="round"/>
<path d="M406.55 1095C406.55 1095 414.64 1077.03 446.08 1088.71C477.53 1100.39 490.11 1118.36 470.34 1124.65C450.57 1130.94 406.55 1095 406.55 1095Z" fill="#4FE89C" stroke="#263238" stroke-width="2.85" stroke-linecap="round" stroke-linejoin="round"/>
<path d="M372.16 1102.87C364.38 1108.19 356.91 1116.78 351.75 1130.54C335.64 1173.5 337.48 1279.57 337.48 1279.57" stroke="#263238" stroke-width="2.85" stroke-linecap="round" stroke-linejoin="round"/>
<path d="M406.55 1095C406.55 1095 393.73 1092.54 379.77 1098.65" stroke="#263238" stroke-width="2.85" stroke-linecap="round" stroke-linejoin="round"/>
<path d="M270.39 1067.89C278.78 1077.74 286.92 1091.07 293.18 1109.05C314.66 1170.81 322.72 1250.02 318.69 1279.56" stroke="#263238" stroke-width="2.85" stroke-linecap="round" stroke-linejoin="round"/>
<path d="M228.02 1040.48C228.02 1040.48 246.75 1043.4 265.72 1062.77" stroke="#263238" stroke-width="2.85" stroke-linecap="round" stroke-linejoin="round"/>
<path d="M324.95 1125.69C323.64 1203.63 322.72 1280.91 322.72 1280.91" stroke="#263238" stroke-width="2.85" stroke-linecap="round" stroke-linejoin="round"/>
<path d="M334.94 920.98C334.94 920.98 330.77 917.06 328.08 986.88C327.04 1014.01 325.99 1064.45 325.11 1115.99" stroke="#263238" stroke-width="2.85" stroke-linecap="round" stroke-linejoin="round"/>
<path d="M365.72 1417.85H278.36C272.37 1417.85 267.36 1413.3 266.78 1407.34L254.24 1278.22H389.84L377.3 1407.34C376.72 1413.3 371.71 1417.85 365.72 1417.85Z" fill="#263238" stroke="#263238" stroke-width="2.85" stroke-linecap="round" stroke-linejoin="round"/>
<path d="M258.28 1319.84L259.72 1334.61H384.37L385.8 1319.84H258.28Z" fill="white" stroke="#263238" stroke-width="2.85" stroke-linecap="round" stroke-linejoin="round"/>
<path d="M381.24 1366.83L382.02 1358.77H262.06L262.85 1366.83H381.24Z" fill="white" stroke="#263238" stroke-width="2.85" stroke-linecap="round" stroke-linejoin="round"/>
<path d="M867.59 1016.47H837.04V1079.41H867.59V1016.47Z" fill="#4FE89C" stroke="#263238" stroke-width="2.85" stroke-linecap="round" stroke-linejoin="round"/>
<path d="M909.4 1002.98H878.85V1079.4H909.4V1002.98Z" stroke="black" stroke-width="2.85" stroke-linecap="round" stroke-linejoin="round"/>
<path d="M951.22 968.51H920.67V1079.4H951.22V968.51Z" fill="#4FE89C" stroke="#263238" stroke-width="2.85" stroke-linecap="round" stroke-linejoin="round"/>
<path d="M993.03 947.54H962.48V1079.41H993.03V947.54Z" stroke="black" stroke-width="2.85" stroke-linecap="round" stroke-linejoin="round"/>
<path d="M836.4 901.41H926.95" stroke="#263238" stroke-width="2.85" stroke-linecap="round" stroke-linejoin="round"/>
<path d="M836.4 921.28H926.95" stroke="#263238" stroke-width="2.85" stroke-linecap="round" stroke-linejoin="round"/>
<path d="M836.4 941.16H926.95" stroke="#263238" stroke-width="2.85" stroke-linecap="round" stroke-linejoin="round"/>
<path d="M515.05 962.01H645.31C648.86 962.01 651.74 964.89 651.74 968.44C651.74 971.99 648.86 974.87 645.31 974.87H515.05C511.5 974.87 508.62 971.99 508.62 968.44C508.62 964.89 511.5 962.01 515.05 962.01Z" stroke="black" stroke-width="2.85" stroke-linecap="round" stroke-linejoin="round"/>
<path d="M600.22 962.01H515.05C511.5 962.01 508.62 964.89 508.62 968.44C508.62 971.99 511.5 974.87 515.05 974.87H600.22V962.01Z" fill="#4FE89C" stroke="#263238" stroke-width="2.85" stroke-linecap="round" stroke-linejoin="round"/>
<path d="M645.31 1008.64H515.05C511.5 1008.64 508.62 1005.76 508.62 1002.21C508.62 998.66 511.5 995.78 515.05 995.78H645.31C648.86 995.78 651.74 998.66 651.74 1002.21C651.74 1005.76 648.86 1008.64 645.31 1008.64Z" stroke="black" stroke-width="2.85" stroke-linecap="round" stroke-linejoin="round"/>
<path d="M632.92 995.78H515.05C511.5 995.78 508.62 998.66 508.62 1002.21C508.62 1005.76 511.5 1008.64 515.05 1008.64H632.92V995.78Z" fill="#4FE89C" stroke="#263238" stroke-width="2.85" stroke-linecap="round" stroke-linejoin="round"/>
<path d="M645.31 1042.41H515.05C511.5 1042.41 508.62 1039.53 508.62 1035.98C508.62 1032.43 511.5 1029.55 515.05 1029.55H645.31C648.86 1029.55 651.74 1032.43 651.74 1035.98C651.74 1039.53 648.86 1042.41 645.31 1042.41Z" stroke="black" stroke-width="2.85" stroke-linecap="round" stroke-linejoin="round"/>
<path d="M542.09 1029.55H515.05C511.5 1029.55 508.62 1032.43 508.62 1035.98C508.62 1039.53 511.5 1042.41 515.05 1042.41H542.09V1029.55Z" fill="#4FE89C" stroke="#263238" stroke-width="2.85" stroke-linecap="round" stroke-linejoin="round"/>
<path d="M645.31 1076.18H515.05C511.5 1076.18 508.62 1073.3 508.62 1069.75C508.62 1066.2 511.5 1063.32 515.05 1063.32H645.31C648.86 1063.32 651.74 1066.2 651.74 1069.75C651.74 1073.3 648.86 1076.18 645.31 1076.18Z" stroke="black" stroke-width="2.85" stroke-linecap="round" stroke-linejoin="round"/>
<path d="M642.91 1063.32H515.05C511.5 1063.32 508.62 1066.2 508.62 1069.75C508.62 1073.3 511.5 1076.18 515.05 1076.18H642.91V1063.32Z" fill="#4FE89C" stroke="#263238" stroke-width="2.85" stroke-linecap="round" stroke-linejoin="round"/>
<path d="M534.72 901.41H625.27" stroke="#263238" stroke-width="2.85" stroke-linecap="round" stroke-linejoin="round"/>
<path d="M534.72 921.28H625.27" stroke="#263238" stroke-width="2.85" stroke-linecap="round" stroke-linejoin="round"/>
<path d="M534.72 941.16H625.27" stroke="#263238" stroke-width="2.85" stroke-linecap="round" stroke-linejoin="round"/>
<path d="M1154.08 357.91C1154.08 350.93 1148.42 345.27 1141.44 345.27C1134.46 345.27 1128.8 350.93 1128.8 357.91C1128.8 364.89 1134.46 370.55 1141.44 370.55C1148.42 370.55 1154.08 364.89 1154.08 357.91Z" stroke="black" stroke-width="2.85" stroke-linecap="round" stroke-linejoin="round"/>
<path d="M1196.75 357.91C1196.75 350.93 1191.09 345.27 1184.11 345.27C1177.13 345.27 1171.47 350.93 1171.47 357.91C1171.47 364.89 1177.13 370.55 1184.11 370.55C1191.09 370.55 1196.75 364.89 1196.75 357.91Z" fill="#4FE89C" stroke="#263238" stroke-width="2.85" stroke-linecap="round" stroke-linejoin="round"/>
<path d="M1154.08 397.42C1154.08 390.44 1148.42 384.78 1141.44 384.78C1134.46 384.78 1128.8 390.44 1128.8 397.42C1128.8 404.4 1134.46 410.06 1141.44 410.06C1148.42 410.06 1154.08 404.4 1154.08 397.42Z" stroke="black" stroke-width="2.85" stroke-linecap="round" stroke-linejoin="round"/>
<path d="M1196.75 397.42C1196.75 390.44 1191.09 384.78 1184.11 384.78C1177.13 384.78 1171.47 390.44 1171.47 397.42C1171.47 404.4 1177.13 410.06 1184.11 410.06C1191.09 410.06 1196.75 404.4 1196.75 397.42Z" stroke="black" stroke-width="2.85" stroke-linecap="round" stroke-linejoin="round"/>
<path d="M1154.08 436.94C1154.08 429.96 1148.42 424.3 1141.44 424.3C1134.46 424.3 1128.8 429.96 1128.8 436.94C1128.8 443.92 1134.46 449.58 1141.44 449.58C1148.42 449.58 1154.08 443.92 1154.08 436.94Z" fill="#263238" stroke="#263238" stroke-width="2.85" stroke-linecap="round" stroke-linejoin="round"/>
<path d="M1196.75 436.94C1196.75 429.96 1191.09 424.3 1184.11 424.3C1177.13 424.3 1171.47 429.96 1171.47 436.94C1171.47 443.92 1177.13 449.58 1184.11 449.58C1191.09 449.58 1196.75 443.92 1196.75 436.94Z" stroke="black" stroke-width="2.85" stroke-linecap="round" stroke-linejoin="round"/>
<path d="M724.08 982.99C731.061 982.99 736.72 977.331 736.72 970.35C736.72 963.369 731.061 957.71 724.08 957.71C717.099 957.71 711.44 963.369 711.44 970.35C711.44 977.331 717.099 982.99 724.08 982.99Z" stroke="black" stroke-width="2.85" stroke-linecap="round" stroke-linejoin="round"/>
<path d="M766.75 982.99C773.731 982.99 779.39 977.331 779.39 970.35C779.39 963.369 773.731 957.71 766.75 957.71C759.769 957.71 754.11 963.369 754.11 970.35C754.11 977.331 759.769 982.99 766.75 982.99Z" stroke="black" stroke-width="2.85" stroke-linecap="round" stroke-linejoin="round"/>
<path d="M724.08 1022.5C731.061 1022.5 736.72 1016.84 736.72 1009.86C736.72 1002.88 731.061 997.22 724.08 997.22C717.099 997.22 711.44 1002.88 711.44 1009.86C711.44 1016.84 717.099 1022.5 724.08 1022.5Z" fill="#4FE89C" stroke="#263238" stroke-width="2.85" stroke-linecap="round" stroke-linejoin="round"/>
<path d="M766.75 1022.5C773.731 1022.5 779.39 1016.84 779.39 1009.86C779.39 1002.88 773.731 997.22 766.75 997.22C759.769 997.22 754.11 1002.88 754.11 1009.86C754.11 1016.84 759.769 1022.5 766.75 1022.5Z" fill="#4FE89C" stroke="#263238" stroke-width="2.85" stroke-linecap="round" stroke-linejoin="round"/>
<path d="M736.72 1049.37C736.72 1042.39 731.06 1036.73 724.08 1036.73C717.1 1036.73 711.44 1042.39 711.44 1049.37C711.44 1056.35 717.1 1062.01 724.08 1062.01C731.06 1062.01 736.72 1056.35 736.72 1049.37Z" stroke="black" stroke-width="2.85" stroke-linecap="round" stroke-linejoin="round"/>
<path d="M779.4 1049.37C779.4 1042.39 773.74 1036.73 766.76 1036.73C759.78 1036.73 754.12 1042.39 754.12 1049.37C754.12 1056.35 759.78 1062.01 766.76 1062.01C773.74 1062.01 779.4 1056.35 779.4 1049.37Z" fill="#263238" stroke="#263238" stroke-width="2.85" stroke-linecap="round" stroke-linejoin="round"/>
<g opacity="0.3">
<path d="M438.09 344.06V314.25L408.32 310.94C406.69 304.64 404.2 298.7 401.02 293.2L419.82 269.69L398.74 248.61L375.34 267.33C369.87 264.11 363.93 261.6 357.65 259.92L354.32 230.02H324.51L321.2 259.79C314.9 261.42 308.96 263.91 303.46 267.09L279.95 248.29L258.87 269.37L277.59 292.77C274.37 298.24 271.86 304.18 270.18 310.46L240.28 313.79V343.6L270.05 346.91C271.68 353.21 274.17 359.15 277.35 364.65L258.55 388.16L279.63 409.24L303.03 390.52C308.5 393.74 314.44 396.25 320.72 397.93L324.05 427.83H353.86L357.17 398.06C363.47 396.43 369.41 393.94 374.91 390.76L398.42 409.56L419.5 388.48L400.78 365.08C404 359.61 406.51 353.67 408.19 347.39L438.09 344.06ZM339.19 364.49C319.54 364.49 303.62 348.56 303.62 328.92C303.62 309.28 319.55 293.35 339.19 293.35C358.83 293.35 374.76 309.28 374.76 328.92C374.76 348.56 358.83 364.49 339.19 364.49Z" stroke="black" stroke-width="2.85" stroke-linecap="round" stroke-linejoin="round"/>
<path d="M555.22 284.23L551.92 264.5L531.85 265.61C530.07 261.62 527.77 257.96 525.05 254.67L534.89 237.02L518.6 225.4L505.18 240.39C501.2 238.86 496.99 237.86 492.65 237.44L487.13 218.01L467.4 221.31L468.51 241.38C464.52 243.16 460.86 245.46 457.57 248.18L439.92 238.34L428.3 254.63L443.29 268.05C441.76 272.03 440.76 276.24 440.34 280.58L420.91 286.1L424.21 305.83L444.28 304.72C446.06 308.71 448.36 312.37 451.08 315.66L441.24 333.31L457.53 344.93L470.95 329.94C474.93 331.47 479.14 332.47 483.48 332.89L489 352.32L508.73 349.02L507.62 328.95C511.61 327.17 515.27 324.87 518.56 322.15L536.21 331.99L547.83 315.7L532.84 302.28C534.37 298.3 535.37 294.09 535.79 289.75L555.22 284.23ZM492.01 308.72C479 310.9 466.69 302.12 464.52 289.11C462.34 276.1 471.12 263.79 484.13 261.62C497.14 259.44 509.44 268.22 511.62 281.23C513.8 294.24 505.02 306.55 492.01 308.72Z" stroke="black" stroke-width="2.85" stroke-linecap="round" stroke-linejoin="round"/>
</g>
<g opacity="0.3">
<path d="M1121.02 611.36V581.55L1091.25 578.24C1089.62 571.94 1087.13 566 1083.95 560.5L1102.75 536.99L1081.67 515.91L1058.27 534.63C1052.8 531.41 1046.86 528.9 1040.58 527.22L1037.25 497.32H1007.44L1004.13 527.09C997.83 528.72 991.89 531.21 986.39 534.39L962.88 515.59L941.8 536.67L960.52 560.07C957.3 565.54 954.79 571.48 953.11 577.76L923.21 581.09V610.9L952.98 614.21C954.61 620.51 957.1 626.45 960.28 631.95L941.48 655.46L962.56 676.54L985.96 657.82C991.43 661.04 997.37 663.55 1003.65 665.23L1006.98 695.13H1036.79L1040.1 665.36C1046.4 663.73 1052.34 661.24 1057.84 658.06L1081.35 676.86L1102.43 655.78L1083.71 632.38C1086.93 626.91 1089.44 620.97 1091.12 614.69L1121.02 611.36ZM1022.12 631.79C1002.47 631.79 986.55 615.86 986.55 596.22C986.55 576.58 1002.48 560.65 1022.12 560.65C1041.76 560.65 1057.69 576.58 1057.69 596.22C1057.69 615.86 1041.76 631.79 1022.12 631.79Z" stroke="black" stroke-width="2.85" stroke-linecap="round" stroke-linejoin="round"/>
<path d="M1238.15 551.53L1234.85 531.8L1214.78 532.91C1213 528.92 1210.7 525.26 1207.98 521.97L1217.82 504.32L1201.53 492.7L1188.11 507.69C1184.13 506.16 1179.92 505.16 1175.58 504.74L1170.06 485.31L1150.33 488.61L1151.44 508.68C1147.45 510.46 1143.79 512.76 1140.5 515.48L1122.85 505.64L1111.23 521.93L1126.22 535.35C1124.69 539.33 1123.69 543.54 1123.27 547.88L1103.84 553.4L1107.14 573.13L1127.21 572.02C1128.99 576.01 1131.29 579.67 1134.01 582.96L1124.17 600.61L1140.46 612.23L1153.88 597.24C1157.86 598.77 1162.07 599.77 1166.41 600.19L1171.93 619.62L1191.66 616.32L1190.55 596.25C1194.54 594.47 1198.2 592.17 1201.49 589.45L1219.14 599.29L1230.76 583L1215.77 569.58C1217.3 565.6 1218.3 561.39 1218.72 557.05L1238.15 551.53ZM1174.94 576.02C1161.93 578.2 1149.62 569.42 1147.45 556.41C1145.27 543.4 1154.05 531.09 1167.06 528.92C1180.07 526.74 1192.37 535.52 1194.55 548.53C1196.73 561.54 1187.95 573.85 1174.94 576.02Z" stroke="black" stroke-width="2.85" stroke-linecap="round" stroke-linejoin="round"/>
</g>
<path d="M1058.33 308.62H322.54C310.754 308.62 301.2 318.174 301.2 329.96V853.77C301.2 865.556 310.754 875.11 322.54 875.11H1058.33C1070.12 875.11 1079.67 865.556 1079.67 853.77V329.96C1079.67 318.174 1070.12 308.62 1058.33 308.62Z" fill="#263238" stroke="#263238" stroke-width="2.85" stroke-linecap="round" stroke-linejoin="round"/>
<path d="M1069.53 293.68H333.74C321.954 293.68 312.4 303.234 312.4 315.02V838.83C312.4 850.616 321.954 860.17 333.74 860.17H1069.53C1081.32 860.17 1090.87 850.616 1090.87 838.83V315.02C1090.87 303.234 1081.32 293.68 1069.53 293.68Z" fill="white" stroke="#263238" stroke-width="2.85" stroke-linecap="round" stroke-linejoin="round"/>
<path d="M1009.15 370.49H904.89C900.417 370.49 896.79 374.116 896.79 378.59V443.04C896.79 447.514 900.417 451.14 904.89 451.14H1009.15C1013.62 451.14 1017.25 447.514 1017.25 443.04V378.59C1017.25 374.116 1013.62 370.49 1009.15 370.49Z" fill="#263238" stroke="#263238" stroke-width="2.85" stroke-linecap="round" stroke-linejoin="round"/>
<path d="M1016.6 363.03H912.34C907.867 363.03 904.24 366.656 904.24 371.13V435.58C904.24 440.053 907.867 443.68 912.34 443.68H1016.6C1021.07 443.68 1024.7 440.053 1024.7 435.58V371.13C1024.7 366.656 1021.07 363.03 1016.6 363.03Z" fill="white" stroke="#263238" stroke-width="2.85" stroke-linecap="round" stroke-linejoin="round"/>
<path d="M1024.7 389.93H904.24V410.35H1024.7V389.93Z" fill="#263238" stroke="#263238" stroke-width="2.85" stroke-linecap="round" stroke-linejoin="round"/>
<path d="M999.97 378.63C999.97 381.9 997.32 384.54 994.06 384.54C990.8 384.54 988.15 381.89 988.15 378.63C988.15 375.37 990.8 372.72 994.06 372.72C997.32 372.72 999.97 375.37 999.97 378.63Z" fill="white" stroke="#263238" stroke-width="2.85" stroke-linecap="round" stroke-linejoin="round"/>
<path d="M1011.26 378.63C1011.26 381.9 1008.61 384.54 1005.35 384.54C1002.09 384.54 999.44 381.89 999.44 378.63C999.44 375.37 1002.09 372.72 1005.35 372.72C1008.61 372.72 1011.26 375.37 1011.26 378.63Z" fill="white" stroke="#263238" stroke-width="2.85" stroke-linecap="round" stroke-linejoin="round"/>
<path d="M493.55 375.09H367.73V447.14H493.55V375.09Z" fill="#263238" stroke="#263238" stroke-width="2.85" stroke-linecap="round" stroke-linejoin="round"/>
<path d="M500.09 367.34H374.27V439.39H500.09V367.34Z" fill="white" stroke="#263238" stroke-width="2.85" stroke-linecap="round" stroke-linejoin="round"/>
<path d="M385.72 385.54V420.93C389.71 420.93 392.95 424.16 392.95 428.16C392.95 428.25 392.93 428.33 392.92 428.42H481.44C481.44 428.33 481.41 428.25 481.41 428.16C481.41 424.17 484.65 420.93 488.64 420.93V385.54C484.65 385.54 481.41 382.3 481.41 378.31H392.94C392.94 382.3 389.7 385.54 385.71 385.54H385.72ZM437.18 387.77C445.79 387.77 452.77 394.75 452.77 403.36C452.77 411.97 445.79 418.95 437.18 418.95C428.57 418.95 421.59 411.97 421.59 403.36C421.59 394.75 428.57 387.77 437.18 387.77Z" fill="white" stroke="#263238" stroke-width="2.85" stroke-linecap="round" stroke-linejoin="round"/>
<path d="M437.57 416.94V414.79C435.81 414.72 434.5 414.15 433.64 413.08C432.78 412 432.3 410.48 432.22 408.5L435.5 407.86C435.53 408.66 435.63 409.37 435.78 409.98C435.93 410.59 436.18 411.07 436.51 411.4C436.84 411.73 437.28 411.9 437.83 411.9C438.44 411.9 438.88 411.72 439.15 411.35C439.41 410.98 439.55 410.52 439.55 409.96C439.55 409.06 439.34 408.31 438.92 407.73C438.5 407.15 437.96 406.57 437.3 405.99L434.66 403.69C434.18 403.26 433.77 402.82 433.41 402.35C433.05 401.88 432.77 401.35 432.57 400.76C432.37 400.17 432.26 399.48 432.26 398.7C432.26 397.15 432.7 395.93 433.59 395.05C434.48 394.17 435.67 393.69 437.17 393.6V391.53H438.27V393.58C439.14 393.63 439.86 393.82 440.42 394.16C440.98 394.49 441.43 394.92 441.76 395.44C442.09 395.96 442.34 396.54 442.5 397.19C442.66 397.84 442.76 398.51 442.8 399.21L439.57 399.77C439.54 399.12 439.47 398.54 439.37 398.02C439.27 397.5 439.07 397.09 438.79 396.79C438.51 396.49 438.1 396.36 437.55 396.39C436.97 396.41 436.53 396.59 436.23 396.95C435.93 397.31 435.78 397.76 435.78 398.31C435.78 399.04 435.94 399.64 436.26 400.09C436.59 400.54 436.99 400.99 437.46 401.43L440.07 403.71C440.62 404.21 441.12 404.74 441.59 405.32C442.06 405.9 442.43 406.55 442.72 407.26C443 407.98 443.14 408.8 443.14 409.72C443.14 410.64 442.96 411.46 442.59 412.19C442.22 412.91 441.71 413.5 441.04 413.94C440.37 414.38 439.58 414.66 438.66 414.76V416.94H437.56H437.57Z" fill="#263238"/>
<path d="M992.93 511.44V510C992.93 504.78 988.7 500.55 983.48 500.55H930.62C925.4 500.55 921.17 504.78 921.17 510V611.75C921.17 616.97 925.4 621.2 930.62 621.2H983.48C988.7 621.2 992.93 616.97 992.93 611.75V610.31V511.45V511.44Z" fill="#263238" stroke="#263238" stroke-width="2.85" stroke-linecap="round" stroke-linejoin="round"/>
<path d="M989.46 491.56H939.48C933.466 491.56 928.59 496.436 928.59 502.45V601.31C928.59 607.324 933.466 612.2 939.48 612.2H989.46C995.474 612.2 1000.35 607.324 1000.35 601.31V502.45C1000.35 496.436 995.474 491.56 989.46 491.56Z" fill="white" stroke="#263238" stroke-width="2.85" stroke-linecap="round" stroke-linejoin="round"/>
<path d="M1000.35 512.85V501.01C1000.35 495.79 996.12 491.56 990.9 491.56H938.04C932.82 491.56 928.59 495.79 928.59 501.01V512.85H1000.35Z" fill="white" stroke="#263238" stroke-width="2.85" stroke-linecap="round" stroke-linejoin="round"/>
<path d="M928.59 594.07V602.76C928.59 607.98 932.82 612.21 938.04 612.21H990.9C996.12 612.21 1000.35 607.98 1000.35 602.76V594.07H928.59Z" fill="white" stroke="#263238" stroke-width="2.85" stroke-linecap="round" stroke-linejoin="round"/>
<path d="M508.33 605.47V511.49C508.33 507.61 505.19 504.47 501.31 504.47H365.92C362.04 504.47 358.9 507.61 358.9 511.49V605.47H347.56L352.35 610.79C356.39 615.28 362.15 617.84 368.19 617.84H502.96C509 617.84 514.76 615.28 518.8 610.79L523.59 605.47H508.34H508.33Z" fill="#263238" stroke="#263238" stroke-width="2.85" stroke-linecap="round" stroke-linejoin="round"/>
<path d="M371.23 498.08H506.62C510.5 498.08 513.64 501.23 513.64 505.1V599.08H364.2V505.1C364.2 501.22 367.35 498.08 371.22 498.08H371.23Z" fill="white" stroke="#263238" stroke-width="2.85" stroke-linecap="round" stroke-linejoin="round"/>
<path d="M376.48 502.79H501.38C505.26 502.79 508.4 505.94 508.4 509.81V602.47H369.45V509.81C369.45 505.93 372.6 502.79 376.47 502.79H376.48Z" fill="white" stroke="#263238" stroke-width="2.85" stroke-linecap="round" stroke-linejoin="round"/>
<path d="M373.5 611.45H508.27C514.31 611.45 520.07 608.89 524.11 604.4L528.9 599.08H352.87L357.66 604.4C361.7 608.89 367.46 611.45 373.5 611.45Z" fill="white" stroke="#263238" stroke-width="2.85" stroke-linecap="round" stroke-linejoin="round"/>
<path d="M993.51 686.77H929.03C923.05 686.77 918.21 691.62 918.21 697.59V728.43C918.21 734.41 923.06 739.25 929.03 739.25H988.87L1004.34 758.72V697.58C1004.34 691.6 999.49 686.76 993.52 686.76L993.51 686.77Z" fill="#263238" stroke="#263238" stroke-width="2.85" stroke-linecap="round" stroke-linejoin="round"/>
<path d="M997.56 681.49H933.08C927.1 681.49 922.26 686.34 922.26 692.31V723.15C922.26 729.13 927.11 733.97 933.08 733.97H992.92L1008.39 753.44V692.3C1008.39 686.32 1003.54 681.48 997.57 681.48L997.56 681.49Z" fill="white" stroke="#263238" stroke-width="2.85" stroke-linecap="round" stroke-linejoin="round"/>
<path d="M908.95 723.29H951.63C955.59 723.29 958.79 726.5 958.79 730.45V750.86C958.79 754.82 955.58 758.02 951.63 758.02H912.03L901.79 770.91V730.45C901.79 726.49 905 723.29 908.95 723.29Z" fill="#263238" stroke="#263238" stroke-width="2.85" stroke-linecap="round" stroke-linejoin="round"/>
<path d="M912.29 719.35H954.97C958.93 719.35 962.13 722.56 962.13 726.51V746.92C962.13 750.88 958.92 754.08 954.97 754.08H915.37L905.13 766.97V726.51C905.13 722.55 908.34 719.35 912.29 719.35Z" fill="white" stroke="#263238" stroke-width="2.85" stroke-linecap="round" stroke-linejoin="round"/>
<path d="M937.62 696.33H992.37" stroke="#263238" stroke-width="2.85" stroke-linecap="round" stroke-linejoin="round"/>
<path d="M937.62 707.83H992.37" stroke="#263238" stroke-width="2.85" stroke-linecap="round" stroke-linejoin="round"/>
<path d="M937.62 719.32H992.37" stroke="#263238" stroke-width="2.85" stroke-linecap="round" stroke-linejoin="round"/>
<path d="M913.96 732.84H955.02" stroke="#263238" stroke-width="2.85" stroke-linecap="round" stroke-linejoin="round"/>
<path d="M913.96 742.3H955.02" stroke="#263238" stroke-width="2.85" stroke-linecap="round" stroke-linejoin="round"/>
<path d="M437.85 797.84C471.352 797.84 498.51 770.682 498.51 737.18C498.51 703.678 471.352 676.52 437.85 676.52C404.348 676.52 377.19 703.678 377.19 737.18C377.19 770.682 404.348 797.84 437.85 797.84Z" fill="#263238" stroke="#263238" stroke-width="2.85" stroke-linecap="round" stroke-linejoin="round"/>
<path d="M440.66 789.44C474.162 789.44 501.32 762.282 501.32 728.78C501.32 695.278 474.162 668.12 440.66 668.12C407.158 668.12 380 695.278 380 728.78C380 762.282 407.158 789.44 440.66 789.44Z" fill="white" stroke="#263238" stroke-width="2.85" stroke-linecap="round" stroke-linejoin="round"/>
<path d="M410.26 691.61C400.46 698.83 402.26 715.47 407.55 724.74C413.67 735.48 423.58 743.58 432.88 751.46C433.88 752.31 434.89 753.16 435.86 754.04C442.83 760.37 452.28 765.37 461.67 766.73C470.67 768.04 475.73 761.83 477.48 753.59C477.84 751.88 477.29 750.1 476.06 748.86L462.09 734.89C462.09 734.89 459.59 733.43 457.72 735.31C455.85 737.18 449.6 742.39 449.6 742.39C449.6 742.39 437.32 738.02 424.21 717C424.21 717 431.29 709.3 431.91 708.05C432.53 706.8 432.33 704.72 431.08 703.05C428.94 700.2 425.78 697.84 423.18 695.44C419.08 691.66 415.88 687.47 410.27 691.6L410.26 691.61Z" fill="#263238" stroke="#263238" stroke-width="2.85" stroke-linecap="round" stroke-linejoin="round"/>
<path d="M910.054 392.205C922.065 389.36 929.494 377.316 926.648 365.305C923.803 353.294 911.759 345.864 899.748 348.71C887.737 351.556 880.307 363.6 883.153 375.611C885.999 387.622 898.043 395.051 910.054 392.205Z" fill="#263238" stroke="#263238" stroke-width="2.85" stroke-linecap="round" stroke-linejoin="round"/>
<path d="M907.27 380.54C907.08 380.54 906.89 380.53 906.69 380.5C905.34 380.32 904.16 379.5 903.5 378.3L896.47 365.32C895.34 363.24 896.12 360.65 898.2 359.52C900.27 358.39 902.87 359.16 904 361.24L908.24 369.08L932.3 344.09C933.94 342.39 936.64 342.34 938.35 343.98C940.05 345.62 940.1 348.33 938.46 350.03L910.34 379.23C909.53 380.07 908.41 380.54 907.26 380.54H907.27Z" fill="#4FE89C" stroke="#263238" stroke-width="2.85" stroke-linecap="round" stroke-linejoin="round"/>
<path d="M503.28 521.84C515.624 521.84 525.63 511.834 525.63 499.49C525.63 487.146 515.624 477.14 503.28 477.14C490.936 477.14 480.93 487.146 480.93 499.49C480.93 511.834 490.936 521.84 503.28 521.84Z" fill="#263238" stroke="#263238" stroke-width="2.85" stroke-linecap="round" stroke-linejoin="round"/>
<path d="M505.65 509.54C505.46 509.54 505.27 509.53 505.07 509.5C503.72 509.32 502.54 508.5 501.88 507.3L494.85 494.32C493.73 492.24 494.5 489.65 496.58 488.52C498.65 487.39 501.25 488.16 502.38 490.24L506.62 498.08L530.68 473.09C532.32 471.39 535.02 471.34 536.73 472.98C538.43 474.62 538.48 477.33 536.84 479.03L508.72 508.23C507.91 509.07 506.79 509.54 505.64 509.54H505.65Z" fill="#4FE89C" stroke="#263238" stroke-width="2.85" stroke-linecap="round" stroke-linejoin="round"/>
<path d="M923.64 706.86C935.984 706.86 945.99 696.854 945.99 684.51C945.99 672.166 935.984 662.16 923.64 662.16C911.296 662.16 901.29 672.166 901.29 684.51C901.29 696.854 911.296 706.86 923.64 706.86Z" fill="#263238" stroke="#263238" stroke-width="2.85" stroke-linecap="round" stroke-linejoin="round"/>
<path d="M926.02 694.56C925.83 694.56 925.64 694.55 925.44 694.52C924.09 694.34 922.91 693.52 922.25 692.32L915.22 679.34C914.09 677.26 914.87 674.67 916.95 673.54C919.02 672.41 921.62 673.18 922.75 675.26L926.99 683.1L951.05 658.11C952.69 656.41 955.39 656.36 957.1 658C958.8 659.64 958.85 662.35 957.21 664.05L929.09 693.25C928.28 694.09 927.16 694.56 926.01 694.56H926.02Z" fill="#4FE89C" stroke="#263238" stroke-width="2.85" stroke-linecap="round" stroke-linejoin="round"/>
<path d="M1043.47 872.96C1043.47 872.96 1004.12 968.75 1003.42 974.82C1002.72 980.89 1007.74 990.69 1013.06 992.54C1018.38 994.38 1036.31 982.92 1039.3 978.34C1042.29 973.76 1064.95 900.04 1064.95 900.04L1043.47 872.96Z" fill="white" stroke="#263238" stroke-width="2.85" stroke-linecap="round" stroke-linejoin="round"/>
<path d="M1053.54 928.31L1008.94 842.77L1089.59 832.99L1121.98 900.82L1053.54 928.31Z" fill="#263238" stroke="#263238" stroke-width="2.85" stroke-linecap="round" stroke-linejoin="round"/>
<path d="M1059.49 921.3L1020.72 846.42L1086.23 838.4L1113.42 897.23L1059.49 921.3Z" fill="white" stroke="#263238" stroke-width="2.85" stroke-linecap="round" stroke-linejoin="round"/>
<path d="M1024.21 840.94L1024.63 834.55L1038.72 831.91C1038.72 831.91 1036.08 822.22 1045.59 821.39C1052.89 820.75 1055.37 829.94 1055.37 829.94L1067.79 829.56L1074.31 835.44L1064.53 836.66L1062.79 843.07L1043.12 846.22L1035.18 839.5L1024.21 840.94Z" fill="white" stroke="#263238" stroke-width="2.85" stroke-linecap="round" stroke-linejoin="round"/>
<path d="M1124.56 834.39C1124.56 834.39 1105.84 823.25 1103.17 824.14C1100.5 825.03 1086.23 840.63 1088.02 844.64C1089.81 848.65 1093.81 846.42 1095.6 851.32C1097.38 856.22 1113.87 857.11 1116.99 851.32C1120.11 845.53 1124.57 834.38 1124.57 834.38L1124.56 834.39Z" fill="white" stroke="#263238" stroke-width="2.85" stroke-linecap="round" stroke-linejoin="round"/>
<path d="M1120.99 804.09L1104.5 842.42L1109.4 843.31L1127.67 804.98C1127.67 804.98 1127.22 799.63 1120.99 804.09Z" fill="#263238" stroke="#263238" stroke-width="2.85" stroke-linecap="round" stroke-linejoin="round"/>
<path d="M1122.78 841.97C1122.78 841.97 1103.17 830.83 1100.5 832.61C1097.83 834.39 1090.25 846.87 1089.8 848.65C1089.35 850.43 1092.92 853.11 1095.59 851.32C1098.26 849.54 1101.38 846.86 1101.38 846.86C1101.38 846.86 1105.84 851.32 1111.18 851.76" fill="white"/>
<path d="M1122.78 841.97C1122.78 841.97 1103.17 830.83 1100.5 832.61C1097.83 834.39 1090.25 846.87 1089.8 848.65C1089.35 850.43 1092.92 853.11 1095.59 851.32C1098.26 849.54 1101.38 846.86 1101.38 846.86C1101.38 846.86 1105.84 851.32 1111.18 851.76" stroke="#263238" stroke-width="2.85" stroke-linecap="round" stroke-linejoin="round"/>
<path d="M1171.18 697.57C1171.18 697.57 1164.88 707.03 1158.97 711.58C1153.06 716.13 1140.24 716.71 1140.46 721.6C1140.68 726.48 1145.37 735.44 1145.37 735.44C1145.37 735.44 1142.24 774.12 1144.84 777.67C1147.45 781.22 1162.82 782.97 1162.82 782.97L1159.91 813.07L1208.24 813.32L1212.21 766.04C1212.21 766.04 1194.67 703.23 1184.55 695.74C1174.42 688.25 1171.18 697.57 1171.18 697.57Z" fill="white" stroke="#263238" stroke-width="2.85" stroke-linecap="round" stroke-linejoin="round"/>
<path d="M1201.06 670.59C1201.06 670.59 1186.25 652.23 1175.1 662.52C1163.95 672.81 1166.67 692.26 1171.19 697.56L1175.71 702.86C1175.71 702.86 1168.33 715.43 1168.64 722.14C1168.95 728.85 1176.66 737.07 1176.66 737.07C1176.66 737.07 1172.91 775.77 1187.87 781.82C1202.82 787.87 1247.11 763.12 1252.69 751.24C1258.27 739.37 1250.53 703.63 1250.53 703.63L1263.21 700C1263.21 700 1258.35 714.29 1267.12 718.78C1275.89 723.27 1288.23 725.77 1288.23 725.77C1288.23 725.77 1256.57 742.5 1260.57 763.11C1264.57 783.72 1310.06 792.16 1316.5 772.3C1322.94 752.43 1315.34 730.04 1315.34 730.04C1315.34 730.04 1356.4 731.84 1352.3 695.33C1348.19 658.82 1319.2 666.86 1307.27 673.52C1295.34 680.18 1287.63 685.42 1287.63 685.42C1287.63 685.42 1277.86 645.5 1258.64 653.1C1239.41 660.7 1239.8 684.56 1239.8 684.56L1201.09 670.58L1201.06 670.59Z" fill="#263238" stroke="#263238" stroke-width="2.85" stroke-linecap="round" stroke-linejoin="round"/>
<path d="M1173.79 728.03C1173.79 728.03 1172.99 737.24 1169.24 749.03C1165.49 760.82 1173.1 766.59 1179.59 747.95C1186.08 729.31 1182.64 720.9 1173.79 728.03Z" fill="white" stroke="#263238" stroke-width="2.85" stroke-linecap="round" stroke-linejoin="round"/>
<path d="M1263.73 854.38C1263.73 854.38 1264.55 908.57 1262.03 932.05C1259.51 955.53 1249.41 973.05 1241.91 971.46C1234.4 969.87 1214.24 958.04 1214.24 958.04L1263.73 854.38Z" fill="white" stroke="#263238" stroke-width="2.85" stroke-linecap="round" stroke-linejoin="round"/>
<path d="M1090.52 1187.7C1090.52 1187.7 1093.55 1266.98 1100.81 1319.02C1108.07 1371.06 1103.23 1403.74 1103.23 1403.74C1103.23 1403.74 1095.97 1411 1086.89 1414.63C1077.81 1418.26 1067.53 1420.08 1068.74 1423.71C1069.95 1427.34 1073.58 1430.37 1099.6 1437.02C1125.62 1443.68 1142.57 1439.44 1143.78 1436.41C1144.99 1433.38 1137.73 1399.5 1137.73 1397.68C1137.73 1395.86 1141.36 1332.32 1144.39 1302.67C1147.42 1273.02 1148.02 1205.85 1148.02 1201.61V1190.72L1090.53 1187.69L1090.52 1187.7Z" fill="white" stroke="#263238" stroke-width="2.85" stroke-linecap="round" stroke-linejoin="round"/>
<path d="M1099.59 1437.02C1125.61 1443.68 1142.56 1439.44 1143.77 1436.41C1144.32 1435.03 1143.11 1427.23 1141.63 1418.98C1125.69 1431.34 1092.94 1420.07 1092.94 1420.07L1093.55 1415.23C1093.85 1412.86 1096.17 1410.06 1098.47 1407.82C1095.52 1410.09 1091.44 1412.81 1086.9 1414.63C1077.82 1418.26 1067.54 1420.08 1068.75 1423.71C1069.96 1427.34 1073.59 1430.37 1099.61 1437.02H1099.59Z" fill="#263238" stroke="#263238" stroke-width="2.85" stroke-linecap="round" stroke-linejoin="round"/>
<path d="M1175.24 1202.22L1201.87 1400.71C1201.87 1400.71 1203.69 1426.13 1203.69 1431.57C1203.69 1437.01 1213.01 1441.34 1220.63 1440.65C1227.29 1440.04 1232.13 1436.41 1232.73 1427.94C1233.34 1419.47 1228.49 1391.63 1228.49 1391.63L1232.73 1195.56L1175.24 1202.22Z" fill="white" stroke="#263238" stroke-width="2.85" stroke-linecap="round" stroke-linejoin="round"/>
<path d="M1220.62 1440.65C1227.28 1440.04 1232.12 1436.41 1232.72 1427.94C1232.87 1425.81 1232.68 1422.45 1232.31 1418.61C1221.3 1424.7 1208.22 1419.99 1202.99 1417.6C1203.36 1423.53 1203.68 1429.29 1203.68 1431.57C1203.68 1437.02 1213 1441.34 1220.62 1440.65Z" fill="#263238" stroke="#263238" stroke-width="2.85" stroke-linecap="round" stroke-linejoin="round"/>
<path d="M1065.83 1129.09L1062.48 1223.79C1062.48 1223.79 1116.98 1242.24 1168.13 1240.56C1232.02 1238.47 1262.88 1222.95 1262.88 1222.95L1261.2 1120.71C1261.2 1120.71 1151.36 1095.56 1112.79 1102.26C1074.22 1108.97 1065.84 1129.09 1065.84 1129.09H1065.83Z" fill="#263238" stroke="#263238" stroke-width="2.85" stroke-linecap="round" stroke-linejoin="round"/>
<path d="M1137.86 825.05C1137.86 825.05 1079.81 858.66 1080.42 866.6C1081.03 874.54 1088.97 982.69 1088.97 982.69C1088.97 982.69 1066.36 1049.9 1065.75 1076.17C1065.14 1102.44 1060.86 1136.05 1060.86 1136.05L1084.69 1140.33L1095.08 1117.72L1096.3 1145.83C1096.3 1145.83 1150.07 1156.22 1197.73 1153.16C1245.39 1150.1 1269.22 1131.77 1269.22 1131.77C1269.22 1131.77 1268.61 1079.22 1255.17 1039.51C1241.73 999.79 1234.4 972.3 1234.4 969.85C1234.4 967.4 1264.54 906.88 1263.73 854.37C1263.56 843.36 1233.79 827.49 1233.79 827.49C1233.79 827.49 1195.3 807.33 1137.86 825.05Z" fill="white" stroke="#263238" stroke-width="2.85" stroke-linecap="round" stroke-linejoin="round"/>
<path d="M1219.74 803.05C1219.74 803.05 1159.25 798.16 1150.7 803.66C1142.15 809.16 1130.54 832.38 1130.54 832.38C1130.54 832.38 1167.81 819.55 1192.86 820.16C1217.91 820.77 1233.8 827.49 1233.8 827.49C1233.8 827.49 1228.91 807.94 1219.75 803.05H1219.74Z" fill="white" stroke="#263238" stroke-width="2.85" stroke-linecap="round" stroke-linejoin="round"/>
<path d="M1180.01 971.45L1216.07 938.09" stroke="#263238" stroke-width="2.85" stroke-linecap="round" stroke-linejoin="round"/>
<path d="M1150.69 998.58L1165.53 984.85" stroke="#263238" stroke-width="2.85" stroke-linecap="round" stroke-linejoin="round"/>
<path d="M1210.57 964.36L1186.13 991.25" stroke="#263238" stroke-width="2.85" stroke-linecap="round" stroke-linejoin="round"/>
<path d="M1080.43 866.6C1080.43 866.6 1011.36 957.71 1007.69 963.21C1004.02 968.71 1004.02 983.98 1010.75 989.48C1017.47 994.98 1030.3 1000.48 1039.47 998.65C1048.64 996.82 1093.87 955.2 1093.87 955.2C1093.87 955.2 1098.76 872.1 1080.43 866.6Z" fill="white" stroke="#263238" stroke-width="2.85" stroke-linecap="round" stroke-linejoin="round"/>
<path d="M818.79 703.62L797.51 756.51L789.3 760.42L798.29 804.97L864.52 715.86C864.52 715.86 853.74 690.99 818.78 703.62H818.79Z" fill="white" stroke="#263238" stroke-width="2.85" stroke-linecap="round" stroke-linejoin="round"/>
<path d="M771.79 860.17L794.32 859.69V799.5H593.11V860.17H771.79Z" fill="#919191" stroke="#263238" stroke-width="2.85" stroke-linecap="round" stroke-linejoin="round"/>
<path d="M648.09 500.71C648.09 500.71 557.91 535.49 553.4 545.8C548.89 556.11 538.16 684.31 538.16 684.31C538.16 684.31 537.3 712 543.1 714.58C548.9 717.16 589.48 706.21 589.48 706.21C589.48 706.21 588.84 811.21 592.7 814.43C596.56 817.65 785.95 813.14 789.81 809.28C793.67 805.42 794.32 795.75 794.32 795.75L800.12 651.46L820.73 686.25C820.73 686.25 812.36 686.89 813.64 690.76C814.93 694.62 818.79 703.64 818.79 703.64C818.79 703.64 841.98 701.71 851 705.57C860.02 709.43 861.95 716.52 864.53 715.88C867.11 715.24 878.7 708.79 882.57 701.71C886.43 694.62 885.79 691.4 883.86 690.11C883.86 690.11 884.5 680.45 883.22 675.94C881.93 671.43 871.62 661.77 865.83 657.9C860.03 654.04 855.52 643.08 855.52 643.08C855.52 643.08 818.16 538.73 812.36 534.22C806.56 529.71 695.12 500.08 695.12 500.08L648.1 500.72L648.09 500.71Z" fill="#263238" stroke="#263238" stroke-width="2.85" stroke-linecap="round" stroke-linejoin="round"/>
<path d="M725.59 384.85C725.59 384.85 728.88 402.14 733.41 416.55C737.94 430.96 733.41 466.77 731.76 476.65C730.11 486.53 718.18 488.18 715.29 488.18H712.41C712.41 488.18 713.23 532.64 713.23 537.58C713.23 542.52 711.58 558.98 693.47 565.16C675.36 571.33 653.54 563.1 647.37 548.69C641.2 534.28 634.2 401.33 634.2 401.33C634.2 401.33 631.32 385.28 645.31 374.16C659.31 363.05 688.53 363.87 703.76 365.93C718.99 367.99 725.58 384.87 725.58 384.87L725.59 384.85Z" fill="white" stroke="#263238" stroke-width="2.85" stroke-linecap="round" stroke-linejoin="round"/>
<path d="M723.94 429.3C723.94 429.3 732.58 426.42 735.88 421.48C739.17 416.54 725.18 413.25 722.3 410.37C719.42 407.49 719.01 390.61 719.01 390.61H724.36" fill="white"/>
<path d="M723.94 429.3C723.94 429.3 732.58 426.42 735.88 421.48C739.17 416.54 725.18 413.25 722.3 410.37C719.42 407.49 719.01 390.61 719.01 390.61H724.36" stroke="#263238" stroke-width="2.85" stroke-linecap="round" stroke-linejoin="round"/>
<path d="M684.01 431.77C684.01 431.77 696.77 447 705 446.59C713.23 446.18 724.35 444.12 724.35 444.12" stroke="#263238" stroke-width="2.85" stroke-linecap="round" stroke-linejoin="round"/>
<path d="M688.95 428.89L679.07 433.83" stroke="#263238" stroke-width="2.85" stroke-linecap="round" stroke-linejoin="round"/>
<path d="M685.25 393.08C685.25 393.08 688.54 386.91 700.07 388.55" stroke="#263238" stroke-width="2.85" stroke-linecap="round" stroke-linejoin="round"/>
<path d="M698.83 407.9C698.83 410.86 697.54 413.25 695.95 413.25C694.36 413.25 693.07 410.85 693.07 407.9C693.07 404.95 694.36 402.55 695.95 402.55C697.54 402.55 698.83 404.95 698.83 407.9Z" fill="#263238"/>
<path d="M728.06 409.35C728.06 412.31 726.23 412.04 724.64 412.04C723.05 412.04 722.3 412.3 722.3 409.35C722.3 406.4 723.59 404 725.18 404C726.77 404 728.06 406.4 728.06 409.35Z" fill="#263238"/>
<path d="M712.42 488.17C712.42 488.17 697.19 488.17 690.19 486.52C683.19 484.87 663.85 473.76 663.85 473.76C663.85 473.76 677.85 490.64 689.37 496.4C700.9 502.16 711.19 500.52 711.19 500.52L712.43 488.17H712.42Z" fill="#263238"/>
<path d="M640.79 426.83C640.79 426.83 652.32 424.77 653.14 422.3C653.96 419.83 642.44 408.3 649.85 401.72C657.26 395.13 669.2 391.43 668.79 387.31C668.38 383.19 653.15 378.25 665.5 370.84C677.85 363.43 713.25 368.37 718.6 373.72C723.95 379.07 725.6 386.89 730.13 383.6C734.66 380.31 746.18 360.14 742.07 353.14C737.95 346.14 728.9 354.38 728.9 354.38C728.9 354.38 722.31 332.56 715.73 339.56C709.14 346.56 709.14 353.14 709.14 353.14C709.14 353.14 666.74 346.55 633.81 361.37C600.88 376.19 626.81 429.29 626.81 429.29L640.81 426.82L640.79 426.83Z" fill="#4FE89C" stroke="#263238" stroke-width="2.85" stroke-linecap="round" stroke-linejoin="round"/>
<path d="M645.73 432.18C645.73 432.18 632.97 412.42 626.8 416.95C620.63 421.48 619.39 447.82 627.62 450.29C635.85 452.76 641.62 447 641.62 447" fill="white"/>
<path d="M645.73 432.18C645.73 432.18 632.97 412.42 626.8 416.95C620.63 421.48 619.39 447.82 627.62 450.29C635.85 452.76 641.62 447 641.62 447" stroke="#263238" stroke-width="2.85" stroke-linecap="round" stroke-linejoin="round"/>
<path d="M730.97 510.28C730.97 510.28 739.87 508.8 744.32 502.86C748.77 496.93 752.73 502.37 750.25 509.78C747.77 517.19 733.93 524.61 733.93 524.61L730.96 510.27L730.97 510.28Z" fill="white" stroke="#263238" stroke-width="2.85" stroke-linecap="round" stroke-linejoin="round"/>
<path d="M720.59 496.43C720.59 496.43 697.35 502.86 695.38 509.78C693.4 516.7 693.48 565.14 693.48 565.14C693.48 565.14 563.86 643.77 555.95 647.72C548.04 651.68 539.14 652.17 533.21 659.09C527.28 666.01 538.15 684.3 538.15 684.3C538.15 684.3 528.26 686.28 531.23 692.21C534.2 698.14 536.67 695.18 536.67 695.18C536.67 695.18 536.95 717.75 538.15 722.87C540.13 731.27 553.11 732.32 558.92 730.29C575.14 724.6 712.19 574.55 712.19 574.55C712.19 574.55 720.1 573.07 721.58 567.13C723.06 561.2 723.06 558.73 723.06 558.73C723.06 558.73 734.93 558.73 736.9 555.76C738.88 552.79 740.86 545.87 741.35 540.93C741.84 535.99 736.41 517.2 736.41 517.2C736.41 517.2 735.42 508.79 730.97 510.28C726.52 511.76 709.22 519.18 709.22 519.18C709.22 519.18 706.25 512.75 709.71 510.77C713.17 508.79 735.91 508.3 733.94 500.88C731.96 493.46 720.59 496.43 720.59 496.43Z" fill="white" stroke="#263238" stroke-width="2.85" stroke-linecap="round" stroke-linejoin="round"/>
<path d="M738.88 527.09C738.88 527.09 737.89 518.69 733.44 519.67C728.99 520.66 711.19 528.57 711.19 528.57" stroke="#263238" stroke-width="2.85" stroke-linecap="round" stroke-linejoin="round"/>
<path d="M740.37 535.99C740.37 535.99 739.88 530.55 735.43 531.05C730.98 531.54 713.25 537.57 713.25 537.57" stroke="#263238" stroke-width="2.85" stroke-linecap="round" stroke-linejoin="round"/>
<path d="M729.98 544.88L720.59 547.85C720.59 547.85 715.65 557.74 723.06 558.73" stroke="#263238" stroke-width="2.85" stroke-linecap="round" stroke-linejoin="round"/>
<path d="M709.22 519.18L701.31 523.62" stroke="#263238" stroke-width="2.85" stroke-linecap="round" stroke-linejoin="round"/>
<path d="M574.4 636.95C564.5 642.84 557.59 646.9 555.95 647.72C548.04 651.68 539.14 652.17 533.21 659.09C527.28 666.01 538.15 684.3 538.15 684.3C538.15 684.3 528.26 686.28 531.23 692.21C534.2 698.14 536.67 695.18 536.67 695.18C536.67 695.18 536.95 717.75 538.15 722.87C540.13 731.28 553.11 732.32 558.92 730.29C563.51 728.68 577.76 715.52 595.84 697.48C581.25 682.6 576.16 654.02 574.41 636.95H574.4Z" fill="#263238" stroke="#263238" stroke-width="2.85" stroke-linecap="round" stroke-linejoin="round"/>
<path d="M800.11 760.31C800.11 760.31 777.56 781.57 777.56 785.43C777.56 789.29 782.07 793.16 784.65 790.58C787.23 788 809.77 774.48 810.42 769.97C811.07 765.46 807.84 755.8 800.11 760.31Z" fill="white" stroke="#263238" stroke-width="2.85" stroke-linecap="round" stroke-linejoin="round"/>
<path d="M808.46 772.54C808.46 772.54 814.32 775.67 814.71 780.36C815.1 785.05 790.87 803.81 783.83 803.03C776.79 802.25 784.65 790.59 784.65 790.59L808.45 772.54H808.46Z" fill="white" stroke="#263238" stroke-width="2.85" stroke-linecap="round" stroke-linejoin="round"/>
<path d="M812.76 786.22C812.76 786.22 815.89 793.26 813.93 797.55C811.98 801.85 794.78 806.54 789.31 806.15C783.84 805.76 788.53 802.24 788.53 802.24C788.53 802.24 811.98 788.95 812.76 786.22Z" fill="white" stroke="#263238" stroke-width="2.85" stroke-linecap="round" stroke-linejoin="round"/>
<path d="M811.19 801.46C811.19 801.46 811.58 807.71 809.63 810.45C807.68 813.19 797.51 818.66 792.82 815.53C788.13 812.4 804.15 803.81 804.15 803.81L811.19 801.47V801.46Z" fill="white" stroke="#263238" stroke-width="2.85" stroke-linecap="round" stroke-linejoin="round"/>
</svg>
