<svg width="1495" height="1512" viewBox="0 0 1495 1512" fill="none" xmlns="http://www.w3.org/2000/svg">
<path d="M1387.93 583.77C1237.14 325.55 828.17 417.52 744.64 291.91C701.87 227.6 654.02 153.05 584.61 114.28C518.44 77.32 441.73 64.14 374.84 69.03C136 86.51 34.73 300.2 80.63 534.87C141.86 847.9 419.35 1167.66 749.01 1169.9C921.42 1171.07 1086.03 1109.44 1215.16 1022.31C1216.13 1021.66 1217.09 1021.01 1218.05 1020.35C1347.04 932.54 1503.06 780.91 1387.94 583.77H1387.93Z" fill="#4FE89C"/>
<path opacity="0.7" d="M1387.93 583.77C1237.14 325.55 828.17 417.52 744.64 291.91C701.87 227.6 654.02 153.05 584.61 114.28C518.44 77.32 441.73 64.14 374.84 69.03C136 86.51 34.73 300.2 80.63 534.87C141.86 847.9 419.35 1167.66 749.01 1169.9C921.42 1171.07 1086.03 1109.44 1215.16 1022.31C1216.13 1021.66 1217.09 1021.01 1218.05 1020.35C1347.04 932.54 1503.06 780.91 1387.94 583.77H1387.93Z" fill="white"/>
<path d="M217.5 602.56H200.74C163.27 602.56 132.9 632.93 132.9 670.4V1042.67C132.9 1080.14 163.27 1110.51 200.74 1110.51H430.77C468.24 1110.51 498.61 1080.14 498.61 1042.67" stroke="#263238" stroke-width="3.41" stroke-linecap="round" stroke-linejoin="round"/>
<path d="M479.74 251.3V177.76C479.74 154.81 498.34 136.21 521.29 136.21H820.43C843.38 136.21 861.98 154.81 861.98 177.76" stroke="#263238" stroke-width="3.41" stroke-linecap="round" stroke-linejoin="round"/>
<path d="M748.98 1397.51C1076.19 1397.51 1341.44 1360.44 1341.44 1314.72C1341.44 1269 1076.19 1231.93 748.98 1231.93C421.773 1231.93 156.52 1269 156.52 1314.72C156.52 1360.44 421.773 1397.51 748.98 1397.51Z" fill="#4FE89C"/>
<path opacity="0.5" d="M748.98 1397.51C1076.19 1397.51 1341.44 1360.44 1341.44 1314.72C1341.44 1269 1076.19 1231.93 748.98 1231.93C421.773 1231.93 156.52 1269 156.52 1314.72C156.52 1360.44 421.773 1397.51 748.98 1397.51Z" fill="white"/>
<path d="M1307.47 349.96V906.96C1307.47 944.87 1276.72 975.62 1238.81 975.62H259.15C221.24 975.62 190.49 944.87 190.49 906.96V349.96C190.49 348.32 190.56 346.72 190.69 345.11C193.15 309.45 222.87 281.26 259.14 281.26H1238.8C1275.07 281.26 1304.8 309.45 1307.25 345.11C1307.39 346.71 1307.45 348.32 1307.45 349.96H1307.47Z" fill="white" stroke="#263238" stroke-width="3.41" stroke-linecap="round" stroke-linejoin="round"/>
<path d="M223.9 370.85H1277.55V885.38C1277.55 920.89 1248.72 949.72 1213.21 949.72H288.25C252.74 949.72 223.91 920.89 223.91 885.38V370.85H223.9Z" fill="#263238"/>
<path opacity="0.2" d="M1277.58 370.85V885.4C1277.58 920.92 1249.07 949.72 1213.95 949.72H287.53C252.41 949.72 223.9 920.92 223.9 885.4V370.85H1277.57H1277.58Z" fill="white"/>
<path d="M1307.26 345.12H190.7C193.16 309.46 222.88 281.27 259.15 281.27H1238.81C1275.08 281.27 1304.81 309.46 1307.26 345.12Z" fill="#4FE89C" stroke="#263238" stroke-width="3.41" stroke-miterlimit="10"/>
<path d="M327.91 313.19C327.91 319.91 322.47 325.35 315.75 325.35C309.03 325.35 303.59 319.91 303.59 313.19C303.59 306.47 309.03 301.03 315.75 301.03C322.47 301.03 327.91 306.47 327.91 313.19Z" fill="#263238"/>
<path d="M379.33 313.19C379.33 319.91 373.89 325.35 367.17 325.35C360.45 325.35 355.01 319.91 355.01 313.19C355.01 306.47 360.45 301.03 367.17 301.03C373.89 301.03 379.33 306.47 379.33 313.19Z" fill="#263238"/>
<path d="M418.59 325.35C425.306 325.35 430.75 319.906 430.75 313.19C430.75 306.474 425.306 301.03 418.59 301.03C411.874 301.03 406.43 306.474 406.43 313.19C406.43 319.906 411.874 325.35 418.59 325.35Z" fill="#263238"/>
<path d="M1277.56 370.87V885.39C1277.56 920.91 1248.76 949.75 1213.2 949.75H288.24C256.98 949.75 230.95 927.43 225.15 897.88L225.12 897.85V897.71C224.33 893.72 223.93 889.59 223.93 885.39V370.87H1277.57H1277.56Z" stroke="#263238" stroke-width="3.41" stroke-miterlimit="10"/>
<path d="M1276.56 450.45C1272.06 447.92 1267.24 445.95 1262.26 444.55L1256.49 418.72H1231.92L1226.19 444.55C1221.17 445.91 1216.36 447.93 1211.86 450.45L1189.68 436.25L1172.31 453.62L1186.27 475.8C1183.71 480.34 1181.73 485.15 1180.37 490.13L1154.54 495.86V520.43L1180.37 526.2C1181.74 531.25 1183.71 536.1 1186.27 540.63L1172.07 562.95L1189.44 580.32L1211.76 566.12C1216.26 568.68 1221.08 570.66 1226.09 572.06L1231.82 597.86H1256.39L1262.16 572.06C1267.14 570.66 1271.95 568.65 1276.46 566.12L1277.59 566.84V449.8L1276.57 450.45H1276.56ZM1244.28 540.03C1226.74 540.03 1212.55 525.83 1212.55 508.29C1212.55 490.75 1226.75 476.55 1244.28 476.55C1261.81 476.55 1276.02 490.78 1276.02 508.29C1276.02 525.8 1261.82 540.03 1244.28 540.03Z" fill="#263238"/>
<path d="M833.9 475.33V423.53L779.44 411.45C776.47 400.94 772.31 390.77 766.98 381.22L773.57 370.85H516.52L522.87 380.95C517.51 390.47 513.35 400.61 510.45 411.15L455.99 423.26V475.06L510.45 487.21C513.35 497.82 517.51 508.06 522.87 517.65L492.94 564.71L529.59 601.32L576.61 571.39C586.16 576.75 596.3 580.94 606.84 583.91L618.92 638.3H670.72L682.9 583.91C693.41 580.94 703.51 576.71 713.03 571.39L760.09 601.32L796.7 564.71L766.98 517.65C772.27 508.1 776.47 497.99 779.44 487.48L833.9 475.33ZM645.2 516.35C608.24 516.35 578.28 486.39 578.28 449.43C578.28 412.47 608.24 382.51 645.2 382.51C682.16 382.51 712.12 412.47 712.12 449.43C712.12 486.39 682.16 516.35 645.2 516.35Z" fill="#263238"/>
<path d="M490.32 831.02L492.5 789.94L449.91 777.93C447.93 769.5 445 761.28 441.17 753.5L466.9 717.36L439.33 686.75L400.77 708.55C393.4 703.94 385.55 700.16 377.29 697.32L369.92 653.64L328.83 651.46L316.95 694.18C308.49 696.06 300.3 698.99 292.52 702.85L256.42 677.12L225.78 704.69L247.62 743.28C242.91 750.62 239.16 758.47 236.36 766.72L223.9 768.77V824.43L232.94 826.99C234.85 835.49 237.79 843.71 241.68 851.49L223.9 876.37L225.09 897.7V897.84L225.12 897.87L243.44 918.21L282.07 896.4C289.44 901.14 297.36 904.97 305.62 907.76L312.65 949.7V949.73L312.99 951.47L354.07 953.65L355.16 949.73V949.7L365.94 910.94C374.47 909.03 382.66 906.13 390.51 902.27L426.54 927.97L457.18 900.43L435.41 861.8C440.05 854.46 443.8 846.62 446.53 838.39L490.28 831.02H490.32ZM381.19 766.83C361.53 744.99 327.89 743.22 306.05 762.87C284.21 782.53 282.44 816.17 302.09 838.01C321.75 859.85 355.39 861.59 377.23 841.93C399.07 822.27 400.84 788.66 381.19 766.82V766.83Z" fill="#263238"/>
<path d="M818.9 769.63C820.5 763.27 821.32 756.73 821.39 750.17L850.93 734.64L842.77 704.67L809.43 706.23C806.06 700.61 802.02 695.4 797.45 690.75L807.33 658.86L780.41 643.44L757.89 668.02C751.55 666.47 745.05 665.65 738.5 665.55L722.91 635.99L692.99 644.13L694.57 677.51C688.95 680.88 683.74 684.92 679.06 689.48L647.15 679.63L631.71 706.51L656.42 728.97C654.82 735.33 654.01 741.83 653.98 748.38L624.39 763.96L632.55 793.93L665.93 792.35C669.26 797.99 673.26 803.19 677.87 807.85L667.94 839.58L694.86 855L717.27 830.63C723.63 832.23 730.13 833.04 736.71 833.08L752.26 862.66L782.18 854.52L780.87 826L780.65 821.11C786.33 817.76 791.58 813.74 796.31 809.13L828.19 819.04L841.36 796.01L843.61 792.11L818.91 769.61L818.9 769.63ZM748.15 787.83C726.77 793.65 704.74 781.03 698.94 759.69C693.12 738.31 705.74 716.28 727.08 710.48C748.46 704.66 770.49 717.28 776.29 738.62C782.11 760 769.49 782.03 748.15 787.83Z" fill="#263238"/>
<path d="M1161.38 822.34L1168.2 781.22L1126.57 764.47C1125.61 755.7 1123.6 747.1 1120.6 738.81L1150.56 705.44L1126.3 671.52L1084.98 689.06C1078.12 683.57 1070.65 678.93 1062.66 675.21L1060.24 630.37L1019.09 623.58L1002.23 665.04C993.49 666.06 984.93 668.08 976.67 671.05L943.19 641.09L909.3 665.35L926.87 706.64C922.02 712.71 917.83 719.2 914.35 726.09C913.87 727.05 913.39 728 912.95 728.96L868.15 731.45L861.33 772.53L868.09 775.26L902.96 789.32C903.92 798.02 905.89 806.62 908.93 814.88L878.97 848.36L903.23 882.25L944.55 864.64C951.37 870.2 958.88 874.88 966.83 878.6L969.15 923.23L1010.27 930.02L1027.09 888.87C1035.86 887.91 1044.46 885.9 1052.72 882.86L1086.13 912.85L1120.05 888.55L1102.48 847.23C1108.08 840.37 1112.82 832.83 1116.57 824.81L1161.37 822.35L1161.38 822.34ZM1046.01 820.5C1021.82 837.8 988.17 832.24 970.87 808.04C953.54 783.88 959.13 750.23 983.29 732.93C1007.48 715.59 1041.13 721.19 1058.43 745.35C1075.76 769.54 1070.17 803.19 1046.01 820.49V820.5Z" fill="#263238"/>
<path d="M603.83 517.77H280.32C257.925 517.77 239.77 535.925 239.77 558.32V1006.24C239.77 1028.64 257.925 1046.79 280.32 1046.79H603.83C626.225 1046.79 644.38 1028.64 644.38 1006.24V558.32C644.38 535.925 626.225 517.77 603.83 517.77Z" fill="#4FE89C" stroke="#263238" stroke-width="3.41" stroke-miterlimit="10"/>
<path opacity="0.2" d="M603.83 517.77H280.32C257.925 517.77 239.77 535.925 239.77 558.32V1006.24C239.77 1028.64 257.925 1046.79 280.32 1046.79H603.83C626.225 1046.79 644.38 1028.64 644.38 1006.24V558.32C644.38 535.925 626.225 517.77 603.83 517.77Z" fill="black"/>
<path d="M682.05 598.28V1046.19C682.05 1068.61 663.9 1086.76 641.48 1086.76H317.99C295.6 1086.76 277.45 1068.61 277.45 1046.19V598.28C277.45 575.89 295.6 557.74 317.99 557.74H641.48C663.9 557.74 682.05 575.89 682.05 598.28Z" fill="white" stroke="#263238" stroke-width="3.41" stroke-linecap="round" stroke-linejoin="round"/>
<path d="M682.05 598.28V622.27H277.44V598.28C277.44 575.89 295.59 557.74 317.98 557.74H641.47C663.89 557.74 682.04 575.89 682.04 598.28H682.05Z" fill="#4FE89C" stroke="#263238" stroke-width="3.41" stroke-miterlimit="10"/>
<path d="M415.03 650.05H315.49V666.75H415.03V650.05Z" fill="#4FE89C"/>
<path d="M415.03 799.74H315.49V816.44H415.03V799.74Z" fill="#4FE89C"/>
<path d="M415.03 935.48H315.49V952.18H415.03V935.48Z" fill="#4FE89C"/>
<path d="M598.2 691.39H315.49V703.64H598.2V691.39Z" fill="#263238"/>
<path d="M547.23 714.83H315.49V726.76H547.23V714.83Z" fill="#263238"/>
<path d="M577.57 737.87H315.49V749.8H577.57V737.87Z" fill="#263238"/>
<path d="M577.57 760.89H315.49V772.82H577.57V760.89Z" fill="#263238"/>
<path d="M598.2 827.13H315.49V839.38H598.2V827.13Z" fill="#263238"/>
<path d="M547.23 850.57H315.49V862.5H547.23V850.57Z" fill="#263238"/>
<path d="M577.57 873.61H315.49V885.54H577.57V873.61Z" fill="#263238"/>
<path d="M598.2 976.19H315.49V988.44H598.2V976.19Z" fill="#263238"/>
<path d="M547.23 999.63H315.49V1011.56H547.23V999.63Z" fill="#263238"/>
<path d="M577.57 1022.67H315.49V1034.6H577.57V1022.67Z" fill="#263238"/>
<path d="M1138.03 247.17V428.2C1138.03 454.92 1116.4 476.55 1089.68 476.55H672.72C646.04 476.55 624.37 454.92 624.37 428.2V247.17C624.37 220.45 646.04 198.78 672.72 198.78H1089.68C1116.4 198.78 1138.03 220.45 1138.03 247.17Z" fill="white" stroke="#222221" stroke-width="3.41" stroke-miterlimit="10"/>
<path d="M1138.03 247.17V251.3H624.37V247.17C624.37 220.45 646.04 198.78 672.72 198.78H1089.68C1116.4 198.78 1138.03 220.45 1138.03 247.17Z" fill="#4FE89C" stroke="#263238" stroke-width="3.41" stroke-miterlimit="10"/>
<path d="M699.82 233.69C696.93 236.58 692.24 236.58 689.35 233.69C686.46 230.8 686.46 226.11 689.35 223.22C692.24 220.33 696.93 220.33 699.82 223.22C702.71 226.11 702.71 230.8 699.82 233.69Z" fill="#263238"/>
<path d="M734.22 233.69C731.33 236.58 726.64 236.58 723.75 233.69C720.86 230.8 720.86 226.11 723.75 223.22C726.64 220.33 731.33 220.33 734.22 223.22C737.11 226.11 737.11 230.8 734.22 233.69Z" fill="#263238"/>
<path d="M768.62 233.69C765.73 236.58 761.04 236.58 758.15 233.69C755.26 230.8 755.26 226.11 758.15 223.22C761.04 220.33 765.73 220.33 768.62 223.22C771.51 226.11 771.51 230.8 768.62 233.69Z" fill="#263238"/>
<path d="M825.03 284.58H657.12V429.72H825.03V284.58Z" stroke="#263238" stroke-width="3.41" stroke-linecap="round" stroke-linejoin="round"/>
<path d="M1044.17 284.58H850.93V294.77H1044.17V284.58Z" fill="#263238"/>
<path d="M999.16 305.72H850.93V315.91H999.16V305.72Z" fill="#263238"/>
<path d="M1071.65 326.74H850.93V337.05H1071.65V326.74Z" fill="#263238"/>
<path d="M1038.88 347.27H850.93V357.58H1038.88V347.27Z" fill="#263238"/>
<path d="M893.95 1299.46C893.95 1299.46 804.24 1325.19 791.72 1329.63C780.32 1333.66 749.44 1344.47 726.27 1341.13C723.98 1340.79 721.77 1340.31 719.65 1339.7C696.17 1332.7 685.63 1326.19 682.56 1311.41C679.45 1296.6 691.16 1285.78 702.42 1278.82C713.68 1271.86 774.76 1264.59 774.76 1264.59L789.5 1268.92H789.53L893.95 1299.46Z" fill="#4FE89C"/>
<path d="M726.27 1341.13C723.98 1340.79 721.77 1340.31 719.65 1339.7C696.17 1332.7 685.63 1326.19 682.56 1311.41C679.45 1296.6 691.16 1285.78 702.42 1278.82C713.68 1271.86 774.76 1264.59 774.76 1264.59L789.5 1268.92C776.16 1275.06 726.41 1278.47 715.55 1284.72C704.7 1290.96 699.44 1302.74 705.86 1318.64C709.27 1327.1 718.42 1335.29 726.27 1341.13Z" fill="white"/>
<path d="M880.45 1303.12C880.45 1303.12 813.08 1320.58 786.36 1331.75C759.65 1342.92 708.67 1347.81 690.52 1324.77C672.36 1301.73 688.43 1281.9 706.58 1277.5C724.74 1273.1 761.45 1266.11 781.5 1268.91" stroke="#263238" stroke-width="3.41" stroke-linecap="round" stroke-linejoin="round"/>
<path d="M727.62 1339.9C727.62 1339.9 693.34 1321.1 704.72 1294.76C713.12 1275.32 758.85 1279.53 781.5 1268.91" stroke="#263238" stroke-width="3.41" stroke-linecap="round" stroke-linejoin="round"/>
<path d="M1167.18 1345.29C1166.26 1354.47 1163.02 1363.27 1153.74 1368.73C1147.56 1372.38 1138.76 1374.56 1126.17 1374.43C1094.71 1374.02 1035.57 1351.53 1035.57 1351.53L980.19 1320.92L1008.99 1275.33L1016.87 1262.84L1037.24 1267.41C1037.24 1267.41 1054.1 1276.96 1071.06 1284.57C1088.02 1292.18 1129.17 1293.78 1143.68 1305.52C1158.18 1317.22 1168.76 1329.99 1167.19 1345.27L1167.18 1345.29Z" fill="#4FE89C"/>
<path d="M1167.18 1345.29C1166.26 1354.47 1163.02 1363.27 1153.74 1368.73C1155.48 1361.6 1156.91 1351.74 1152.17 1341.09C1146.03 1327.2 1125.86 1314.95 1099.38 1312.9C1072.93 1310.85 1052.63 1298.47 1042.02 1292.94C1033.73 1288.64 1016.26 1279.26 1008.99 1275.33L1016.87 1262.84L1037.24 1267.41C1037.24 1267.41 1054.1 1276.96 1071.06 1284.57C1088.02 1292.18 1129.17 1293.78 1143.68 1305.52C1158.18 1317.22 1168.76 1329.99 1167.19 1345.27L1167.18 1345.29Z" fill="white"/>
<path d="M992.45 1329.51C1031.87 1352.1 1076.97 1368.36 1122.08 1373.79C1132.15 1375 1143.87 1375.17 1150.62 1367.6C1154.38 1363.38 1155.76 1357.41 1155.27 1351.78C1154.05 1337.56 1142.1 1326.29 1128.99 1320.65C1115.88 1315.02 1101.4 1313.67 1087.48 1310.55C1073.62 1307.44 1060.16 1302.52 1047.56 1295.95C1037.55 1290.73 1027.86 1284.38 1016.81 1282.05C1005.76 1279.71 992.61 1282.55 986.72 1292.18" stroke="#263238" stroke-width="3.41" stroke-linecap="round" stroke-linejoin="round"/>
<path d="M1146.93 1371.46C1157.12 1366.23 1165.49 1356.62 1167.19 1345.29C1169.2 1331.89 1161.57 1318.42 1150.81 1310.17C1140.06 1301.93 1126.62 1298.06 1113.35 1295.3C1100.08 1292.54 1086.51 1290.69 1073.89 1285.76C1054.48 1278.18 1035.34 1263.2 1015.21 1268.54" stroke="#263238" stroke-width="3.41" stroke-linecap="round" stroke-linejoin="round"/>
<path d="M1054.95 850.29L961.25 814.63L960.09 814.19C960.09 814.19 960.43 811.7 960.7 808.08C961.28 800.61 961.59 788.42 958.07 784.3C952.85 778.19 938.04 783.31 923.6 776.69C909.17 770.07 882.45 781.91 882.45 781.91C882.45 781.91 863.17 778.36 854.67 792.28C850.34 803.51 851.84 820.23 851.84 820.23C851.84 820.23 851.23 820.47 850.07 820.88C838.91 825.04 778.17 847.91 765.31 857.09C751.11 867.16 735.42 970.38 730.37 1000.68C725.32 1031.02 716.35 1058.31 720.92 1068.76C725.46 1079.17 790.74 1129.43 828.27 1142.4C865.81 1155.4 998.99 1151.58 998.99 1151.58C998.99 1151.58 1001.17 1151 1005.03 1149.77C1027.55 1142.54 1107.47 1112.75 1149.85 1042.49C1149.85 1042.49 1108.8 907.84 1054.95 850.31V850.29ZM801.79 1023.91C794.9 1028.79 798.58 1047.73 798.58 1047.73L786.84 1037.39L816.29 964.98L828.85 1020.57C828.85 1020.57 808.68 1019.07 801.79 1023.91ZM1037.38 1069.91C1034.14 1071.58 1046.7 1036.78 1040.72 1028.89C1034.75 1020.97 1016.87 1021.76 1016.87 1021.76L1018.41 1012.24C1018.61 1011.18 1029.02 957.81 1029.02 957.81L1032.53 953.61C1032.53 953.61 1068.97 1016.09 1075.49 1038.1C1075.49 1038.1 1035.77 1069.9 1037.37 1069.9L1037.38 1069.91Z" fill="#4FE89C"/>
<path d="M878.03 624.44L829.67 675.79C829.67 675.79 823 681.69 825.65 696.58C828.3 711.48 834.47 724.27 839.14 725.26C843.8 726.25 850.34 726.26 850.34 726.26C850.34 726.26 860.7 748.72 868.04 757.55C868.04 757.55 870.6 792.22 869.24 801.84C869.24 801.84 886.61 817.02 902.98 818.95C919.35 820.88 944.63 795.8 944.63 795.8L950.9 765.1C950.9 765.1 965.74 742.58 966.75 736.58C967.76 730.58 974.54 732.12 977.88 729.17C981.21 726.21 988.93 712.99 990.2 700.49C991.47 687.99 991.56 673.64 977.05 677.85C964.47 674.47 972.34 647.88 972.34 647.88L950.24 628.38L878.05 624.45L878.03 624.44Z" fill="white"/>
<path opacity="0.5" d="M961.24 814.63C960.49 816.61 959.67 818.49 958.75 820.23C950.77 835.28 915.99 863.94 915.99 863.94L905.48 831.62L899.71 863.94C888.11 858.89 852.72 828.21 852.72 828.21C852.72 828.21 851.53 825.34 850.06 820.87C851.22 820.46 851.83 820.22 851.83 820.22C851.83 820.22 850.33 803.5 854.66 792.27C863.16 778.35 882.44 781.9 882.44 781.9C882.44 781.9 909.16 770.06 923.59 776.68C938.02 783.3 952.83 778.18 958.06 784.29C963.28 790.4 960.07 814.18 960.07 814.18L961.23 814.62L961.24 814.63Z" fill="white"/>
<path opacity="0.2" d="M1054.95 850.29L961.25 814.63L960.09 814.19C960.09 814.19 960.43 811.7 960.7 808.08L958.75 820.23L944.9 839.07C944.9 839.07 968.33 847.52 988.14 858.13C1001.91 865.5 1009.82 880.49 1008.01 896.01L990.74 1043.71L983.68 1127.59L1005.04 1149.77C1027.56 1142.54 1107.48 1112.75 1149.86 1042.49C1149.86 1042.49 1108.81 907.84 1054.96 850.31L1054.95 850.29ZM1037.38 1069.91C1034.14 1071.58 1046.7 1036.78 1040.72 1028.89C1034.75 1020.97 1016.87 1021.76 1016.87 1021.76L1018.41 1012.24C1018.61 1011.18 1029.02 957.81 1029.02 957.81L1032.53 953.61C1032.53 953.61 1068.97 1016.09 1075.49 1038.1C1075.49 1038.1 1035.77 1069.9 1037.37 1069.9L1037.38 1069.91Z" fill="black"/>
<path opacity="0.2" d="M835.19 1028.89L820.62 980.2C820.62 980.2 794.5 891.1 776.58 869.12L781.29 931.78C781.29 931.78 765.92 1006.64 751.69 1028.89C737.46 1051.1 734.39 1056.67 751.69 1056.67C768.99 1056.67 811.07 1090.21 811.07 1090.21L807.83 1062.23L835.2 1028.89H835.19ZM798.58 1047.73L786.84 1037.39L816.29 964.98L828.85 1020.57C828.85 1020.57 808.68 1019.07 801.79 1023.91C794.9 1028.79 798.58 1047.73 798.58 1047.73Z" fill="black"/>
<path d="M868.03 757.55C868.03 757.55 870.72 783.81 868.03 795.8" stroke="#263238" stroke-width="3.41" stroke-linecap="round" stroke-linejoin="round"/>
<path d="M947.3 792.29C947.3 792.29 947.15 779.5 950.22 767.2" stroke="#263238" stroke-width="3.41" stroke-linecap="round" stroke-linejoin="round"/>
<path d="M954.33 644.02C954.33 644.02 970.22 663.98 969.4 679.05C968.59 694.12 967.36 712.04 967.77 729.56C968.18 747.07 939.66 783.73 925 786.99C910.34 790.25 897.71 791.06 888.34 781.69C878.97 772.32 869.6 759.29 857.38 742.59C845.16 725.89 848.01 689.23 848.01 689.23" stroke="#263238" stroke-width="3.41" stroke-linecap="round" stroke-linejoin="round"/>
<path d="M916.09 703.2C915.12 708.67 914.7 714.25 914.85 719.8C914.97 724.45 915.66 729.48 918.92 732.8C920.68 734.59 923.23 736.02 923.56 738.51C923.86 740.71 922.17 742.72 920.3 743.92C918.43 745.12 916.25 745.86 914.57 747.32" stroke="#263238" stroke-width="3.41" stroke-linecap="round" stroke-linejoin="round"/>
<path d="M890.87 749.26C890.87 749.26 892.71 761.1 908.58 763.58" stroke="#263238" stroke-width="3.41" stroke-linecap="round" stroke-linejoin="round"/>
<path d="M892.52 712.23C892.52 715.65 891.04 718.43 889.22 718.43C887.4 718.43 885.92 715.66 885.92 712.23C885.92 708.8 887.4 706.03 889.22 706.03C891.04 706.03 892.52 708.8 892.52 712.23Z" fill="#263238"/>
<path d="M939.88 713.72C939.88 717.14 938.4 719.91 936.58 719.91C934.76 719.91 933.28 717.14 933.28 713.72C933.28 710.3 934.76 707.52 936.58 707.52C938.4 707.52 939.88 710.29 939.88 713.72Z" fill="#263238"/>
<path d="M930.32 698.72C930.32 698.72 945.72 683.32 958.75 700.5" stroke="#263238" stroke-width="6.82" stroke-linecap="round" stroke-linejoin="round"/>
<path d="M897.75 699.01C897.75 699.01 887.98 688.05 872.58 699.01" stroke="#263238" stroke-width="6.82" stroke-linecap="round" stroke-linejoin="round"/>
<path d="M869.23 771.98C869.23 771.98 878.66 797.98 899.72 805.35C920.78 812.72 948.75 774.46 948.75 774.46L947.29 769.48C947.29 769.48 928.96 793.29 908.58 789.23C888.19 785.17 868.03 757.55 868.03 757.55L869.23 771.98Z" fill="#263238"/>
<path d="M850.33 725.26C850.33 725.26 837.77 729.69 834.43 719.91C831.09 710.13 819.65 684.37 829.66 675.79C839.68 667.21 847.72 687.12 847.72 687.12" stroke="#263238" stroke-width="3.41" stroke-linecap="round" stroke-linejoin="round"/>
<path d="M967.75 730.6C967.75 730.6 979.42 732.95 982.76 723.16C986.1 713.38 997.54 687.62 987.53 679.04C977.51 670.46 969.47 690.37 969.47 690.37" stroke="#263238" stroke-width="3.41" stroke-linecap="round" stroke-linejoin="round"/>
<path d="M847.73 712.23C851.21 712.07 856.92 708.68 858.75 705.72C860.58 702.76 861.36 699.28 861.95 695.85C863.09 689.28 863.67 682.61 863.7 675.95C863.7 673.34 863.64 670.69 864.4 668.19C865.19 665.6 866.84 663.35 868.6 661.29C872.98 656.15 878.26 651.82 882.43 646.5C886.6 641.18 889.66 634.46 888.53 627.81C888.53 627.81 917 653.84 958.05 645.79C980.15 641.46 1001.36 622.06 998.78 597.69C997.86 589.01 991.49 582.78 983.21 580.72C972.29 578 962.47 583.83 952.57 587.56C934.53 594.36 916.87 582.68 898.64 580.72C883.05 579.04 863.92 580.98 855.8 596.48C855.8 596.48 827.8 599.77 815.53 622.77C803.26 645.77 826.58 677.61 826.58 677.61C826.58 677.61 835.97 666.25 848.02 689.25L847.73 712.25V712.23Z" fill="#263238"/>
<path d="M956.09 638.14C956.09 638.14 948.85 675.88 967.74 694.15C967.74 694.15 971.88 682.81 976.07 680.04C976.07 680.04 986.59 660.1 972.76 638.14C958.93 616.18 956.09 638.14 956.09 638.14Z" fill="#263238"/>
<path opacity="0.2" d="M990.71 595.19C987.91 605.59 979.12 613.64 969.15 617.7C942.92 628.39 917.44 616.54 891.18 614.21C869.71 612.31 846.05 631.65 844.55 653.69" stroke="white" stroke-width="3.41" stroke-linecap="round" stroke-linejoin="round"/>
<path opacity="0.2" d="M828.25 647.88C828.64 630.53 840.11 613.93 856.19 607.41" stroke="white" stroke-width="3.41" stroke-linecap="round" stroke-linejoin="round"/>
<path d="M861.98 792.29C861.98 792.29 879.26 811.33 902.83 820.24C902.83 820.24 934.23 811.13 950.22 789.24" stroke="#263238" stroke-width="3.41" stroke-linecap="round" stroke-linejoin="round"/>
<path d="M894.055 737.421C908.005 731.022 914.127 714.525 907.728 700.575C901.329 686.624 884.833 680.503 870.882 686.901C856.932 693.3 850.81 709.797 857.209 723.747C863.608 737.698 880.104 743.819 894.055 737.421Z" stroke="#263238" stroke-width="3.41" stroke-linecap="round" stroke-linejoin="round"/>
<path d="M947.895 739.864C963.129 737.993 973.962 724.128 972.092 708.894C970.221 693.66 956.355 682.827 941.122 684.698C925.888 686.568 915.055 700.434 916.926 715.667C918.796 730.901 932.662 741.734 947.895 739.864Z" stroke="#263238" stroke-width="3.41" stroke-linecap="round" stroke-linejoin="round"/>
<path d="M868.03 781.92C868.03 781.92 859.58 783.63 854.66 792.28C849.74 800.93 852.71 828.19 852.71 828.19C852.71 828.19 878.1 853.32 899.72 863.92L906.1 828.06L916 863.92C916 863.92 949.48 840.24 958.75 820.23C958.75 820.23 961.77 796.89 958.75 789.23C955.73 781.57 948.76 781.92 948.76 781.92" stroke="#263238" stroke-width="3.41" stroke-linecap="round" stroke-linejoin="round"/>
<path d="M828.25 1021.77C828.25 1021.77 818.34 955.28 805.13 928.15" stroke="#263238" stroke-width="3.41" stroke-linecap="round" stroke-linejoin="round"/>
<path d="M776.58 869.12C776.58 869.12 789.13 886.7 797.12 903.49" stroke="#263238" stroke-width="3.41" stroke-linecap="round" stroke-linejoin="round"/>
<path d="M1037.37 918.76C1040.86 905.51 1044.57 893.89 1048.28 886.3" stroke="#263238" stroke-width="3.41" stroke-linecap="round" stroke-linejoin="round"/>
<path d="M1016.86 1021.77C1016.86 1021.77 1024.02 976.19 1032.54 938.62" stroke="#263238" stroke-width="3.41" stroke-linecap="round" stroke-linejoin="round"/>
<path d="M1029 957.8C1035.82 948.7 1045.71 941.94 1056.66 938.88" stroke="#263238" stroke-width="3.41" stroke-linecap="round" stroke-linejoin="round"/>
<path d="M960.09 814.18C960.09 814.18 1017.75 837.21 1054.96 850.29C1054.96 850.29 1100.74 893.35 1149.83 1042.47C1149.83 1042.47 1104.83 1118.14 1019.29 1142.39" stroke="#263238" stroke-width="3.41" stroke-linecap="round" stroke-linejoin="round"/>
<path d="M1034.15 1072.62L1075.49 1038.11C1075.49 1038.11 1097.36 1021.49 1120.1 1032.86" stroke="#263238" stroke-width="3.41" stroke-linecap="round" stroke-linejoin="round"/>
<path d="M1032.54 953.63C1032.54 953.63 1066.73 1004 1075.48 1038.11" stroke="#263238" stroke-width="3.41" stroke-linecap="round" stroke-linejoin="round"/>
<path d="M798.95 1049.64L786.85 1038.11C786.85 1038.11 768.89 1034.97 748.56 1048.6" stroke="#263238" stroke-width="3.41" stroke-linecap="round" stroke-linejoin="round"/>
<path d="M786.85 1038.11C786.85 1038.11 801.88 988.76 816.7 963.28" stroke="#263238" stroke-width="3.41" stroke-linecap="round" stroke-linejoin="round"/>
<path d="M851.83 820.23C851.83 820.23 768.89 851.35 760.76 860.41C752.63 869.47 721.72 1043.53 720.91 1063.45C720.18 1081.26 784.78 1121.26 816.7 1138.13" stroke="#263238" stroke-width="3.41" stroke-linecap="round" stroke-linejoin="round"/>
<path d="M1057.58 696.43H1152.09C1163.24 696.43 1172.3 705.48 1172.3 716.64V772.08C1172.3 783.23 1163.25 792.29 1152.09 792.29H1057.58C1046.43 792.29 1037.37 783.24 1037.37 772.08V716.64C1037.37 705.49 1046.42 696.43 1057.58 696.43Z" fill="white" stroke="#263238" stroke-width="3.41" stroke-linecap="round" stroke-linejoin="round"/>
<path d="M1080.91 725.26L1054.96 741.55L1079.04 762.9" stroke="#263238" stroke-width="3.41" stroke-linecap="round" stroke-linejoin="round"/>
<path d="M1128.18 764.45L1151.5 744.58L1124.58 726.94" stroke="#263238" stroke-width="3.41" stroke-linecap="round" stroke-linejoin="round"/>
<path d="M1093.52 776.68L1112.67 716.62" stroke="#263238" stroke-width="3.41" stroke-linecap="round" stroke-linejoin="round"/>
<path d="M913.85 879.04C913.85 882.05 911.41 884.49 908.4 884.49C905.39 884.49 902.95 882.05 902.95 879.04C902.95 876.03 905.39 873.59 908.4 873.59C911.41 873.59 913.85 876.03 913.85 879.04Z" fill="#263238"/>
<path d="M1009.82 1170.5H821.07C818.63 1170.5 816.65 1168.52 816.65 1166.08C816.65 1163.64 818.63 1161.65 821.07 1161.65H1009.82C1012.26 1161.65 1014.24 1163.63 1014.24 1166.08C1014.24 1168.52 1012.26 1170.5 1009.82 1170.5Z" fill="#263238"/>
<path d="M1016.43 1155.83L1041.72 1037.05C1043.39 1029.19 1037.4 1021.78 1029.36 1021.78H808.83C800.87 1021.78 794.89 1029.06 796.43 1036.87L819.11 1151.7C820.26 1157.52 825.29 1161.75 831.22 1161.89L1003.78 1165.84C1009.85 1165.98 1015.17 1161.78 1016.43 1155.84V1155.83Z" fill="white" stroke="#263238" stroke-width="3.41" stroke-linecap="round" stroke-linejoin="round"/>
<path d="M935.95 1090.23C935.95 1099.95 928.07 1107.84 918.34 1107.84C908.61 1107.84 900.73 1099.96 900.73 1090.23C900.73 1080.5 908.61 1072.62 918.34 1072.62C928.07 1072.62 935.95 1080.5 935.95 1090.23Z" fill="#263238"/>
<path d="M970.55 1033.04H996.75" stroke="#263238" stroke-width="3.41" stroke-linecap="round" stroke-linejoin="round"/>
<path d="M845.42 1033.04H944.88" stroke="#263238" stroke-width="3.41" stroke-linecap="round" stroke-linejoin="round"/>
<path d="M1016.86 1281.84L996.75 1334.61C996.75 1334.61 945.49 1321.69 879.8 1308.23C811.11 1294.15 739.37 1275.93 702.16 1210.65C697.62 1202.69 694.61 1193.29 696.73 1184.37C702.1 1161.82 731.44 1155.7 750.77 1153.44C762.91 1152.02 775.16 1151.55 787.37 1151.38C793.6 1151.29 814.13 1148.03 819.1 1151.69C819.1 1151.69 831.99 1161.17 842.97 1165.83C853.95 1170.49 1014.25 1161.64 1014.25 1161.64C1014.25 1161.64 1019.02 1151.58 1019.29 1142.39C1044.49 1129.58 1102.83 1118.73 1127.49 1123.53C1166.26 1131.07 1188.87 1153.68 1184.57 1177.37C1180.26 1201.06 1094.71 1264.6 1016.87 1281.83L1016.86 1281.84Z" fill="#263238"/>
<path d="M1016.86 1281.84C1016.86 1281.84 968.1 1268.92 928.26 1241.99C888.41 1215.07 857.29 1183.84 801.77 1190.3" stroke="white" stroke-width="3.41" stroke-linecap="round" stroke-linejoin="round"/>
<path d="M919.09 1235.65C944.26 1228.41 962.73 1212.13 982.92 1196.5C1004.31 1179.94 1026.93 1163.9 1051.26 1151.59" stroke="white" stroke-width="3.41" stroke-linecap="round" stroke-linejoin="round"/>
<path d="M910.24 716.62H917.63" stroke="#263238" stroke-width="3.41" stroke-linecap="round" stroke-linejoin="round"/>
</svg>
