<svg width="580" height="131" viewBox="0 0 580 131" fill="none" xmlns="http://www.w3.org/2000/svg">
<path d="M75.4749 42.791V104.35H68.0312C66.9397 104.35 66.0092 104.171 65.2577 103.814C64.5062 103.456 63.7725 102.848 63.0389 101.972L33.9798 65.2589C34.0872 66.3492 34.1767 67.4217 34.2125 68.4405C34.2483 69.4772 34.284 70.4424 34.284 71.3361V104.332H21.687V42.791H29.2202C29.8464 42.791 30.3654 42.8268 30.7948 42.8804C31.2242 42.934 31.6 43.0413 31.94 43.2021C32.28 43.363 32.602 43.5775 32.9062 43.8635C33.2104 44.1495 33.5683 44.5248 33.962 45.0074L63.2715 81.9713C63.1284 80.7916 63.0389 79.6476 62.9673 78.5215C62.9136 77.4133 62.8779 76.3588 62.8779 75.3757V42.791H75.4749Z" fill="#2F2F2D"/>
<path d="M106.86 53.7836V68.1545H126.239V78.7182H106.86V93.375H132.162V104.368H92.4917V42.791H132.162V53.7836H106.86Z" fill="#2F2F2D"/>
<path d="M152.882 103.85H140.419L159.783 72.924L159.951 72.656L159.781 72.3895L141.198 43.2908H154.582C155.479 43.2908 156.063 43.4136 156.406 43.5901C156.731 43.7676 157.065 44.1009 157.375 44.604L169.647 65.3524L170.175 66.245L170.545 65.276C170.679 64.9242 170.831 64.6033 171.003 64.2763C171.174 63.9514 171.381 63.6064 171.598 63.2461L171.598 63.2461L171.601 63.2404L182.333 44.8195C182.701 44.2371 183.063 43.856 183.427 43.6232L183.427 43.6233L183.435 43.6181C183.762 43.4003 184.213 43.2729 184.786 43.2729H197.563L178.75 71.7755L178.575 72.0407L178.741 72.3119L198.052 103.867H184.607C183.764 103.867 183.126 103.659 182.639 103.292C182.119 102.885 181.701 102.401 181.396 101.841L181.396 101.841L181.391 101.831L169.044 80.2747L168.514 79.3485L168.142 80.349C167.917 80.9533 167.679 81.4602 167.43 81.8745L167.43 81.8744L167.426 81.8821L155.93 101.812C155.564 102.342 155.131 102.823 154.63 103.257L154.63 103.257L154.623 103.263C154.197 103.646 153.627 103.85 152.882 103.85Z" fill="white" stroke="white"/>
<path d="M235.192 93.0889C237.107 93.0889 238.825 92.7672 240.328 92.1416C241.831 91.516 243.119 90.6044 244.157 89.4247C245.195 88.245 246 86.7972 246.555 85.0991C247.109 83.4011 247.378 81.4528 247.378 79.29V42.8267H261.675V79.29C261.675 83.0615 261.066 86.5291 259.832 89.6928C258.597 92.8565 256.843 95.5734 254.571 97.8434C252.281 100.131 249.507 101.901 246.233 103.17C242.958 104.439 239.272 105.065 235.192 105.065C231.113 105.065 227.373 104.421 224.116 103.17C220.842 101.901 218.068 100.131 215.778 97.8434C213.488 95.5556 211.752 92.8387 210.535 89.6928C209.318 86.5291 208.71 83.0794 208.71 79.29V42.8267H223.007V79.2543C223.007 81.4171 223.275 83.3653 223.83 85.0634C224.385 86.7614 225.172 88.2271 226.228 89.4247C227.266 90.6223 228.554 91.5339 230.057 92.1773C231.56 92.8208 233.278 93.1247 235.192 93.1247V93.0889Z" fill="#2F2F2D"/>
<path d="M311.973 55.303C311.544 55.9822 311.114 56.4827 310.631 56.8223C310.166 57.1619 309.558 57.3227 308.842 57.3227C308.198 57.3227 307.5 57.1261 306.748 56.715C305.997 56.3039 305.156 55.8571 304.207 55.3387C303.259 54.8382 302.186 54.3735 300.969 53.9624C299.752 53.5513 298.374 53.3547 296.817 53.3547C294.133 53.3547 292.147 53.9266 290.823 55.0706C289.517 56.2145 288.855 57.7517 288.855 59.7C288.855 60.9333 289.249 61.97 290.036 62.7922C290.823 63.6145 291.861 64.3116 293.149 64.9014C294.438 65.4913 295.905 66.0275 297.551 66.528C299.197 67.0284 300.879 67.5647 302.615 68.1724C304.351 68.7801 306.015 69.4951 307.679 70.2994C309.325 71.1216 310.792 72.1583 312.081 73.4274C313.369 74.6965 314.407 76.2336 315.194 78.0568C315.981 79.88 316.375 82.0606 316.375 84.6345C316.375 87.4765 315.874 90.1398 314.89 92.6243C313.906 95.1088 312.474 97.2716 310.595 99.1126C308.717 100.954 306.408 102.401 303.653 103.474C300.897 104.528 297.784 105.065 294.277 105.065C292.362 105.065 290.412 104.868 288.425 104.475C286.439 104.082 284.507 103.528 282.646 102.813C280.785 102.098 279.031 101.24 277.403 100.257C275.775 99.2735 274.343 98.1653 273.126 96.9677L277.349 90.2828C277.689 89.8002 278.137 89.4069 278.673 89.0852C279.228 88.7635 279.819 88.6026 280.463 88.6026C281.304 88.6026 282.163 88.8707 283.022 89.4069C283.88 89.9432 284.847 90.533 285.938 91.1765C287.03 91.8199 288.264 92.4098 289.678 92.946C291.092 93.4822 292.756 93.7504 294.67 93.7504C297.265 93.7504 299.287 93.1784 300.718 92.0344C302.15 90.8905 302.883 89.0852 302.883 86.6007C302.883 85.1707 302.49 83.991 301.702 83.0973C300.915 82.2036 299.877 81.4529 298.589 80.8631C297.301 80.2732 295.851 79.7549 294.205 79.308C292.577 78.8611 290.895 78.3607 289.177 77.8066C287.459 77.2525 285.777 76.5733 284.149 75.7868C282.521 74.9825 281.053 73.9279 279.765 72.6231C278.477 71.3182 277.439 69.6738 276.651 67.7255C275.864 65.7772 275.471 63.3463 275.471 60.4865C275.471 58.1807 275.936 55.9286 276.866 53.73C277.797 51.5315 279.157 49.5832 280.964 47.8494C282.771 46.1335 284.99 44.7572 287.602 43.7384C290.233 42.7195 293.221 42.2012 296.621 42.2012C298.517 42.2012 300.342 42.3442 302.132 42.648C303.921 42.9519 305.621 43.3809 307.231 43.9528C308.842 44.5248 310.345 45.2219 311.741 46.0262C313.136 46.8306 314.389 47.7422 315.48 48.7431L311.92 55.3745L311.973 55.303Z" fill="#2F2F2D"/>
<path d="M368.857 104.368H354.47V42.791H368.857V104.35V104.368Z" fill="#2F2F2D"/>
<path d="M430.16 54.1234H412.821V104.368H398.524V54.1234H381.185V42.8091H430.178V54.1234H430.16Z" fill="#2F2F2D"/>
<g filter="url(#filter0_d_12_963)">
<path d="M556.276 105.112H522.977L459.193 41.4222V8.17346L556.276 105.112Z" fill="#2F2F2D"/>
<path d="M522.977 105.112H491.911L459.193 72.7139V41.4222L522.977 105.112Z" fill="white"/>
<path d="M556.276 40.7237V71.4654L492.849 8.10938H523.472L556.276 40.7237Z" fill="white"/>
</g>
<path d="M556.148 71.6396V104.85L459.487 8.29346H492.733L556.148 71.6396Z" fill="#4FE89C"/>
<path d="M459.165 105.225L458.968 89.7104V72.6763L475.537 88.8882L491.785 105.225H474.714H459.165Z" fill="#4FE89C"/>
<path d="M555.951 8.29346L556.148 23.8083V40.8424L539.596 24.6483L523.331 8.29346H540.419H555.951Z" fill="#2F2F2D"/>
<defs>
<filter id="filter0_d_12_963" x="455.193" y="8.10938" width="105.083" height="105.002" filterUnits="userSpaceOnUse" color-interpolation-filters="sRGB">
<feFlood flood-opacity="0" result="BackgroundImageFix"/>
<feColorMatrix in="SourceAlpha" type="matrix" values="0 0 0 0 0 0 0 0 0 0 0 0 0 0 0 0 0 0 127 0" result="hardAlpha"/>
<feOffset dy="4"/>
<feGaussianBlur stdDeviation="2"/>
<feComposite in2="hardAlpha" operator="out"/>
<feColorMatrix type="matrix" values="0 0 0 0 0 0 0 0 0 0 0 0 0 0 0 0 0 0 0.25 0"/>
<feBlend mode="normal" in2="BackgroundImageFix" result="effect1_dropShadow_12_963"/>
<feBlend mode="normal" in="SourceGraphic" in2="effect1_dropShadow_12_963" result="shape"/>
</filter>
</defs>
</svg>
