<svg width="576" height="582" viewBox="0 0 576 582" fill="none" xmlns="http://www.w3.org/2000/svg">
<path d="M204.48 231.79C204.48 244.65 207.47 256.84 212.79 267.67C201.35 282.33 194.23 300.52 193.27 320.34C171.3 297.28 157.79 266.09 157.79 231.82C157.79 152.19 230.67 89.2501 313.24 106.2C361.84 116.19 401.23 155.34 411.59 203.87C414.72 218.53 415.3 232.89 413.71 246.61C412.36 258.24 402.15 266.83 390.44 266.83H389.39C375.57 266.83 365.86 254.53 367.38 240.8C368.41 231.58 367.87 221.89 365.51 212.02C358.55 182.77 334.7 159.07 305.4 152.33C252.03 140.07 204.46 180.51 204.46 231.82L204.48 231.8V231.79ZM113.67 201.56C120.07 164.37 138.25 130.48 166.45 104.03C202.14 70.5801 248.88 54.0501 297.88 57.0801C390.16 63.0601 462.32 143.9 461.25 240.68C460.81 281.21 426.86 313.47 386.36 313.47H330.19C324.49 294.12 306.8 279.88 285.6 279.88C259.8 279.88 238.91 300.77 238.91 326.57C238.91 352.37 259.8 373.26 285.6 373.26C298.16 373.26 309.53 368.24 317.91 360.16H386.36C452.17 360.16 507 307.75 507.94 241.97C509.67 120.09 418.11 18.0701 300.9 10.5101C238.71 6.47011 179.72 27.6001 134.55 69.9901C99.56 102.79 76.28 146.21 67.9 192.92C65.36 207.11 76.58 220.14 90.99 220.14C102.01 220.14 111.84 212.46 113.68 201.58V201.56H113.67ZM286.19 406.88C199.93 406.88 125.3 460.39 100.48 539.99C96.63 552.29 103.51 565.39 115.82 569.24C128.1 572.95 141.2 566.18 145.05 553.9C163.47 494.84 221.48 453.57 286.17 453.57C350.86 453.57 408.89 494.84 427.29 553.9C430.42 563.89 439.62 570.29 449.58 570.29C451.89 570.29 454.2 569.94 456.54 569.24C468.84 565.39 475.71 552.29 471.88 539.99C447.06 460.39 372.43 406.88 286.17 406.88H286.19Z" fill="#4FE89C"/>
</svg>
