<svg width="576" height="582" viewBox="0 0 576 582" fill="none" xmlns="http://www.w3.org/2000/svg">
<path d="M288.94 177.81C241.96 177.81 203.76 216.02 203.76 262.99C203.76 309.96 241.97 348.17 288.94 348.17C335.91 348.17 374.12 309.96 374.12 262.99C374.12 216.02 335.91 177.81 288.94 177.81ZM288.94 305.59C265.45 305.59 246.35 286.49 246.35 263C246.35 239.51 265.45 220.41 288.94 220.41C312.43 220.41 331.53 239.51 331.53 263C331.53 286.49 312.43 305.59 288.94 305.59ZM544.47 444.12C543.38 434.13 538.87 424.7 531.73 417.5L460.09 345.88C460.18 346.26 460.13 346.07 460.09 345.88C460.07 345.75 460.03 345.6 460.03 345.67C458.75 339.62 461.16 330.83 466.82 327.18C477.45 320.32 486.05 311.02 492.4 299.56C498.47 288.59 501.66 276.03 501.6 263.34C501.66 250.48 498.49 237.89 492.4 226.94C486.05 215.48 477.45 206.18 466.8 199.32C461.09 195.64 458.18 189.1 459.56 183.03C462.41 170.4 461.99 157.47 458.28 144.59C451.27 120.14 431.72 100.61 407.28 93.6101C394.4 89.9301 381.47 89.4601 368.86 92.3501C362.79 93.6901 356.27 90.8001 352.59 85.1101C345.75 74.4801 336.45 65.8801 324.97 59.5101C302.74 47.1601 275.09 47.1601 252.84 59.5101C241.36 65.8801 232.08 74.4801 225.24 85.0901C221.56 90.8001 215.06 93.7101 208.95 92.3501C196.36 89.4801 183.44 89.9001 170.55 93.6101C146.1 100.62 126.55 120.17 119.55 144.59C115.84 157.5 115.42 170.42 118.27 183.03C119.63 189.08 116.74 195.62 111.01 199.32C100.38 206.2 91.78 215.48 85.43 226.94C79.36 237.91 76.17 250.47 76.23 263.16C76.17 276.02 79.34 288.61 85.41 299.56C91.76 311.02 100.38 320.32 111.03 327.2C116.67 330.84 118.99 340.02 117.74 346.07C117.74 346.11 117.74 346.18 117.7 346.3C117.64 346.56 117.59 346.77 117.7 346.3L46.42 417.58C39.35 424.71 34.86 434.15 33.75 444.12C31.07 468.53 48.74 490.59 73.17 493.31L98.73 496.14L101.52 521.29C102.54 531.47 107.08 541.07 114.34 548.34C119.07 553.07 124.88 556.71 130.97 558.82C135.87 560.59 140.94 561.42 145.98 561.42C157.67 561.42 169.11 556.84 177.39 548.37L256.74 469C266.86 473.83 277.91 476.26 288.96 476.26C300.01 476.26 311.21 473.79 321.39 468.87L400.68 548.16C409.11 556.78 420.63 561.43 432.33 561.43C437.29 561.43 442.3 560.6 447.11 558.87C453.39 556.68 459.21 553.06 463.93 548.31C471.19 541.03 475.73 531.42 476.69 521.54L479.52 496.15L505.08 493.32C529.49 490.62 547.18 468.55 544.5 444.15L544.48 444.13L544.47 444.12ZM145.31 518.68L143.97 516.83L137.3 457.54L77.86 450.94C76.77 450.83 75.96 449.83 76.58 447.62L126.31 397.89C135.83 414.65 151.74 427.47 170.56 432.86C183.44 436.54 196.39 436.99 208.98 434.12C214.69 432.8 220.86 435.36 224.63 440.47L145.3 518.67V518.69L145.31 518.68ZM316.83 418.29C313.83 422.95 309.63 426.79 304.35 429.73C295 434.9 282.88 434.9 273.51 429.73C268.25 426.81 264.05 422.96 261.05 418.29C250.02 401.23 231.3 391.22 211.92 391.22C207.81 391.22 203.66 391.67 199.55 392.6C194.01 393.84 188.2 393.62 182.28 391.92C171.99 388.98 163.43 380.42 160.49 370.13C158.79 364.21 158.57 358.4 159.83 352.86C165.15 329.43 154.83 304.73 134.15 291.38C129.46 288.36 125.61 284.16 122.69 278.88C120.16 274.3 118.81 268.91 118.84 263.12C118.82 257.52 120.16 252.13 122.69 247.55C125.61 242.29 129.44 238.09 134.13 235.07C154.83 221.72 165.14 197.01 159.83 173.57C158.57 168.03 158.81 162.24 160.51 156.3C163.45 146.01 172.01 137.47 182.3 134.54C188.22 132.86 194.03 132.62 199.55 133.86C222.93 139.18 247.7 128.88 261.05 108.16C264.05 103.5 268.25 99.6601 273.51 96.7201C282.86 91.5501 294.98 91.5501 304.35 96.7201C309.63 99.6601 313.83 103.49 316.83 108.16C330.18 128.86 354.91 139.15 378.31 133.84C383.87 132.6 389.66 132.84 395.58 134.52C405.87 137.46 414.43 146.02 417.39 156.31C419.09 162.23 419.31 168.04 418.05 173.58C412.73 197.01 423.03 221.73 443.73 235.06C448.42 238.08 452.25 242.28 455.17 247.54C457.7 252.14 459.05 257.53 459.02 263.3C459.04 268.9 457.7 274.29 455.17 278.87C452.25 284.13 448.42 288.35 443.76 291.35C423.06 304.7 412.73 329.43 418.06 352.83C419.32 358.39 419.1 364.2 417.4 370.12C414.44 380.41 405.88 388.97 395.59 391.91C389.73 393.61 383.92 393.85 378.36 392.59C354.98 387.29 330.23 397.59 316.86 418.29H316.84H316.83ZM500.36 450.94L440.92 457.54L434.34 516.81L433.08 518.62L431.04 518.17H430.95L353.24 440.48C357.01 435.37 363.14 432.79 368.91 434.11C381.52 436.98 394.42 436.52 407.31 432.85C426.16 427.46 442.09 414.6 451.61 397.82L502.12 448.76C502.25 449.82 501.44 450.83 500.35 450.95V450.93L500.36 450.94ZM117.71 346.27C117.75 346.1 117.8 345.93 117.77 346.04C117.77 346.13 117.75 346.21 117.73 346.27H117.71Z" fill="#4FE89C"/>
</svg>
