<svg width="576" height="582" viewBox="0 0 576 582" fill="none" xmlns="http://www.w3.org/2000/svg">
<path d="M544.9 290.99C544.9 432.22 430.13 546.99 288.9 546.99C147.67 546.99 32.8999 432.22 32.8999 290.99C32.8999 149.76 147.68 34.9902 288.9 34.9902C304.47 34.9902 320.26 36.4802 335.41 39.2602C346.93 41.3902 354.61 52.4902 352.48 64.0102C350.35 75.5302 339.25 83.2102 327.73 81.0802C315.14 78.7302 301.92 77.6702 288.9 77.6702C171.35 77.6702 75.5699 173.46 75.5699 291C75.5699 408.54 171.36 504.33 288.9 504.33C406.44 504.33 502.23 408.54 502.23 291C502.23 277.99 500.95 264.97 498.82 252.17C496.69 240.65 504.37 229.56 515.89 227.42C527.62 225.29 538.5 232.97 540.64 244.49C543.41 259.64 544.91 275.42 544.91 291L544.9 290.99ZM307.25 164.27C318.98 165.98 329.65 157.87 331.36 146.14C333.07 134.41 324.96 123.74 313.23 122.03C305.12 120.96 297.02 120.32 288.91 120.32C194.83 120.32 118.24 196.91 118.24 290.99C118.24 385.07 194.83 461.66 288.91 461.66C382.99 461.66 459.58 385.07 459.58 290.99C459.58 282.88 458.94 274.78 457.87 266.67C456.16 254.94 445.5 246.83 433.76 248.54C422.02 250.25 413.92 260.91 415.63 272.65C416.48 278.62 416.91 284.81 416.91 291C416.91 361.61 359.52 419 288.91 419C218.3 419 160.91 361.61 160.91 291C160.91 220.39 218.3 163 288.91 163C295.1 163 301.28 163.43 307.26 164.28L307.25 164.27ZM260.53 259.2C269.28 251.31 270.13 237.87 262.24 229.12C254.35 220.37 240.91 219.52 232.16 227.41C214.03 243.62 203.79 266.88 203.79 290.98C203.79 338.13 241.98 376.31 289.12 376.31C313.44 376.31 336.48 365.86 352.69 347.94C360.58 339.19 359.73 325.75 350.98 317.86C342.23 309.97 328.79 310.82 320.9 319.57C312.79 328.53 301.27 333.86 289.11 333.86C265.64 333.86 246.44 314.66 246.44 291.19C246.44 279.03 251.56 267.51 260.73 259.4L260.52 259.19L260.53 259.2ZM295.3 254.51C286.98 262.83 286.98 276.27 295.3 284.59C299.57 288.86 304.9 290.78 310.45 290.78C316 290.78 321.33 288.65 325.6 284.59L426.08 184.11H481.33C487.09 184.11 492.42 181.76 496.48 177.92L539.15 135.25C545.34 129.06 547.04 119.89 543.84 112C540.64 104.11 532.75 98.7702 524.21 98.7702H481.54V56.3202C481.54 47.7902 476.42 39.8902 468.31 36.6902C460.2 33.2802 451.24 35.2002 445.06 41.3802L402.39 84.0502C398.34 88.1002 396.2 93.4402 396.2 99.2002V154.45L295.72 254.93L295.29 254.5L295.3 254.51Z" fill="#4FE89C"/>
</svg>
