<svg width="576" height="582" viewBox="0 0 576 582" fill="none" xmlns="http://www.w3.org/2000/svg">
<path d="M509.68 413.06V146.73H443.1V191.12H465.29V413.06H356.23L334.04 435.25H241.45L219.26 413.06H110.2V191.12H132.39V146.73H65.81V413.06H21.42V479.64C21.42 516.35 51.29 546.22 88 546.22H487.49C524.2 546.22 554.07 516.35 554.07 479.64V413.06H509.68ZM509.68 479.64C509.68 491.89 499.72 501.83 487.49 501.83H88C75.77 501.83 65.81 491.89 65.81 479.64V457.45H200.88L223.07 479.64H352.42L374.61 457.45H509.68V479.64ZM183.53 254.73L214.82 236.66C228.23 251.09 245.71 261.56 265.55 266.11V302.09H309.94V266.11C329.8 261.58 347.27 251.08 360.67 236.66L391.96 254.73L414.15 216.29L382.72 198.16C385.58 188.86 387.58 179.18 387.58 168.93C387.58 158.68 385.58 149.02 382.72 139.7L414.15 121.57L391.96 83.13L360.67 101.2C347.26 86.77 329.78 76.3 309.94 71.75V35.77H265.55V71.75C245.69 76.28 228.22 86.78 214.82 101.2L183.53 83.13L161.34 121.57L192.77 139.7C189.91 149 187.91 158.68 187.91 168.93C187.91 179.18 189.91 188.84 192.77 198.16L161.34 216.29L183.53 254.73ZM287.75 113.44C318.33 113.44 343.23 138.32 343.23 168.92C343.23 199.52 318.33 224.4 287.75 224.4C257.17 224.4 232.27 199.52 232.27 168.92C232.27 138.32 257.17 113.44 287.75 113.44Z" fill="#4FE89C"/>
</svg>
