<svg width="576" height="582" viewBox="0 0 576 582" fill="none" xmlns="http://www.w3.org/2000/svg">
<path d="M439.06 120.32H415.59C405.78 71.6802 362.68 34.9902 311.06 34.9902H268.39C216.98 34.9902 173.88 71.6802 163.86 120.32H140.39C81.51 120.32 33.72 168.11 33.72 226.99V440.32C33.72 499.2 81.51 546.99 140.39 546.99H439.06C497.94 546.99 545.73 499.2 545.73 440.32V226.99C545.73 168.11 497.94 120.32 439.06 120.32ZM268.39 77.6502H311.06C338.79 77.6502 362.69 95.5702 371.43 120.32H208.02C216.77 95.5702 240.45 77.6502 268.39 77.6502ZM503.06 440.32C503.06 475.52 474.26 504.32 439.06 504.32H140.39C105.19 504.32 76.39 475.52 76.39 440.32V226.99C76.39 191.79 105.19 162.99 140.39 162.99H439.06C474.26 162.99 503.06 191.79 503.06 226.99V440.32Z" fill="#4FE89C"/>
</svg>
