<svg width="576" height="582" viewBox="0 0 576 582" fill="none" xmlns="http://www.w3.org/2000/svg">
<path d="M30.73 200.9V158.23C30.73 99.35 78.52 51.5601 137.4 51.5601H180.07C191.8 51.5601 201.4 61.16 201.4 72.89C201.4 84.62 191.8 94.2201 180.07 94.2201H137.4C102.2 94.2201 73.4 123.02 73.4 158.22V200.89C73.4 212.62 63.8 222.22 52.07 222.22C40.34 222.22 30.74 212.62 30.74 200.89L30.73 200.9ZM180.06 520.9H137.39C102.19 520.9 73.39 492.1 73.39 456.9V414.23C73.39 402.5 63.79 392.9 52.06 392.9C40.33 392.9 30.73 402.5 30.73 414.23V456.9C30.73 515.78 78.52 563.57 137.4 563.57H180.07C191.8 563.57 201.4 553.97 201.4 542.24C201.4 530.51 191.8 520.91 180.07 520.91L180.06 520.9ZM521.39 392.9C509.66 392.9 500.06 402.5 500.06 414.23V456.9C500.06 492.1 471.26 520.9 436.06 520.9H393.39C381.66 520.9 372.06 530.5 372.06 542.23C372.06 553.96 381.66 563.56 393.39 563.56H436.06C494.94 563.56 542.73 515.77 542.73 456.89V414.22C542.73 402.49 533.13 392.89 521.4 392.89L521.39 392.9ZM436.06 51.5601H393.39C381.66 51.5601 372.06 61.16 372.06 72.89C372.06 84.62 381.66 94.2201 393.39 94.2201H436.06C471.26 94.2201 500.06 123.02 500.06 158.22V200.89C500.06 212.62 509.66 222.22 521.39 222.22C533.12 222.22 542.72 212.62 542.72 200.89V158.22C542.72 99.34 494.93 51.55 436.05 51.55L436.06 51.5601ZM369.93 395.88L350.73 337.64L397.02 299.88C403.21 294.55 405.55 286.01 402.78 278.12C400.01 270.23 392.54 265.32 384.43 265.32H325.76L305.07 209.64C302.3 201.96 294.83 196.84 286.72 196.84C278.61 196.84 271.15 201.96 268.37 209.64L247.68 265.32H189.01C180.9 265.32 173.44 270.44 170.66 278.12C167.89 285.8 170.02 294.55 176.42 299.67L222.93 337.43L204.58 396.31C202.02 404.2 204.79 412.95 211.41 417.86C214.82 420.42 219.09 421.7 223.14 421.7C226.98 421.7 230.82 420.63 234.02 418.5L286.93 383.09L340.69 418.08C347.73 422.56 356.69 422.35 363.3 417.23C369.91 412.11 372.47 403.58 369.91 395.68V395.89L369.93 395.88Z" fill="#4FE89C"/>
</svg>
