<svg width="576" height="582" viewBox="0 0 576 582" fill="none" xmlns="http://www.w3.org/2000/svg">
<path d="M417.84 203.41C442.71 228.28 442.71 268.7 417.84 293.57L362.94 348.49C358.8 352.63 353.35 354.72 347.91 354.72C342.47 354.72 337.03 352.64 332.88 348.49C324.57 340.18 324.57 326.75 332.88 318.44L387.78 263.52C396.07 255.23 396.07 241.76 387.78 233.47L332.88 178.55C324.57 170.24 324.57 156.81 332.88 148.5C341.19 140.19 354.62 140.19 362.93 148.5L417.83 203.42L417.84 203.41ZM242.61 178.54C250.92 170.23 250.92 156.8 242.61 148.49C234.3 140.18 220.87 140.18 212.56 148.49L157.66 203.41C132.79 228.28 132.79 268.7 157.66 293.57L212.56 348.49C216.7 352.63 222.15 354.72 227.59 354.72C233.03 354.72 238.47 352.64 242.62 348.49C250.93 340.18 250.93 326.75 242.62 318.44L187.72 263.52C179.43 255.23 179.43 241.76 187.72 233.47L242.62 178.55L242.61 178.54ZM542.79 163.47V333.5C542.79 392.1 495.12 439.77 436.52 439.77H309V482.28H394.01C405.74 482.28 415.26 491.78 415.26 503.53C415.26 515.28 405.74 524.78 394.01 524.78H181.48C169.75 524.78 160.23 515.28 160.23 503.53C160.23 491.78 169.75 482.28 181.48 482.28H266.49V439.77H138.97C80.37 439.77 32.7 392.1 32.7 333.5V163.47C32.7 104.87 80.37 57.2002 138.97 57.2002H436.52C495.12 57.2002 542.79 104.87 542.79 163.47ZM500.28 163.47C500.28 128.32 471.67 99.7102 436.52 99.7102H138.97C103.82 99.7102 75.21 128.32 75.21 163.47V333.5C75.21 368.65 103.82 397.26 138.97 397.26H436.52C471.67 397.26 500.28 368.65 500.28 333.5V163.47Z" fill="#4FE89C"/>
</svg>
