<svg width="576" height="582" viewBox="0 0 576 582" fill="none" xmlns="http://www.w3.org/2000/svg">
<path d="M274.71 552.74C415.747 552.74 530.08 438.407 530.08 297.37C530.08 156.333 415.747 42 274.71 42C133.673 42 19.3401 156.333 19.3401 297.37C19.3401 438.407 133.673 552.74 274.71 552.74Z" fill="#4FE89C"/>
<path d="M274.71 167.86C317.64 167.86 322.73 168.02 339.68 168.8C355.36 169.52 363.87 172.13 369.54 174.34C377.04 177.26 382.4 180.74 388.03 186.37C393.66 192 397.14 197.35 400.06 204.86C402.26 210.53 404.88 219.04 405.6 234.72C406.37 251.68 406.54 256.76 406.54 299.69C406.54 342.62 406.38 347.71 405.6 364.66C404.88 380.34 402.27 388.85 400.06 394.52C397.14 402.02 393.66 407.38 388.03 413.01C382.4 418.64 377.05 422.12 369.54 425.04C363.87 427.24 355.36 429.86 339.68 430.58C322.73 431.35 317.64 431.52 274.71 431.52C231.78 431.52 226.69 431.36 209.74 430.58C194.06 429.86 185.55 427.25 179.88 425.04C172.38 422.12 167.02 418.64 161.39 413.01C155.76 407.38 152.28 402.03 149.36 394.52C147.16 388.85 144.54 380.34 143.82 364.66C143.05 347.7 142.88 342.62 142.88 299.69C142.88 256.76 143.04 251.67 143.82 234.72C144.54 219.04 147.15 210.53 149.36 204.86C152.28 197.36 155.76 192 161.39 186.37C167.02 180.74 172.37 177.26 179.88 174.34C185.55 172.14 194.06 169.52 209.74 168.8C226.7 168.03 231.78 167.86 274.71 167.86ZM274.71 138.89C231.04 138.89 225.57 139.08 208.42 139.86C191.31 140.64 179.62 143.36 169.39 147.33C158.82 151.44 149.85 156.94 140.91 165.88C131.97 174.82 126.47 183.79 122.36 194.36C118.39 204.59 115.67 216.28 114.89 233.39C114.11 250.54 113.92 256.02 113.92 299.68C113.92 343.34 114.1 348.82 114.89 365.97C115.67 383.08 118.39 394.77 122.36 405C126.47 415.57 131.97 424.54 140.91 433.48C149.85 442.42 158.82 447.92 169.39 452.03C179.62 456 191.31 458.72 208.42 459.5C225.57 460.28 231.05 460.47 274.71 460.47C318.37 460.47 323.85 460.28 341 459.5C358.11 458.72 369.8 456 380.03 452.03C390.6 447.92 399.57 442.42 408.51 433.48C417.45 424.54 422.95 415.57 427.06 405C431.03 394.77 433.75 383.08 434.53 365.97C435.31 348.82 435.5 343.34 435.5 299.68C435.5 256.02 435.31 250.54 434.53 233.39C433.75 216.28 431.03 204.59 427.06 194.36C422.95 183.79 417.45 174.82 408.51 165.88C399.57 156.94 390.6 151.44 380.03 147.33C369.8 143.36 358.11 140.64 341 139.86C323.85 139.08 318.37 138.89 274.71 138.89Z" fill="white"/>
<path d="M274.71 217.11C229.11 217.11 192.14 254.08 192.14 299.68C192.14 345.28 229.11 382.25 274.71 382.25C320.31 382.25 357.28 345.28 357.28 299.68C357.28 254.08 320.31 217.11 274.71 217.11ZM274.71 353.27C245.11 353.27 221.11 329.27 221.11 299.67C221.11 270.07 245.11 246.07 274.71 246.07C304.31 246.07 328.31 270.07 328.31 299.67C328.31 329.27 304.31 353.27 274.71 353.27Z" fill="white"/>
<path d="M360.54 233.14C371.194 233.14 379.83 224.503 379.83 213.85C379.83 203.196 371.194 194.56 360.54 194.56C349.886 194.56 341.25 203.196 341.25 213.85C341.25 224.503 349.886 233.14 360.54 233.14Z" fill="white"/>
</svg>
