<svg width="576" height="582" viewBox="0 0 576 582" fill="none" xmlns="http://www.w3.org/2000/svg">
<path d="M276.47 552.74C417.507 552.74 531.84 438.407 531.84 297.37C531.84 156.333 417.507 42 276.47 42C135.433 42 21.1 156.333 21.1 297.37C21.1 438.407 135.433 552.74 276.47 552.74Z" fill="#4FE89C"/>
<path d="M296.23 264.84C300.42 260.13 303.88 255.34 308.19 251.28C321.43 238.8 337.1 232.5 355.39 232.66C365.44 232.75 375.38 233.47 385.07 236.27C407.24 242.68 420.12 257.94 426.26 279.59C430.87 295.83 431.72 312.5 431.75 329.22C431.81 364.5 431.65 399.77 431.72 435.05C431.72 438.35 430.8 439.22 427.55 439.19C409.38 439.04 391.2 439.04 373.03 439.19C369.83 439.22 369.14 438.23 369.15 435.21C369.25 401.64 369.28 368.08 369.17 334.51C369.14 326.1 368.61 317.69 366.25 309.51C361.9 294.44 351.12 286.77 335.33 287.6C313.78 288.74 302.57 299.41 299.82 321.33C299.16 326.56 298.85 331.8 298.86 337.07C298.89 369.72 298.83 402.36 298.95 435.01C298.96 438.27 298.15 439.23 294.82 439.2C276.52 439.04 258.21 439.06 239.9 439.19C236.96 439.21 236.12 438.42 236.12 435.45C236.2 370.82 236.2 306.18 236.12 241.55C236.12 238.35 237.16 237.61 240.19 237.63C257.57 237.76 274.96 237.77 292.34 237.62C295.54 237.59 296.37 238.63 296.3 241.66C296.12 249.38 296.24 257.11 296.24 264.84H296.23Z" fill="#FEFEFE"/>
<path d="M196.66 338.7C196.66 370.67 196.61 402.65 196.74 434.62C196.75 438.17 195.87 439.25 192.19 439.21C174.02 439.01 155.86 439.06 137.69 439.18C134.78 439.2 133.9 438.47 133.9 435.46C133.99 370.72 133.98 305.98 133.92 241.24C133.92 238.56 134.57 237.61 137.41 237.62C155.84 237.74 174.27 237.78 192.7 237.6C196.24 237.57 196.72 238.94 196.71 241.97C196.62 274.21 196.66 306.45 196.66 338.68V338.7Z" fill="#FEFEFE"/>
<path d="M201.67 173.48C201.69 193.55 185.39 209.91 165.37 209.92C145.6 209.92 129.16 193.56 129.1 173.8C129.03 153.82 145.46 137.36 165.45 137.38C185.3 137.4 201.66 153.7 201.68 173.48H201.67Z" fill="#FEFEFE"/>
</svg>
