<svg width="576" height="582" viewBox="0 0 576 582" fill="none" xmlns="http://www.w3.org/2000/svg">
<path d="M287.75 552.74C428.787 552.74 543.12 438.407 543.12 297.37C543.12 156.333 428.787 42 287.75 42C146.713 42 32.38 156.333 32.38 297.37C32.38 438.407 146.713 552.74 287.75 552.74Z" fill="#4FE89C"/>
<path fill-rule="evenodd" clip-rule="evenodd" d="M410.59 176.28C380 145.67 339.33 128.8 295.99 128.79C206.7 128.79 134.02 201.44 133.99 290.73C133.98 319.27 141.44 347.14 155.61 371.69L132.63 455.61L218.51 433.09C242.17 445.99 268.81 452.79 295.93 452.8H296C385.28 452.8 457.96 380.15 458 290.85C458.02 247.58 441.18 206.89 410.6 176.28H410.59ZM295.99 425.45H295.93C271.77 425.45 248.07 418.95 227.4 406.69L222.48 403.77L171.52 417.13L185.12 367.46L181.92 362.37C168.44 340.94 161.32 316.17 161.33 290.73C161.36 216.51 221.76 156.13 296.03 156.13C331.99 156.14 365.8 170.16 391.22 195.61C416.64 221.05 430.63 254.87 430.62 290.84C430.59 365.06 370.19 425.45 295.97 425.45H295.99ZM369.85 324.64C365.8 322.62 345.9 312.83 342.19 311.47C338.48 310.12 335.78 309.44 333.08 313.5C330.38 317.55 322.62 326.67 320.26 329.37C317.9 332.07 315.54 332.41 311.49 330.38C307.44 328.36 294.4 324.08 278.94 310.3C266.91 299.57 258.78 286.32 256.42 282.27C254.06 278.22 256.17 276.03 258.2 274.01C260.02 272.2 262.25 269.28 264.27 266.92C266.29 264.56 266.97 262.87 268.32 260.17C269.67 257.47 268.99 255.11 267.98 253.08C266.97 251.05 258.87 231.14 255.5 223.04C252.21 215.15 248.88 216.22 246.39 216.09C244.03 215.97 241.33 215.95 238.63 215.95C235.93 215.95 231.55 216.96 227.84 221.01C224.13 225.06 213.67 234.85 213.67 254.77C213.67 274.69 228.17 293.93 230.2 296.63C232.22 299.33 258.74 340.2 299.35 357.73C309.01 361.9 316.55 364.39 322.43 366.25C332.13 369.33 340.95 368.89 347.93 367.85C355.71 366.69 371.88 358.06 375.25 348.61C378.62 339.16 378.62 331.06 377.61 329.37C376.6 327.68 373.9 326.67 369.85 324.64Z" fill="white"/>
</svg>
